SplineFontDB: 3.0
FontName: PhilosopherTwo-Italic
FullName: Philosopher Two Italic
FamilyName: Philosopher Two
Weight: Book
Copyright: Copyright (c) 2011 by Jovanny Lemonad. All rights reserved.
Version: 002
ItalicAngle: -10
UnderlinePosition: -150
UnderlineWidth: 50
Ascent: 800
Descent: 200
sfntRevision: 0x00010000
LayerCount: 2
Layer: 0 1 "Back"  1
Layer: 1 1 "Fore"  0
XUID: [1021 288 713564382 12654243]
FSType: 0
OS2Version: 3
OS2_WeightWidthSlopeOnly: 0
OS2_UseTypoMetrics: 1
CreationTime: 1303645766
ModificationTime: 1304081879
PfmFamily: 17
TTFWeight: 400
TTFWidth: 5
LineGap: 0
VLineGap: 0
Panose: 2 0 5 3 0 0 0 9 0 4
OS2TypoAscent: 854
OS2TypoAOffset: 0
OS2TypoDescent: -212
OS2TypoDOffset: 0
OS2TypoLinegap: 0
OS2WinAscent: 854
OS2WinAOffset: 0
OS2WinDescent: 212
OS2WinDOffset: 0
HheadAscent: 854
HheadAOffset: 0
HheadDescent: -212
HheadDOffset: 0
OS2SubXSize: 700
OS2SubYSize: 650
OS2SubXOff: 0
OS2SubYOff: 143
OS2SupXSize: 700
OS2SupYSize: 650
OS2SupXOff: 0
OS2SupYOff: 453
OS2StrikeYSize: 50
OS2StrikeYPos: 250
OS2Vendor: 'MONO'
OS2CodePages: 20000011.00000000
OS2UnicodeRanges: 8000002f.0000000a.00000000.00000000
Lookup: 4 0 0 "'frac' Diagonal Fractions in Latin lookup 0"  {"'frac' Diagonal Fractions in Latin lookup 0 subtable"  } ['frac' ('latn' <'dflt' > ) ]
Lookup: 258 0 0 "'kern' Horizontal Kerning in Latin lookup 0"  {"'kern' Horizontal Kerning in Latin lookup 0 per glyph data 0"  "'kern' Horizontal Kerning in Latin lookup 0 kerning class 1"  } ['kern' ('latn' <'dflt' > ) ]
MarkAttachClasses: 1
DEI: 91125
KernClass2: 68+ 56 "'kern' Horizontal Kerning in Latin lookup 0 kerning class 1" 
 27 guilsinglleft guillemotleft
 29 guilsinglright guillemotright
 22 quotedblleft quoteleft
 24 quotedblright quoteright
 9 trademark
 20 quotedbl quotesingle
 8 asterisk
 28 emdash endash hyphen uni00AD
 40 quotedblbase quotesinglbase comma period
 5 slash
 9 backslash
 10 exclamdown
 10 registered
 12 questiondown
 9 ampersand

StartChar: plusminus
Encoding: 177 177 4
Width: 575
Flags: W
LayerCount: 2
Fore
SplineSet
21 60 m 1,0,-1
 32 120 l 1,1,-1
 232 120 l 1,2,-1
 263 300 l 1,3,-1
 63 300 l 1,4,-1
 74 360 l 1,5,-1
 274 360 l 1,6,-1
 309 560 l 1,7,-1
 369 560 l 1,8,-1
 334 360 l 1,9,-1
 534 360 l 1,10,-1
 523 300 l 1,11,-1
 323 300 l 1,12,-1
 292 120 l 1,13,-1
 492 120 l 1,14,-1
 481 60 l 1,15,-1
 21 60 l 1,0,-1
EndSplineSet
EndChar

StartChar: emdash
Encoding: 8212 8212 5
Width: 883
Flags: W
LayerCount: 2
Fore
SplineSet
802 230 m 1,0,-1
 62 230 l 1,1,-1
 73 290 l 1,2,-1
 813 290 l 1,3,-1
 802 230 l 1,0,-1
EndSplineSet
EndChar

StartChar: quotedblleft
Encoding: 8220 8220 6
Width: 409
Flags: W
LayerCount: 2
Fore
SplineSet
420 665 m 1,0,1
 378 639 378 639 351 607 c 128,-1,2
 324 575 324 575 316 530 c 1,3,-1
 348 540 l 1,4,5
 368 540 368 540 381 527 c 128,-1,6
 394 514 394 514 394 494 c 0,7,8
 394 467 394 467 372.5 446 c 128,-1,9
 351 425 351 425 322 425 c 0,10,11
 296 425 296 425 282 438.5 c 128,-1,12
 268 452 268 452 268 477 c 0,13,14
 268 510 268 510 279.5 539.5 c 128,-1,15
 291 569 291 569 311 595 c 128,-1,16
 331 621 331 621 357 642.5 c 128,-1,17
 383 664 383 664 412 680 c 1,18,-1
 420 665 l 1,0,1
240 665 m 1,19,20
 198 639 198 639 171 607 c 128,-1,21
 144 575 144 575 136 530 c 1,22,-1
 168 540 l 1,23,24
 188 540 188 540 201 527 c 128,-1,25
 214 514 214 514 214 494 c 0,26,27
 214 467 214 467 192.5 446 c 128,-1,28
 171 425 171 425 142 425 c 0,29,30
 116 425 116 425 102 438.5 c 128,-1,31
 88 452 88 452 88 477 c 0,32,33
 88 510 88 510 99.5 539.5 c 128,-1,34
 111 569 111 569 131 595 c 128,-1,35
 151 621 151 621 177 642.5 c 128,-1,36
 203 664 203 664 232 680 c 1,37,-1
 240 665 l 1,19,20
EndSplineSet
EndChar

StartChar: quotedblright
Encoding: 8221 8221 7
Width: 410
Flags: W
LayerCount: 2
Fore
SplineSet
90 440 m 1,0,1
 132 466 132 466 159 498 c 128,-1,2
 186 530 186 530 194 575 c 1,3,-1
 162 565 l 1,4,5
 142 565 142 565 129 578 c 128,-1,6
 116 591 116 591 116 611 c 0,7,8
 116 638 116 638 137 659 c 128,-1,9
 158 680 158 680 187 680 c 0,10,11
 213 680 213 680 227.5 667 c 128,-1,12
 242 654 242 654 242 628 c 0,13,14
 242 595 242 595 230 565.5 c 128,-1,15
 218 536 218 536 198 510 c 128,-1,16
 178 484 178 484 152 462.5 c 128,-1,17
 126 441 126 441 97 425 c 1,18,-1
 90 440 l 1,0,1
270 440 m 1,19,20
 312 466 312 466 339 498 c 128,-1,21
 366 530 366 530 374 575 c 1,22,-1
 342 565 l 1,23,24
 322 565 322 565 309 578 c 128,-1,25
 296 591 296 591 296 611 c 0,26,27
 296 638 296 638 317 659 c 128,-1,28
 338 680 338 680 367 680 c 0,29,30
 393 680 393 680 407.5 667 c 128,-1,31
 422 654 422 654 422 628 c 0,32,33
 422 595 422 595 410 565.5 c 128,-1,34
 398 536 398 536 378 510 c 128,-1,35
 358 484 358 484 332 462.5 c 128,-1,36
 306 441 306 441 277 425 c 1,37,-1
 270 440 l 1,19,20
EndSplineSet
EndChar

StartChar: guilsinglleft
Encoding: 8249 8249 8
Width: 305
Flags: W
LayerCount: 2
Fore
SplineSet
26 225 m 1,0,-1
 236 420 l 1,1,-1
 276 420 l 1,2,-1
 131 225 l 1,3,-1
 207 30 l 1,4,-1
 167 30 l 1,5,-1
 26 225 l 1,0,-1
EndSplineSet
EndChar

StartChar: quotedblbase
Encoding: 8222 8222 9
Width: 421
Flags: W
LayerCount: 2
Fore
SplineSet
-10 -140 m 1,0,1
 32 -114 32 -114 59 -82 c 128,-1,2
 86 -50 86 -50 94 -5 c 1,3,-1
 62 -15 l 1,4,5
 42 -15 42 -15 29 -2 c 128,-1,6
 16 11 16 11 16 30 c 0,7,8
 16 57 16 57 37 78.5 c 128,-1,9
 58 100 58 100 87 100 c 0,10,11
 113 100 113 100 127.5 87 c 128,-1,12
 142 74 142 74 142 48 c 0,13,14
 142 15 142 15 130 -14.5 c 128,-1,15
 118 -44 118 -44 98 -70 c 128,-1,16
 78 -96 78 -96 52 -117.5 c 128,-1,17
 26 -139 26 -139 -3 -155 c 1,18,-1
 -10 -140 l 1,0,1
170 -140 m 1,19,20
 212 -114 212 -114 239 -82 c 128,-1,21
 266 -50 266 -50 274 -5 c 1,22,-1
 242 -15 l 1,23,24
 222 -15 222 -15 209 -2 c 128,-1,25
 196 11 196 11 196 30 c 0,26,27
 196 57 196 57 217 78.5 c 128,-1,28
 238 100 238 100 267 100 c 0,29,30
 293 100 293 100 307.5 87 c 128,-1,31
 322 74 322 74 322 48 c 0,32,33
 322 15 322 15 310 -14.5 c 128,-1,34
 298 -44 298 -44 278 -70 c 128,-1,35
 258 -96 258 -96 232 -117.5 c 128,-1,36
 206 -139 206 -139 177 -155 c 1,37,-1
 170 -140 l 1,19,20
EndSplineSet
EndChar

StartChar: endash
Encoding: 8211 8211 10
Width: 613
Flags: W
LayerCount: 2
Fore
SplineSet
532 230 m 1,0,-1
 62 230 l 1,1,-1
 73 290 l 1,2,-1
 543 290 l 1,3,-1
 532 230 l 1,0,-1
EndSplineSet
EndChar

StartChar: Euro
Encoding: 8364 8364 11
Width: 731
Flags: W
LayerCount: 2
Fore
SplineSet
375 255 m 1,0,-1
 199 255 l 1,1,-1
 199 242 l 2,2,3
 199 197 199 197 209.5 156.5 c 128,-1,4
 220 116 220 116 243.5 86 c 128,-1,5
 267 56 267 56 304 38 c 128,-1,6
 341 20 341 20 394 20 c 0,7,8
 469 20 469 20 529.5 56 c 128,-1,9
 590 92 590 92 644 160 c 1,10,-1
 661 145 l 1,11,12
 628 98 628 98 593.5 66.5 c 128,-1,13
 559 35 559 35 521.5 15.5 c 128,-1,14
 484 -4 484 -4 443 -12 c 128,-1,15
 402 -20 402 -20 357 -20 c 0,16,17
 295 -20 295 -20 247 0 c 128,-1,18
 199 20 199 20 166.5 56 c 128,-1,19
 134 92 134 92 117 141 c 128,-1,20
 100 190 100 190 100 248 c 2,21,-1
 100 255 l 1,22,-1
 25 255 l 1,23,-1
 43 295 l 1,24,-1
 103 295 l 1,25,-1
 113 355 l 1,26,-1
 58 355 l 1,27,-1
 75 395 l 1,28,-1
 127 395 l 1,29,30
 149 456 149 456 186 508 c 128,-1,31
 223 560 223 560 270 598.5 c 128,-1,32
 317 637 317 637 370.5 658.5 c 128,-1,33
 424 680 424 680 480 680 c 0,34,35
 509 680 509 680 548 674.5 c 128,-1,36
 587 669 587 669 622.5 655 c 128,-1,37
 658 641 658 641 682.5 615.5 c 128,-1,38
 707 590 707 590 707 550 c 0,39,40
 707 530 707 530 704 506 c 128,-1,41
 701 482 701 482 696 457 c 0,42,43
 696 455 696 455 695.5 453.5 c 128,-1,44
 695 452 695 452 695 450 c 1,45,-1
 675 450 l 1,46,47
 673 548 673 548 629.5 594 c 128,-1,48
 586 640 586 640 503 640 c 0,49,50
 459 640 459 640 417.5 627.5 c 128,-1,51
 376 615 376 615 339.5 586 c 128,-1,52
 303 557 303 557 273.5 510 c 128,-1,53
 244 463 244 463 224 395 c 1,54,-1
 425 395 l 1,55,-1
 408 355 l 1,56,-1
 213 355 l 1,57,-1
 203 295 l 1,58,-1
 393 295 l 1,59,-1
 375 255 l 1,0,-1
EndSplineSet
EndChar

StartChar: percent
Encoding: 37 37 12
Width: 676
Flags: W
LayerCount: 2
Fore
SplineSet
25 0 m 1,0,-1
 596 660 l 1,1,-1
 671 660 l 1,2,-1
 100 0 l 1,3,-1
 25 0 l 1,0,-1
455 30 m 0,4,5
 480 30 480 30 500 41 c 128,-1,6
 520 52 520 52 533 70 c 128,-1,7
 546 88 546 88 553 111.5 c 128,-1,8
 560 135 560 135 560 160 c 0,9,10
 560 230 560 230 490 230 c 0,11,12
 465 230 465 230 445 219 c 128,-1,13
 425 208 425 208 411.5 190 c 128,-1,14
 398 172 398 172 391 149 c 128,-1,15
 384 126 384 126 384 101 c 0,16,17
 384 30 384 30 455 30 c 0,4,5
620 160 m 0,18,19
 620 125 620 125 607 95 c 128,-1,20
 594 65 594 65 571.5 43 c 128,-1,21
 549 21 549 21 517.5 8 c 128,-1,22
 486 -5 486 -5 449 -5 c 0,23,24
 389 -5 389 -5 356.5 22 c 128,-1,25
 324 49 324 49 324 100 c 0,26,27
 324 135 324 135 337 165 c 128,-1,28
 350 195 350 195 373 217.5 c 128,-1,29
 396 240 396 240 427.5 252.5 c 128,-1,30
 459 265 459 265 496 265 c 0,31,32
 556 265 556 265 588 237.5 c 128,-1,33
 620 210 620 210 620 160 c 0,18,19
205 430 m 0,34,35
 230 430 230 430 250 441 c 128,-1,36
 270 452 270 452 283.5 470 c 128,-1,37
 297 488 297 488 304 511 c 128,-1,38
 311 534 311 534 311 559 c 0,39,40
 311 630 311 630 241 630 c 0,41,42
 215 630 215 630 195.5 619 c 128,-1,43
 176 608 176 608 162.5 590 c 128,-1,44
 149 572 149 572 142 548.5 c 128,-1,45
 135 525 135 525 135 500 c 0,46,47
 135 430 135 430 205 430 c 0,34,35
371 560 m 0,48,49
 371 525 371 525 358 495 c 128,-1,50
 345 465 345 465 322 443 c 128,-1,51
 299 421 299 421 267.5 408 c 128,-1,52
 236 395 236 395 199 395 c 0,53,54
 139 395 139 395 107 422.5 c 128,-1,55
 75 450 75 450 75 500 c 0,56,57
 75 534 75 534 88 564.5 c 128,-1,58
 101 595 101 595 124 617 c 128,-1,59
 147 639 147 639 178.5 652 c 128,-1,60
 210 665 210 665 247 665 c 0,61,62
 307 665 307 665 339 637.5 c 128,-1,63
 371 610 371 610 371 560 c 0,48,49
EndSplineSet
EndChar

StartChar: perthousand
Encoding: 8240 8240 13
Width: 1008
Flags: W
LayerCount: 2
Fore
SplineSet
30 0 m 1,0,-1
 601 660 l 1,1,-1
 676 660 l 1,2,-1
 105 0 l 1,3,-1
 30 0 l 1,0,-1
460 30 m 0,4,5
 485 30 485 30 505 41 c 128,-1,6
 525 52 525 52 538 70 c 128,-1,7
 551 88 551 88 558 111.5 c 128,-1,8
 565 135 565 135 565 160 c 0,9,10
 565 230 565 230 495 230 c 0,11,12
 470 230 470 230 450 219 c 128,-1,13
 430 208 430 208 416.5 190 c 128,-1,14
 403 172 403 172 396 149 c 128,-1,15
 389 126 389 126 389 101 c 0,16,17
 389 30 389 30 460 30 c 0,4,5
625 160 m 0,18,19
 625 125 625 125 612 95 c 128,-1,20
 599 65 599 65 576.5 43 c 128,-1,21
 554 21 554 21 522.5 8 c 128,-1,22
 491 -5 491 -5 454 -5 c 0,23,24
 394 -5 394 -5 361.5 22 c 128,-1,25
 329 49 329 49 329 100 c 0,26,27
 329 135 329 135 342 165 c 128,-1,28
 355 195 355 195 378 217.5 c 128,-1,29
 401 240 401 240 432.5 252.5 c 128,-1,30
 464 265 464 265 501 265 c 0,31,32
 561 265 561 265 593 237.5 c 128,-1,33
 625 210 625 210 625 160 c 0,18,19
210 430 m 0,34,35
 235 430 235 430 255 441 c 128,-1,36
 275 452 275 452 288.5 470 c 128,-1,37
 302 488 302 488 309 511 c 128,-1,38
 316 534 316 534 316 559 c 0,39,40
 316 630 316 630 246 630 c 0,41,42
 220 630 220 630 200.5 619 c 128,-1,43
 181 608 181 608 167.5 590 c 128,-1,44
 154 572 154 572 147 548.5 c 128,-1,45
 140 525 140 525 140 500 c 0,46,47
 140 430 140 430 210 430 c 0,34,35
376 560 m 0,48,49
 376 525 376 525 363 495 c 128,-1,50
 350 465 350 465 327 443 c 128,-1,51
 304 421 304 421 272.5 408 c 128,-1,52
 241 395 241 395 204 395 c 0,53,54
 144 395 144 395 112 422.5 c 128,-1,55
 80 450 80 450 80 500 c 0,56,57
 80 534 80 534 93 564.5 c 128,-1,58
 106 595 106 595 129 617 c 128,-1,59
 152 639 152 639 183.5 652 c 128,-1,60
 215 665 215 665 252 665 c 0,61,62
 312 665 312 665 344 637.5 c 128,-1,63
 376 610 376 610 376 560 c 0,48,49
790 30 m 0,64,65
 815 30 815 30 835 41 c 128,-1,66
 855 52 855 52 868 70 c 128,-1,67
 881 88 881 88 888 111.5 c 128,-1,68
 895 135 895 135 895 160 c 0,69,70
 895 230 895 230 825 230 c 0,71,72
 800 230 800 230 780 219 c 128,-1,73
 760 208 760 208 746.5 190 c 128,-1,74
 733 172 733 172 726 149 c 128,-1,75
 719 126 719 126 719 101 c 0,76,77
 719 30 719 30 790 30 c 0,64,65
955 160 m 0,78,79
 955 125 955 125 942 95 c 128,-1,80
 929 65 929 65 906.5 43 c 128,-1,81
 884 21 884 21 852.5 8 c 128,-1,82
 821 -5 821 -5 784 -5 c 0,83,84
 724 -5 724 -5 691.5 22 c 128,-1,85
 659 49 659 49 659 100 c 0,86,87
 659 135 659 135 672 165 c 128,-1,88
 685 195 685 195 708 217.5 c 128,-1,89
 731 240 731 240 762.5 252.5 c 128,-1,90
 794 265 794 265 831 265 c 0,91,92
 891 265 891 265 923 237.5 c 128,-1,93
 955 210 955 210 955 160 c 0,78,79
EndSplineSet
Ligature2: "'frac' Diagonal Fractions in Latin lookup 0 subtable" zero slash zero zero
EndChar

StartChar: ellipsis
Encoding: 8230 8230 14
Width: 645
Flags: W
LayerCount: 2
Fore
SplineSet
81 95 m 0,0,1
 102 95 102 95 114.5 82 c 128,-1,2
 127 69 127 69 127 50 c 0,3,4
 127 26 127 26 107.5 6 c 128,-1,5
 88 -14 88 -14 62 -14 c 0,6,7
 42 -14 42 -14 29.5 -1.5 c 128,-1,8
 17 11 17 11 17 31 c 0,9,10
 17 43 17 43 22 54.5 c 128,-1,11
 27 66 27 66 36 75 c 128,-1,12
 45 84 45 84 56.5 89.5 c 128,-1,13
 68 95 68 95 81 95 c 0,0,1
291 95 m 0,14,15
 312 95 312 95 324.5 82 c 128,-1,16
 337 69 337 69 337 50 c 0,17,18
 337 26 337 26 317.5 6 c 128,-1,19
 298 -14 298 -14 272 -14 c 0,20,21
 252 -14 252 -14 239.5 -1.5 c 128,-1,22
 227 11 227 11 227 31 c 0,23,24
 227 43 227 43 232 54.5 c 128,-1,25
 237 66 237 66 246 75 c 128,-1,26
 255 84 255 84 266.5 89.5 c 128,-1,27
 278 95 278 95 291 95 c 0,14,15
501 95 m 0,28,29
 522 95 522 95 534.5 82 c 128,-1,30
 547 69 547 69 547 50 c 0,31,32
 547 26 547 26 527.5 6 c 128,-1,33
 508 -14 508 -14 482 -14 c 0,34,35
 462 -14 462 -14 449.5 -1.5 c 128,-1,36
 437 11 437 11 437 31 c 0,37,38
 437 43 437 43 442 54.5 c 128,-1,39
 447 66 447 66 456 75 c 128,-1,40
 465 84 465 84 476.5 89.5 c 128,-1,41
 488 95 488 95 501 95 c 0,28,29
EndSplineSet
EndChar

StartChar: guilsinglright
Encoding: 8250 8250 15
Width: 303
Flags: W
LayerCount: 2
Fore
SplineSet
50 30 m 1,0,-1
 10 30 l 1,1,-1
 154 225 l 1,2,-1
 79 420 l 1,3,-1
 119 420 l 1,4,-1
 259 225 l 1,5,-1
 50 30 l 1,0,-1
EndSplineSet
EndChar

StartChar: guillemotright
Encoding: 187 187 16
Width: 375
Flags: W
LayerCount: 2
Fore
SplineSet
189 225 m 1,0,-1
 64 80 l 1,1,-1
 24 80 l 1,2,-1
 109 225 l 1,3,-1
 75 370 l 1,4,-1
 115 370 l 1,5,-1
 189 225 l 1,0,-1
169 420 m 1,6,-1
 209 420 l 1,7,-1
 329 225 l 1,8,-1
 140 30 l 1,9,-1
 100 30 l 1,10,-1
 229 225 l 1,11,-1
 169 420 l 1,6,-1
EndSplineSet
EndChar

StartChar: quotesinglbase
Encoding: 8218 8218 17
Width: 241
Flags: W
LayerCount: 2
Fore
SplineSet
-10 -140 m 1,0,1
 32 -114 32 -114 59 -82 c 128,-1,2
 86 -50 86 -50 94 -5 c 1,3,-1
 62 -15 l 1,4,5
 42 -15 42 -15 29 -2 c 128,-1,6
 16 11 16 11 16 30 c 0,7,8
 16 57 16 57 37 78.5 c 128,-1,9
 58 100 58 100 87 100 c 0,10,11
 113 100 113 100 127.5 87 c 128,-1,12
 142 74 142 74 142 48 c 0,13,14
 142 15 142 15 130 -14.5 c 128,-1,15
 118 -44 118 -44 98 -70 c 128,-1,16
 78 -96 78 -96 52 -117.5 c 128,-1,17
 26 -139 26 -139 -3 -155 c 1,18,-1
 -10 -140 l 1,0,1
EndSplineSet
EndChar

StartChar: quoteleft
Encoding: 8216 8216 18
Width: 229
Flags: W
LayerCount: 2
Fore
SplineSet
240 665 m 1,0,1
 198 639 198 639 171 607 c 128,-1,2
 144 575 144 575 136 530 c 1,3,-1
 168 540 l 1,4,5
 188 540 188 540 201 527 c 128,-1,6
 214 514 214 514 214 494 c 0,7,8
 214 467 214 467 192.5 446 c 128,-1,9
 171 425 171 425 142 425 c 0,10,11
 116 425 116 425 102 438.5 c 128,-1,12
 88 452 88 452 88 477 c 0,13,14
 88 510 88 510 99.5 539.5 c 128,-1,15
 111 569 111 569 131 595 c 128,-1,16
 151 621 151 621 177 642.5 c 128,-1,17
 203 664 203 664 232 680 c 1,18,-1
 240 665 l 1,0,1
EndSplineSet
EndChar

StartChar: quoteright
Encoding: 8217 8217 19
Width: 230
Flags: W
LayerCount: 2
Fore
SplineSet
90 440 m 1,0,1
 132 466 132 466 159 498 c 128,-1,2
 186 530 186 530 194 575 c 1,3,-1
 162 565 l 1,4,5
 142 565 142 565 129 578 c 128,-1,6
 116 591 116 591 116 611 c 0,7,8
 116 638 116 638 137 659 c 128,-1,9
 158 680 158 680 187 680 c 0,10,11
 213 680 213 680 227.5 667 c 128,-1,12
 242 654 242 654 242 628 c 0,13,14
 242 595 242 595 230 565.5 c 128,-1,15
 218 536 218 536 198 510 c 128,-1,16
 178 484 178 484 152 462.5 c 128,-1,17
 126 441 126 441 97 425 c 1,18,-1
 90 440 l 1,0,1
EndSplineSet
EndChar

StartChar: trademark
Encoding: 8482 8482 20
Width: 885
Flags: W
LayerCount: 2
Fore
SplineSet
208 630 m 2,0,1
 174 630 174 630 148.5 611 c 128,-1,2
 123 592 123 592 116 555 c 1,3,-1
 101 555 l 1,4,-1
 109 600 l 2,5,6
 114 623 114 623 128 641.5 c 128,-1,7
 142 660 142 660 176 660 c 2,8,-1
 449 660 l 1,9,-1
 444 630 l 1,10,-1
 313 630 l 1,11,-1
 256 307 l 1,12,-1
 189 307 l 1,13,-1
 246 630 l 1,14,-1
 208 630 l 2,0,1
593 307 m 1,15,-1
 578 307 l 1,16,-1
 500 589 l 1,17,-1
 451 307 l 1,18,-1
 421 307 l 1,19,-1
 483 660 l 1,20,-1
 554 660 l 1,21,-1
 622 412 l 1,22,-1
 778 660 l 1,23,-1
 845 660 l 1,24,25
 834 597 834 597 826.5 553 c 128,-1,26
 819 509 819 509 814 479 c 128,-1,27
 809 449 809 449 806 432 c 128,-1,28
 803 415 803 415 802 405 c 128,-1,29
 801 395 801 395 800.5 391 c 128,-1,30
 800 387 800 387 800 384 c 0,31,32
 800 352 800 352 810.5 329.5 c 128,-1,33
 821 307 821 307 843 307 c 1,34,-1
 840 292 l 1,35,36
 780 292 780 292 756 315 c 128,-1,37
 732 338 732 338 732 380 c 0,38,39
 732 384 732 384 732.5 391.5 c 128,-1,40
 733 399 733 399 736 419.5 c 128,-1,41
 739 440 739 440 745.5 478 c 128,-1,42
 752 516 752 516 764 582 c 1,43,-1
 593 307 l 1,15,-1
EndSplineSet
EndChar

StartChar: exclam
Encoding: 33 33 21
Width: 239
Flags: W
LayerCount: 2
Fore
SplineSet
127 155 m 1,0,-1
 69 155 l 1,1,-1
 140 660 l 1,2,-1
 234 660 l 1,3,-1
 127 155 l 1,0,-1
87 94 m 0,4,5
 107 94 107 94 120 81 c 128,-1,6
 133 68 133 68 133 49 c 0,7,8
 133 37 133 37 127.5 26 c 128,-1,9
 122 15 122 15 113 6 c 128,-1,10
 104 -3 104 -3 92 -8.5 c 128,-1,11
 80 -14 80 -14 68 -14 c 0,12,13
 48 -14 48 -14 35.5 -1.5 c 128,-1,14
 23 11 23 11 23 31 c 0,15,16
 23 43 23 43 28 54 c 128,-1,17
 33 65 33 65 42 74 c 128,-1,18
 51 83 51 83 62.5 88.5 c 128,-1,19
 74 94 74 94 87 94 c 0,4,5
EndSplineSet
EndChar

StartChar: quotedbl
Encoding: 34 34 22
Width: 368
Flags: W
LayerCount: 2
Fore
SplineSet
262 390 m 1,0,-1
 280 660 l 1,1,-1
 380 660 l 1,2,-1
 302 390 l 1,3,-1
 262 390 l 1,0,-1
102 390 m 1,4,-1
 120 660 l 1,5,-1
 220 660 l 1,6,-1
 142 390 l 1,7,-1
 102 390 l 1,4,-1
EndSplineSet
EndChar

StartChar: numbersign
Encoding: 35 35 23
Width: 669
Flags: W
LayerCount: 2
Fore
SplineSet
78 0 m 1,0,-1
 143 175 l 1,1,-1
 13 175 l 1,2,-1
 24 235 l 1,3,-1
 168 235 l 1,4,-1
 236 415 l 1,5,-1
 116 415 l 1,6,-1
 126 475 l 1,7,-1
 259 475 l 1,8,-1
 337 675 l 1,9,-1
 402 675 l 1,10,-1
 324 475 l 1,11,-1
 469 475 l 1,12,-1
 547 675 l 1,13,-1
 612 675 l 1,14,-1
 534 475 l 1,15,-1
 671 475 l 1,16,-1
 661 415 l 1,17,-1
 511 415 l 1,18,-1
 442 235 l 1,19,-1
 569 235 l 1,20,-1
 558 175 l 1,21,-1
 418 175 l 1,22,-1
 353 0 l 1,23,-1
 288 0 l 1,24,-1
 353 175 l 1,25,-1
 208 175 l 1,26,-1
 143 0 l 1,27,-1
 78 0 l 1,0,-1
232 235 m 1,28,-1
 378 235 l 1,29,-1
 446 415 l 1,30,-1
 301 415 l 1,31,-1
 232 235 l 1,28,-1
EndSplineSet
EndChar

StartChar: dollar
Encoding: 36 36 24
Width: 524
Flags: W
LayerCount: 2
Fore
SplineSet
173 -80 m 1,0,-1
 185 -15 l 1,1,2
 152 -12 152 -12 122 -3 c 128,-1,3
 92 6 92 6 68.5 20 c 128,-1,4
 45 34 45 34 31.5 52.5 c 128,-1,5
 18 71 18 71 18 93 c 0,6,7
 18 94 18 94 18.5 97.5 c 128,-1,8
 19 101 19 101 20.5 112.5 c 128,-1,9
 22 124 22 124 26 147 c 128,-1,10
 30 170 30 170 38 212 c 1,11,-1
 56 212 l 1,12,-1
 56 208 l 2,13,14
 56 119 56 119 89.5 75.5 c 128,-1,15
 123 32 123 32 192 24 c 1,16,-1
 239 294 l 1,17,-1
 177 336 l 2,18,19
 129 368 129 368 108 399 c 128,-1,20
 87 430 87 430 87 472 c 0,21,22
 87 517 87 517 104 553.5 c 128,-1,23
 121 590 121 590 151 616.5 c 128,-1,24
 181 643 181 643 221 659 c 128,-1,25
 261 675 261 675 307 678 c 1,26,-1
 317 735 l 1,27,-1
 357 735 l 1,28,-1
 347 676 l 1,29,30
 378 673 378 673 407 664.5 c 128,-1,31
 436 656 436 656 459 642.5 c 128,-1,32
 482 629 482 629 496 610.5 c 128,-1,33
 510 592 510 592 510 570 c 0,34,35
 510 568 510 568 509.5 565 c 128,-1,36
 509 562 509 562 507.5 550.5 c 128,-1,37
 506 539 506 539 501.5 516 c 128,-1,38
 497 493 497 493 490 451 c 1,39,-1
 472 451 l 1,40,-1
 472 455 l 2,41,42
 472 543 472 543 439 585.5 c 128,-1,43
 406 628 406 628 340 636 c 1,44,-1
 295 383 l 1,45,-1
 371 333 l 2,46,47
 420 301 420 301 444.5 270.5 c 128,-1,48
 469 240 469 240 469 198 c 0,49,50
 469 150 469 150 449 111 c 128,-1,51
 429 72 429 72 395.5 44 c 128,-1,52
 362 16 362 16 317.5 0.5 c 128,-1,53
 273 -15 273 -15 225 -17 c 1,54,-1
 213 -80 l 1,55,-1
 173 -80 l 1,0,-1
275 270 m 1,56,-1
 232 23 l 1,57,58
 257 24 257 24 282.5 32.5 c 128,-1,59
 308 41 308 41 328.5 56.5 c 128,-1,60
 349 72 349 72 362 94.5 c 128,-1,61
 375 117 375 117 375 146 c 0,62,63
 375 181 375 181 352.5 207.5 c 128,-1,64
 330 234 330 234 287 263 c 1,65,-1
 275 270 l 1,56,-1
300 638 m 1,66,67
 276 636 276 636 253 627 c 128,-1,68
 230 618 230 618 212 602.5 c 128,-1,69
 194 587 194 587 182.5 565.5 c 128,-1,70
 171 544 171 544 171 517 c 0,71,72
 171 482 171 482 194 458.5 c 128,-1,73
 217 435 217 435 259 407 c 1,74,-1
 300 638 l 1,66,67
EndSplineSet
EndChar

StartChar: ampersand
Encoding: 38 38 25
Width: 614
Flags: W
LayerCount: 2
Fore
SplineSet
15 112 m 0,0,1
 15 149 15 149 31 179 c 128,-1,2
 47 209 47 209 72.5 235 c 128,-1,3
 98 261 98 261 130 283 c 128,-1,4
 162 305 162 305 194 326 c 1,5,6
 174 346 174 346 158 372 c 0,7,8
 144 394 144 394 133.5 424 c 128,-1,9
 123 454 123 454 123 490 c 0,10,11
 123 532 123 532 139.5 566.5 c 128,-1,12
 156 601 156 601 184.5 626.5 c 128,-1,13
 213 652 213 652 251 666 c 128,-1,14
 289 680 289 680 333 680 c 0,15,16
 403 680 403 680 439.5 648.5 c 128,-1,17
 476 617 476 617 476 566 c 0,18,19
 476 526 476 526 459.5 493.5 c 128,-1,20
 443 461 443 461 416.5 433.5 c 128,-1,21
 390 406 390 406 357.5 383 c 128,-1,22
 325 360 325 360 292 340 c 1,23,-1
 455 120 l 1,24,25
 480 143 480 143 500.5 165 c 128,-1,26
 521 187 521 187 536 205 c 0,27,28
 554 226 554 226 567 245 c 1,29,-1
 584 230 l 1,30,31
 571 210 571 210 554 188 c 0,32,33
 540 169 540 169 519 145 c 128,-1,34
 498 121 498 121 472 97 c 1,35,-1
 544 0 l 1,36,-1
 434 0 l 1,37,-1
 401 43 l 1,38,39
 360 16 360 16 310 -2 c 128,-1,40
 260 -20 260 -20 200 -20 c 0,41,42
 106 -20 106 -20 60.5 17.5 c 128,-1,43
 15 55 15 55 15 112 c 0,0,1
225 15 m 0,44,45
 271 15 271 15 310.5 29 c 128,-1,46
 350 43 350 43 384 66 c 1,47,-1
 218 291 l 1,48,49
 174 259 174 259 142.5 214.5 c 128,-1,50
 111 170 111 170 111 112 c 0,51,52
 111 15 111 15 225 15 c 0,44,45
327 645 m 0,53,54
 301 645 301 645 281 631.5 c 128,-1,55
 261 618 261 618 247.5 596.5 c 128,-1,56
 234 575 234 575 226.5 549 c 128,-1,57
 219 523 219 523 219 498 c 256,58,59
 219 473 219 473 226 451.5 c 128,-1,60
 233 430 233 430 241.5 413.5 c 128,-1,61
 250 397 250 397 258 387 c 128,-1,62
 266 377 266 377 268 375 c 1,63,64
 291 392 291 392 313 411.5 c 128,-1,65
 335 431 335 431 352 454 c 128,-1,66
 369 477 369 477 379.5 504.5 c 128,-1,67
 390 532 390 532 390 564 c 0,68,69
 390 586 390 586 384.5 601.5 c 128,-1,70
 379 617 379 617 370 626.5 c 128,-1,71
 361 636 361 636 349.5 640.5 c 128,-1,72
 338 645 338 645 327 645 c 0,53,54
EndSplineSet
EndChar

StartChar: quotesingle
Encoding: 39 39 26
Width: 208
Flags: W
LayerCount: 2
Fore
SplineSet
102 390 m 1,0,-1
 120 660 l 1,1,-1
 220 660 l 1,2,-1
 142 390 l 1,3,-1
 102 390 l 1,0,-1
EndSplineSet
EndChar

StartChar: parenleft
Encoding: 40 40 27
Width: 310
Flags: W
LayerCount: 2
Fore
SplineSet
19 140 m 0,0,1
 19 230 19 230 43.5 307.5 c 128,-1,2
 68 385 68 385 112 452.5 c 128,-1,3
 156 520 156 520 218.5 578.5 c 128,-1,4
 281 637 281 637 357 690 c 1,5,-1
 365 675 l 1,6,7
 301 625 301 625 252.5 560.5 c 128,-1,8
 204 496 204 496 171 421.5 c 128,-1,9
 138 347 138 347 121.5 265.5 c 128,-1,10
 105 184 105 184 105 101 c 256,11,12
 105 18 105 18 128.5 -58 c 128,-1,13
 152 -134 152 -134 211 -195 c 1,14,-1
 198 -210 l 1,15,16
 155 -173 155 -173 122 -134 c 128,-1,17
 89 -95 89 -95 66 -52.5 c 128,-1,18
 43 -10 43 -10 31 37.5 c 128,-1,19
 19 85 19 85 19 140 c 0,0,1
EndSplineSet
EndChar

StartChar: parenright
Encoding: 41 41 28
Width: 310
Flags: W
LayerCount: 2
Fore
SplineSet
277 339 m 0,0,1
 277 249 277 249 252.5 171.5 c 128,-1,2
 228 94 228 94 183.5 26.5 c 128,-1,3
 139 -41 139 -41 77 -99.5 c 128,-1,4
 15 -158 15 -158 -61 -210 c 1,5,-1
 -68 -195 l 1,6,7
 -5 -145 -5 -145 43.5 -80 c 128,-1,8
 92 -15 92 -15 125 59 c 128,-1,9
 158 133 158 133 174.5 214 c 128,-1,10
 191 295 191 295 191 378 c 0,11,12
 191 462 191 462 167 537.5 c 128,-1,13
 143 613 143 613 85 675 c 1,14,-1
 97 690 l 1,15,16
 183 616 183 616 230 532 c 128,-1,17
 277 448 277 448 277 339 c 0,0,1
EndSplineSet
EndChar

StartChar: asterisk
Encoding: 42 42 29
Width: 425
Flags: W
LayerCount: 2
Fore
SplineSet
239 660 m 1,0,-1
 319 660 l 1,1,-1
 262 510 l 1,2,-1
 396 615 l 1,3,-1
 424 545 l 1,4,-1
 270 495 l 1,5,-1
 406 445 l 1,6,-1
 354 375 l 1,7,-1
 257 480 l 1,8,-1
 261 330 l 1,9,-1
 181 330 l 1,10,-1
 237 480 l 1,11,-1
 104 375 l 1,12,-1
 76 445 l 1,13,-1
 230 495 l 1,14,-1
 94 545 l 1,15,-1
 146 615 l 1,16,-1
 242 510 l 1,17,-1
 239 660 l 1,0,-1
EndSplineSet
EndChar

StartChar: plus
Encoding: 43 43 30
Width: 529
Flags: W
LayerCount: 2
Fore
SplineSet
238 300 m 1,0,-1
 38 300 l 1,1,-1
 49 360 l 1,2,-1
 249 360 l 1,3,-1
 284 560 l 1,4,-1
 344 560 l 1,5,-1
 309 360 l 1,6,-1
 509 360 l 1,7,-1
 498 300 l 1,8,-1
 298 300 l 1,9,-1
 263 100 l 1,10,-1
 203 100 l 1,11,-1
 238 300 l 1,0,-1
EndSplineSet
EndChar

StartChar: comma
Encoding: 44 44 31
Width: 241
Flags: W
LayerCount: 2
Fore
SplineSet
-10 -140 m 1,0,1
 32 -114 32 -114 59 -82 c 128,-1,2
 86 -50 86 -50 94 -5 c 1,3,-1
 62 -15 l 1,4,5
 42 -15 42 -15 29 -2 c 128,-1,6
 16 11 16 11 16 30 c 0,7,8
 16 57 16 57 37 78.5 c 128,-1,9
 58 100 58 100 87 100 c 0,10,11
 113 100 113 100 127.5 87 c 128,-1,12
 142 74 142 74 142 48 c 0,13,14
 142 15 142 15 130 -14.5 c 128,-1,15
 118 -44 118 -44 98 -70 c 128,-1,16
 78 -96 78 -96 52 -117.5 c 128,-1,17
 26 -139 26 -139 -3 -155 c 1,18,-1
 -10 -140 l 1,0,1
EndSplineSet
EndChar

StartChar: hyphen
Encoding: 45 45 32
Width: 389
Flags: W
LayerCount: 2
Fore
SplineSet
71 300 m 1,0,-1
 326 300 l 1,1,-1
 314 230 l 1,2,-1
 59 230 l 1,3,-1
 71 300 l 1,0,-1
EndSplineSet
EndChar

StartChar: period
Encoding: 46 46 33
Width: 225
Flags: W
LayerCount: 2
Fore
SplineSet
81 95 m 0,0,1
 102 95 102 95 114.5 82 c 128,-1,2
 127 69 127 69 127 50 c 0,3,4
 127 26 127 26 107.5 6 c 128,-1,5
 88 -14 88 -14 62 -14 c 0,6,7
 42 -14 42 -14 29.5 -1.5 c 128,-1,8
 17 11 17 11 17 31 c 0,9,10
 17 43 17 43 22 54.5 c 128,-1,11
 27 66 27 66 36 75 c 128,-1,12
 45 84 45 84 56.5 89.5 c 128,-1,13
 68 95 68 95 81 95 c 0,0,1
EndSplineSet
EndChar

StartChar: slash
Encoding: 47 47 34
Width: 445
Flags: W
LayerCount: 2
Fore
SplineSet
-23 0 m 1,0,-1
 414 660 l 1,1,-1
 487 660 l 1,2,-1
 50 0 l 1,3,-1
 -23 0 l 1,0,-1
EndSplineSet
EndChar

StartChar: zero
Encoding: 48 48 35
Width: 587
Flags: W
LayerCount: 2
Fore
SplineSet
357 640 m 0,0,1
 321 640 321 640 291 617.5 c 128,-1,2
 261 595 261 595 237.5 558 c 128,-1,3
 214 521 214 521 196.5 472 c 128,-1,4
 179 423 179 423 167.5 369.5 c 128,-1,5
 156 316 156 316 150 262 c 128,-1,6
 144 208 144 208 144 160 c 0,7,8
 144 89 144 89 168 54.5 c 128,-1,9
 192 20 192 20 248 20 c 0,10,11
 284 20 284 20 314 42 c 128,-1,12
 344 64 344 64 367.5 101.5 c 128,-1,13
 391 139 391 139 409 188 c 128,-1,14
 427 237 427 237 438.5 290 c 128,-1,15
 450 343 450 343 456 397 c 128,-1,16
 462 451 462 451 462 499 c 0,17,18
 462 571 462 571 438 605.5 c 128,-1,19
 414 640 414 640 357 640 c 0,0,1
364 680 m 0,20,21
 415 680 415 680 451.5 664.5 c 128,-1,22
 488 649 488 649 511 620.5 c 128,-1,23
 534 592 534 592 544.5 550.5 c 128,-1,24
 555 509 555 509 555 458 c 0,25,26
 555 413 555 413 548.5 360 c 128,-1,27
 542 307 542 307 527 254 c 128,-1,28
 512 201 512 201 488 151.5 c 128,-1,29
 464 102 464 102 429 64 c 128,-1,30
 394 26 394 26 347.5 3 c 128,-1,31
 301 -20 301 -20 241 -20 c 0,32,33
 139 -20 139 -20 94.5 39 c 128,-1,34
 50 98 50 98 50 201 c 0,35,36
 50 246 50 246 56.5 299 c 128,-1,37
 63 352 63 352 78 405 c 128,-1,38
 93 458 93 458 117 508 c 128,-1,39
 141 558 141 558 176 596 c 128,-1,40
 211 634 211 634 257.5 657 c 128,-1,41
 304 680 304 680 364 680 c 0,20,21
EndSplineSet
EndChar

StartChar: one
Encoding: 49 49 36
Width: 306
Flags: W
LayerCount: 2
Fore
SplineSet
170 0 m 1,0,-1
 80 0 l 1,1,-1
 178 560 l 1,2,-1
 70 497 l 1,3,-1
 56 520 l 1,4,-1
 236 660 l 1,5,-1
 286 660 l 1,6,-1
 170 0 l 1,0,-1
EndSplineSet
EndChar

StartChar: two
Encoding: 50 50 37
Width: 532
Flags: W
LayerCount: 2
Fore
SplineSet
297 40 m 2,0,1
 357 40 357 40 394 66 c 128,-1,2
 431 92 431 92 440 145 c 1,3,-1
 460 145 l 1,4,-1
 449 80 l 2,5,6
 446 65 446 65 440 50.5 c 128,-1,7
 434 36 434 36 423 25 c 128,-1,8
 412 14 412 14 394 7 c 128,-1,9
 376 0 376 0 350 0 c 2,10,-1
 -5 0 l 1,11,-1
 3 50 l 1,12,13
 65 106 65 106 119.5 150 c 128,-1,14
 174 194 174 194 219 231.5 c 128,-1,15
 264 269 264 269 299.5 302.5 c 128,-1,16
 335 336 335 336 359.5 370.5 c 128,-1,17
 384 405 384 405 397 443 c 128,-1,18
 410 481 410 481 410 528 c 0,19,20
 410 585 410 585 379 612.5 c 128,-1,21
 348 640 348 640 302 640 c 0,22,23
 242 640 242 640 189.5 596.5 c 128,-1,24
 137 553 137 553 107 470 c 1,25,-1
 87 470 l 1,26,27
 94 508 94 508 103 542.5 c 128,-1,28
 112 577 112 577 134 600 c 0,29,30
 150 616 150 616 173 631 c 128,-1,31
 196 646 196 646 223 656.5 c 128,-1,32
 250 667 250 667 279.5 673.5 c 128,-1,33
 309 680 309 680 339 680 c 0,34,35
 366 680 366 680 396 674.5 c 128,-1,36
 426 669 426 669 451.5 653 c 128,-1,37
 477 637 477 637 493.5 609 c 128,-1,38
 510 581 510 581 510 536 c 0,39,40
 510 484 510 484 488.5 436 c 128,-1,41
 467 388 467 388 431.5 343.5 c 128,-1,42
 396 299 396 299 350 257.5 c 128,-1,43
 304 216 304 216 255.5 178.5 c 128,-1,44
 207 141 207 141 159 106 c 128,-1,45
 111 71 111 71 72 40 c 1,46,-1
 297 40 l 2,0,1
EndSplineSet
EndChar

StartChar: three
Encoding: 51 51 38
Width: 532
Flags: W
LayerCount: 2
Fore
SplineSet
208 370 m 1,0,1
 236 378 236 378 263.5 379 c 128,-1,2
 291 380 291 380 300 380 c 0,3,4
 320 380 320 380 350.5 374 c 128,-1,5
 381 368 381 368 409.5 351.5 c 128,-1,6
 438 335 438 335 458.5 304.5 c 128,-1,7
 479 274 479 274 479 226 c 0,8,9
 479 174 479 174 458.5 129 c 128,-1,10
 438 84 438 84 402.5 51 c 128,-1,11
 367 18 367 18 318.5 -1 c 128,-1,12
 270 -20 270 -20 214 -20 c 0,13,14
 139 -20 139 -20 89 9 c 128,-1,15
 39 38 39 38 7 87 c 1,16,-1
 26 105 l 1,17,18
 56 63 56 63 97.5 41.5 c 128,-1,19
 139 20 139 20 196 20 c 0,20,21
 236 20 236 20 269.5 36.5 c 128,-1,22
 303 53 303 53 327 81 c 128,-1,23
 351 109 351 109 364.5 145.5 c 128,-1,24
 378 182 378 182 378 222 c 0,25,26
 378 252 378 252 368.5 274 c 128,-1,27
 359 296 359 296 344 311 c 128,-1,28
 329 326 329 326 310 333 c 128,-1,29
 291 340 291 340 272 340 c 0,30,31
 249 340 249 340 234 339 c 128,-1,32
 219 338 219 338 206 336 c 128,-1,33
 193 334 193 334 180.5 331.5 c 128,-1,34
 168 329 168 329 150 325 c 1,35,-1
 131 367 l 1,36,-1
 447 620 l 1,37,-1
 262 620 l 2,38,39
 202 620 202 620 165 594 c 128,-1,40
 128 568 128 568 118 515 c 1,41,-1
 98 515 l 1,42,-1
 110 580 l 2,43,44
 113 595 113 595 119 609.5 c 128,-1,45
 125 624 125 624 136 635 c 128,-1,46
 147 646 147 646 165 653 c 128,-1,47
 183 660 183 660 209 660 c 2,48,-1
 527 660 l 1,49,-1
 520 620 l 1,50,-1
 208 370 l 1,0,1
EndSplineSet
EndChar

StartChar: four
Encoding: 52 52 39
Width: 549
Flags: W
LayerCount: 2
Fore
SplineSet
418 210 m 1,0,-1
 508 210 l 1,1,-1
 500 170 l 1,2,-1
 410 170 l 1,3,-1
 381 0 l 1,4,-1
 291 0 l 1,5,-1
 320 170 l 1,6,-1
 0 170 l 1,7,-1
 8 210 l 1,8,-1
 417 660 l 1,9,-1
 497 660 l 1,10,-1
 418 210 l 1,0,-1
328 210 m 1,11,-1
 390 564 l 1,12,-1
 68 210 l 1,13,-1
 328 210 l 1,11,-1
EndSplineSet
EndChar

StartChar: five
Encoding: 53 53 40
Width: 533
Flags: W
LayerCount: 2
Fore
SplineSet
272 380 m 0,0,1
 306 380 306 380 343 373.5 c 128,-1,2
 380 367 380 367 410.5 350 c 128,-1,3
 441 333 441 333 461 303 c 128,-1,4
 481 273 481 273 481 226 c 0,5,6
 481 170 481 170 458.5 125 c 128,-1,7
 436 80 436 80 398.5 47.5 c 128,-1,8
 361 15 361 15 311 -2.5 c 128,-1,9
 261 -20 261 -20 206 -20 c 0,10,11
 131 -20 131 -20 86.5 8 c 128,-1,12
 42 36 42 36 9 85 c 1,13,-1
 31 102 l 1,14,15
 62 60 62 60 102.5 40 c 128,-1,16
 143 20 143 20 198 20 c 0,17,18
 241 20 241 20 275 36.5 c 128,-1,19
 309 53 309 53 332.5 81 c 128,-1,20
 356 109 356 109 368.5 146.5 c 128,-1,21
 381 184 381 184 381 225 c 0,22,23
 381 284 381 284 345 312 c 128,-1,24
 309 340 309 340 244 340 c 0,25,26
 221 340 221 340 198.5 338.5 c 128,-1,27
 176 337 176 337 158 335 c 2,28,-1
 118 330 l 1,29,-1
 85 370 l 1,30,-1
 146 660 l 1,31,-1
 521 660 l 1,32,-1
 514 620 l 1,33,-1
 221 620 l 1,34,-1
 169 375 l 1,35,36
 184 376 184 376 202 377 c 0,37,38
 216 378 216 378 234.5 379 c 128,-1,39
 253 380 253 380 272 380 c 0,0,1
EndSplineSet
EndChar

StartChar: six
Encoding: 54 54 41
Width: 538
Flags: W
LayerCount: 2
Fore
SplineSet
159 340 m 1,0,1
 151 293 151 293 147 254 c 128,-1,2
 143 215 143 215 143 183 c 0,3,4
 143 96 143 96 168.5 58 c 128,-1,5
 194 20 194 20 238 20 c 0,6,7
 278 20 278 20 308 46 c 128,-1,8
 338 72 338 72 357.5 110 c 128,-1,9
 377 148 377 148 387 191 c 128,-1,10
 397 234 397 234 397 269 c 0,11,12
 397 327 397 327 371 358.5 c 128,-1,13
 345 390 345 390 288 390 c 0,14,15
 250 390 250 390 220 376.5 c 128,-1,16
 190 363 190 363 159 340 c 1,0,1
49 193 m 0,17,18
 49 241 49 241 55.5 295.5 c 128,-1,19
 62 350 62 350 77.5 404 c 128,-1,20
 93 458 93 458 118 508 c 128,-1,21
 143 558 143 558 179 596 c 128,-1,22
 215 634 215 634 263 657 c 128,-1,23
 311 680 311 680 374 680 c 0,24,25
 423 680 423 680 459.5 670.5 c 128,-1,26
 496 661 496 661 524 650 c 1,27,-1
 516 630 l 1,28,29
 493 634 493 634 459 637 c 128,-1,30
 425 640 425 640 387 640 c 0,31,32
 342 640 342 640 306 622 c 128,-1,33
 270 604 270 604 242.5 570.5 c 128,-1,34
 215 537 215 537 196 490 c 128,-1,35
 177 443 177 443 167 385 c 1,36,37
 197 404 197 404 234.5 417 c 128,-1,38
 272 430 272 430 325 430 c 0,39,40
 412 430 412 430 451.5 386.5 c 128,-1,41
 491 343 491 343 491 270 c 0,42,43
 491 217 491 217 473.5 165 c 128,-1,44
 456 113 456 113 423 72 c 128,-1,45
 390 31 390 31 341.5 5.5 c 128,-1,46
 293 -20 293 -20 231 -20 c 0,47,48
 137 -20 137 -20 93 33.5 c 128,-1,49
 49 87 49 87 49 193 c 0,17,18
EndSplineSet
EndChar

StartChar: seven
Encoding: 55 55 42
Width: 477
Flags: W
LayerCount: 2
Fore
SplineSet
162 0 m 1,0,-1
 72 0 l 1,1,-1
 431 620 l 1,2,-1
 231 620 l 2,3,4
 171 620 171 620 134 594 c 128,-1,5
 97 568 97 568 87 515 c 1,6,-1
 67 515 l 1,7,-1
 79 580 l 2,8,9
 82 595 82 595 88 609.5 c 128,-1,10
 94 624 94 624 105 635 c 128,-1,11
 116 646 116 646 134 653 c 128,-1,12
 152 660 152 660 178 660 c 2,13,-1
 528 660 l 1,14,-1
 521 620 l 1,15,-1
 162 0 l 1,0,-1
EndSplineSet
EndChar

StartChar: eight
Encoding: 56 56 43
Width: 556
Flags: W
LayerCount: 2
Fore
SplineSet
528 554 m 256,0,1
 528 519 528 519 516 490 c 128,-1,2
 504 461 504 461 482.5 436.5 c 128,-1,3
 461 412 461 412 432.5 391.5 c 128,-1,4
 404 371 404 371 371 355 c 1,5,6
 393 340 393 340 414.5 324.5 c 128,-1,7
 436 309 436 309 452.5 289.5 c 128,-1,8
 469 270 469 270 479.5 246 c 128,-1,9
 490 222 490 222 490 192 c 0,10,11
 490 140 490 140 467.5 100.5 c 128,-1,12
 445 61 445 61 408 34 c 128,-1,13
 371 7 371 7 323.5 -6.5 c 128,-1,14
 276 -20 276 -20 225 -20 c 0,15,16
 183 -20 183 -20 146 -12 c 128,-1,17
 109 -4 109 -4 81.5 12.5 c 128,-1,18
 54 29 54 29 38 55.5 c 128,-1,19
 22 82 22 82 22 118 c 0,20,21
 22 158 22 158 37.5 190 c 128,-1,22
 53 222 53 222 79.5 248.5 c 128,-1,23
 106 275 106 275 141.5 296 c 128,-1,24
 177 317 177 317 218 335 c 1,25,26
 197 348 197 348 177.5 363 c 128,-1,27
 158 378 158 378 143.5 395.5 c 128,-1,28
 129 413 129 413 120 434 c 128,-1,29
 111 455 111 455 111 482 c 0,30,31
 111 531 111 531 130 568 c 128,-1,32
 149 605 149 605 181.5 630 c 128,-1,33
 214 655 214 655 257 667.5 c 128,-1,34
 300 680 300 680 348 680 c 0,35,36
 385 680 385 680 418 673.5 c 128,-1,37
 451 667 451 667 475.5 652 c 128,-1,38
 500 637 500 637 514 613 c 128,-1,39
 528 589 528 589 528 554 c 256,0,1
232 20 m 0,40,41
 262 20 262 20 290 30 c 128,-1,42
 318 40 318 40 340.5 59 c 128,-1,43
 363 78 363 78 376.5 104.5 c 128,-1,44
 390 131 390 131 390 164 c 0,45,46
 390 190 390 190 379.5 211.5 c 128,-1,47
 369 233 369 233 351 251 c 128,-1,48
 333 269 333 269 309 284.5 c 128,-1,49
 285 300 285 300 259 315 c 1,50,51
 230 302 230 302 204.5 283 c 128,-1,52
 179 264 179 264 159.5 240 c 128,-1,53
 140 216 140 216 128.5 186 c 128,-1,54
 117 156 117 156 117 121 c 0,55,56
 117 95 117 95 126 76 c 128,-1,57
 135 57 135 57 151 44.5 c 128,-1,58
 167 32 167 32 188 26 c 128,-1,59
 209 20 209 20 232 20 c 0,40,41
341 640 m 0,60,61
 316 640 316 640 292.5 631 c 128,-1,62
 269 622 269 622 251 605.5 c 128,-1,63
 233 589 233 589 222 565.5 c 128,-1,64
 211 542 211 542 211 514 c 0,65,66
 211 493 211 493 221 473.5 c 128,-1,67
 231 454 231 454 247.5 437.5 c 128,-1,68
 264 421 264 421 285.5 406.5 c 128,-1,69
 307 392 307 392 331 380 c 1,70,71
 375 409 375 409 404 451.5 c 128,-1,72
 433 494 433 494 433 552 c 0,73,74
 433 577 433 577 425 594 c 128,-1,75
 417 611 417 611 403.5 621.5 c 128,-1,76
 390 632 390 632 373.5 636 c 128,-1,77
 357 640 357 640 341 640 c 0,60,61
EndSplineSet
EndChar

StartChar: nine
Encoding: 57 57 44
Width: 539
Flags: W
LayerCount: 2
Fore
SplineSet
398 320 m 1,0,1
 406 367 406 367 410 406 c 128,-1,2
 414 445 414 445 414 477 c 0,3,4
 414 564 414 564 388.5 602 c 128,-1,5
 363 640 363 640 319 640 c 0,6,7
 279 640 279 640 249 614 c 128,-1,8
 219 588 219 588 199.5 549.5 c 128,-1,9
 180 511 180 511 170 467.5 c 128,-1,10
 160 424 160 424 160 390 c 0,11,12
 160 333 160 333 186 301.5 c 128,-1,13
 212 270 212 270 269 270 c 0,14,15
 307 270 307 270 337.5 283.5 c 128,-1,16
 368 297 368 297 398 320 c 1,0,1
508 465 m 0,17,18
 508 417 508 417 501 362.5 c 128,-1,19
 494 308 494 308 479 254 c 128,-1,20
 464 200 464 200 439 150.5 c 128,-1,21
 414 101 414 101 378 63 c 128,-1,22
 342 25 342 25 293.5 2.5 c 128,-1,23
 245 -20 245 -20 183 -20 c 0,24,25
 134 -20 134 -20 98 -10.5 c 128,-1,26
 62 -1 62 -1 33 10 c 1,27,-1
 42 30 l 1,28,29
 64 26 64 26 98 23 c 128,-1,30
 132 20 132 20 170 20 c 0,31,32
 215 20 215 20 251 38 c 128,-1,33
 287 56 287 56 314.5 89.5 c 128,-1,34
 342 123 342 123 361 170 c 128,-1,35
 380 217 380 217 390 275 c 1,36,37
 361 256 361 256 323 243 c 128,-1,38
 285 230 285 230 232 230 c 0,39,40
 145 230 145 230 105.5 273 c 128,-1,41
 66 316 66 316 66 390 c 0,42,43
 66 443 66 443 83.5 495 c 128,-1,44
 101 547 101 547 134 588 c 128,-1,45
 167 629 167 629 215.5 654.5 c 128,-1,46
 264 680 264 680 326 680 c 0,47,48
 420 680 420 680 464 626 c 128,-1,49
 508 572 508 572 508 465 c 0,17,18
EndSplineSet
EndChar

StartChar: colon
Encoding: 58 58 45
Width: 243
Flags: W
LayerCount: 2
Fore
SplineSet
154 461 m 0,0,1
 175 461 175 461 187 448.5 c 128,-1,2
 199 436 199 436 199 417 c 0,3,4
 199 392 199 392 180.5 372.5 c 128,-1,5
 162 353 162 353 135 353 c 0,6,7
 115 353 115 353 102 365.5 c 128,-1,8
 89 378 89 378 89 398 c 0,9,10
 89 410 89 410 94.5 421 c 128,-1,11
 100 432 100 432 109 441 c 128,-1,12
 118 450 118 450 129.5 455.5 c 128,-1,13
 141 461 141 461 154 461 c 0,0,1
88 95 m 0,14,15
 109 95 109 95 122 82 c 128,-1,16
 135 69 135 69 135 50 c 0,17,18
 135 38 135 38 129.5 26.5 c 128,-1,19
 124 15 124 15 115 6 c 128,-1,20
 106 -3 106 -3 94 -8.5 c 128,-1,21
 82 -14 82 -14 69 -14 c 0,22,23
 49 -14 49 -14 36.5 -1.5 c 128,-1,24
 24 11 24 11 24 31 c 0,25,26
 24 43 24 43 29 54.5 c 128,-1,27
 34 66 34 66 43 75 c 128,-1,28
 52 84 52 84 63.5 89.5 c 128,-1,29
 75 95 75 95 88 95 c 0,14,15
EndSplineSet
EndChar

StartChar: semicolon
Encoding: 59 59 46
Width: 259
Flags: W
LayerCount: 2
Fore
SplineSet
164 461 m 0,0,1
 184 461 184 461 197 448 c 128,-1,2
 210 435 210 435 210 416 c 0,3,4
 210 404 210 404 204.5 393 c 128,-1,5
 199 382 199 382 190 373.5 c 128,-1,6
 181 365 181 365 169 359.5 c 128,-1,7
 157 354 157 354 145 354 c 0,8,9
 125 354 125 354 112 366 c 128,-1,10
 99 378 99 378 99 397 c 0,11,12
 99 422 99 422 118 441.5 c 128,-1,13
 137 461 137 461 164 461 c 0,0,1
-3 -140 m 1,14,15
 41 -110 41 -110 67.5 -79.5 c 128,-1,16
 94 -49 94 -49 103 0 c 1,17,18
 98 -4 98 -4 89 -9.5 c 128,-1,19
 80 -15 80 -15 65 -15 c 0,20,21
 45 -15 45 -15 34.5 -2.5 c 128,-1,22
 24 10 24 10 24 28 c 0,23,24
 24 57 24 57 46.5 78.5 c 128,-1,25
 69 100 69 100 100 100 c 0,26,27
 122 100 122 100 135 85 c 128,-1,28
 148 70 148 70 148 43 c 0,29,30
 148 10 148 10 136 -18 c 128,-1,31
 124 -46 124 -46 104.5 -70.5 c 128,-1,32
 85 -95 85 -95 59 -115.5 c 128,-1,33
 33 -136 33 -136 5 -154 c 1,34,-1
 -3 -140 l 1,14,15
EndSplineSet
EndChar

StartChar: less
Encoding: 60 60 47
Width: 620
Flags: W
LayerCount: 2
Fore
SplineSet
144 335 m 1,0,-1
 529 155 l 1,1,-1
 518 95 l 1,2,-1
 38 320 l 1,3,-1
 43 350 l 1,4,-1
 603 575 l 1,5,-1
 592 515 l 1,6,-1
 144 335 l 1,0,-1
EndSplineSet
EndChar

StartChar: equal
Encoding: 61 61 48
Width: 662
Flags: W
LayerCount: 2
Fore
SplineSet
98 450 m 1,0,-1
 623 450 l 1,1,-1
 612 390 l 1,2,-1
 87 390 l 1,3,-1
 98 450 l 1,0,-1
66 270 m 1,4,-1
 591 270 l 1,5,-1
 581 210 l 1,6,-1
 56 210 l 1,7,-1
 66 270 l 1,4,-1
EndSplineSet
EndChar

StartChar: greater
Encoding: 62 62 49
Width: 620
Flags: W
LayerCount: 2
Fore
SplineSet
111 515 m 1,0,-1
 122 575 l 1,1,-1
 602 350 l 1,2,-1
 597 320 l 1,3,-1
 37 95 l 1,4,-1
 48 155 l 1,5,-1
 497 335 l 1,6,-1
 111 515 l 1,0,-1
EndSplineSet
EndChar

StartChar: question
Encoding: 63 63 50
Width: 481
Flags: W
LayerCount: 2
Fore
SplineSet
195 96 m 0,0,1
 216 96 216 96 229 83 c 128,-1,2
 242 70 242 70 242 50 c 0,3,4
 242 38 242 38 236.5 26.5 c 128,-1,5
 231 15 231 15 222 6.5 c 128,-1,6
 213 -2 213 -2 201 -7.5 c 128,-1,7
 189 -13 189 -13 176 -13 c 0,8,9
 155 -13 155 -13 143 -0.5 c 128,-1,10
 131 12 131 12 131 31 c 0,11,12
 131 55 131 55 149.5 75.5 c 128,-1,13
 168 96 168 96 195 96 c 0,0,1
186 156 m 1,14,15
 195 196 195 196 213.5 228 c 128,-1,16
 232 260 232 260 254.5 288 c 128,-1,17
 277 316 277 316 301 342 c 128,-1,18
 325 368 325 368 344.5 396 c 128,-1,19
 364 424 364 424 376.5 456 c 128,-1,20
 389 488 389 488 389 528 c 0,21,22
 389 585 389 585 358 612.5 c 128,-1,23
 327 640 327 640 281 640 c 0,24,25
 221 640 221 640 168 596.5 c 128,-1,26
 115 553 115 553 85 470 c 1,27,-1
 65 470 l 1,28,29
 72 508 72 508 81 542.5 c 128,-1,30
 90 577 90 577 113 600 c 0,31,32
 129 616 129 616 152 631 c 128,-1,33
 175 646 175 646 202 656.5 c 128,-1,34
 229 667 229 667 258.5 673.5 c 128,-1,35
 288 680 288 680 318 680 c 0,36,37
 345 680 345 680 375 674.5 c 128,-1,38
 405 669 405 669 430.5 653 c 128,-1,39
 456 637 456 637 472.5 609 c 128,-1,40
 489 581 489 581 489 536 c 0,41,42
 489 485 489 485 473 448 c 128,-1,43
 457 411 457 411 432 382 c 128,-1,44
 407 353 407 353 377 329.5 c 128,-1,45
 347 306 347 306 317.5 281 c 128,-1,46
 288 256 288 256 263.5 226 c 128,-1,47
 239 196 239 196 226 156 c 1,48,-1
 186 156 l 1,14,15
EndSplineSet
EndChar

StartChar: at
Encoding: 64 64 51
Width: 855
Flags: W
LayerCount: 2
Fore
SplineSet
427 490 m 0,0,1
 479 490 479 490 505 472 c 128,-1,2
 531 454 531 454 542 435 c 1,3,-1
 547 435 l 1,4,-1
 590 480 l 1,5,-1
 640 480 l 1,6,-1
 574 105 l 2,7,8
 573 100 573 100 573 90 c 0,9,10
 573 72 573 72 582 58.5 c 128,-1,11
 591 45 591 45 613 45 c 0,12,13
 643 45 643 45 668 61.5 c 128,-1,14
 693 78 693 78 712 105 c 128,-1,15
 731 132 731 132 745 166 c 128,-1,16
 759 200 759 200 768 235 c 128,-1,17
 777 270 777 270 781.5 303.5 c 128,-1,18
 786 337 786 337 786 362 c 0,19,20
 786 430 786 430 765.5 482 c 128,-1,21
 745 534 745 534 707 569 c 128,-1,22
 669 604 669 604 615 622 c 128,-1,23
 561 640 561 640 493 640 c 0,24,25
 390 640 390 640 310.5 598 c 128,-1,26
 231 556 231 556 176.5 486.5 c 128,-1,27
 122 417 122 417 93.5 328 c 128,-1,28
 65 239 65 239 65 145 c 0,29,30
 65 74 65 74 85.5 20.5 c 128,-1,31
 106 -33 106 -33 143.5 -68.5 c 128,-1,32
 181 -104 181 -104 235 -122 c 128,-1,33
 289 -140 289 -140 356 -140 c 0,34,35
 454 -140 454 -140 533.5 -118.5 c 128,-1,36
 613 -97 613 -97 681 -55 c 1,37,-1
 696 -85 l 1,38,39
 628 -127 628 -127 543 -153.5 c 128,-1,40
 458 -180 458 -180 349 -180 c 0,41,42
 275 -180 275 -180 215 -159.5 c 128,-1,43
 155 -139 155 -139 113 -98.5 c 128,-1,44
 71 -58 71 -58 48 2 c 128,-1,45
 25 62 25 62 25 140 c 0,46,47
 25 206 25 206 39 271.5 c 128,-1,48
 53 337 53 337 80 397 c 128,-1,49
 107 457 107 457 147.5 509 c 128,-1,50
 188 561 188 561 240.5 599 c 128,-1,51
 293 637 293 637 358 658.5 c 128,-1,52
 423 680 423 680 500 680 c 0,53,54
 575 680 575 680 635.5 659 c 128,-1,55
 696 638 696 638 738.5 598.5 c 128,-1,56
 781 559 781 559 804 500.5 c 128,-1,57
 827 442 827 442 827 367 c 0,58,59
 827 331 827 331 821.5 290 c 128,-1,60
 816 249 816 249 804 208.5 c 128,-1,61
 792 168 792 168 772.5 131.5 c 128,-1,62
 753 95 753 95 725 66.5 c 128,-1,63
 697 38 697 38 660 21.5 c 128,-1,64
 623 5 623 5 576 5 c 0,65,66
 534 5 534 5 512.5 18.5 c 128,-1,67
 491 32 491 32 480 55 c 1,68,-1
 475 55 l 1,69,70
 457 36 457 36 424.5 18 c 128,-1,71
 392 0 392 0 336 0 c 0,72,73
 297 0 297 0 268.5 13.5 c 128,-1,74
 240 27 240 27 222 50 c 128,-1,75
 204 73 204 73 195 105 c 128,-1,76
 186 137 186 137 186 173 c 0,77,78
 186 221 186 221 201.5 276.5 c 128,-1,79
 217 332 217 332 247 379.5 c 128,-1,80
 277 427 277 427 322 458.5 c 128,-1,81
 367 490 367 490 427 490 c 0,0,1
450 450 m 0,82,83
 405 450 405 450 372.5 420 c 128,-1,84
 340 390 340 390 319.5 346.5 c 128,-1,85
 299 303 299 303 289.5 253.5 c 128,-1,86
 280 204 280 204 280 166 c 0,87,88
 280 111 280 111 300.5 75.5 c 128,-1,89
 321 40 321 40 368 40 c 0,90,91
 390 40 390 40 407.5 46 c 128,-1,92
 425 52 425 52 439 61.5 c 128,-1,93
 453 71 453 71 464 82.5 c 128,-1,94
 475 94 475 94 484 105 c 1,95,-1
 534 390 l 1,96,97
 529 401 529 401 522 412 c 128,-1,98
 515 423 515 423 505.5 431.5 c 128,-1,99
 496 440 496 440 482.5 445 c 128,-1,100
 469 450 469 450 450 450 c 0,82,83
EndSplineSet
EndChar

StartChar: A
Encoding: 65 65 52
Width: 634
Flags: W
LayerCount: 2
Fore
SplineSet
617 0 m 1,0,1
 599 -5 599 -5 576 -5 c 0,2,3
 559 -5 559 -5 537.5 -1 c 128,-1,4
 516 3 516 3 495 16.5 c 128,-1,5
 474 30 474 30 456 56 c 128,-1,6
 438 82 438 82 429 125 c 2,7,-1
 415 190 l 1,8,-1
 135 190 l 1,9,-1
 22 0 l 1,10,-1
 -23 0 l 1,11,-1
 373 660 l 1,12,-1
 403 660 l 1,13,-1
 529 125 l 2,14,15
 535 97 535 97 542.5 77.5 c 128,-1,16
 550 58 550 58 560.5 46 c 128,-1,17
 571 34 571 34 585.5 28 c 128,-1,18
 600 22 600 22 620 20 c 1,19,-1
 617 0 l 1,0,1
157 230 m 1,20,-1
 402 230 l 1,21,-1
 333 520 l 1,22,-1
 157 230 l 1,20,-1
EndSplineSet
EndChar

StartChar: B
Encoding: 66 66 53
Width: 624
Flags: W
LayerCount: 2
Fore
SplineSet
204 315 m 1,0,-1
 157 49 l 1,1,2
 179 42 179 42 203 38.5 c 128,-1,3
 227 35 227 35 250 35 c 0,4,5
 288 35 288 35 326.5 44.5 c 128,-1,6
 365 54 365 54 396.5 74.5 c 128,-1,7
 428 95 428 95 447.5 127 c 128,-1,8
 467 159 467 159 467 204 c 0,9,10
 467 258 467 258 425 286.5 c 128,-1,11
 383 315 383 315 299 315 c 2,12,-1
 204 315 l 1,0,-1
306 355 m 2,13,14
 338 355 338 355 371 365.5 c 128,-1,15
 404 376 404 376 431 396.5 c 128,-1,16
 458 417 458 417 475 446 c 128,-1,17
 492 475 492 475 492 512 c 0,18,19
 492 542 492 542 477.5 563 c 128,-1,20
 463 584 463 584 440.5 598 c 128,-1,21
 418 612 418 612 390 618.5 c 128,-1,22
 362 625 362 625 334 625 c 0,23,24
 315 625 315 625 294 622 c 128,-1,25
 273 619 273 619 257 615 c 1,26,-1
 211 355 l 1,27,-1
 306 355 l 2,13,14
345 660 m 2,28,29
 381 660 381 660 423.5 655.5 c 128,-1,30
 466 651 466 651 502.5 636 c 128,-1,31
 539 621 539 621 563 593 c 128,-1,32
 587 565 587 565 587 518 c 0,33,34
 587 484 587 484 574.5 456 c 128,-1,35
 562 428 562 428 540 406 c 128,-1,36
 518 384 518 384 489.5 367.5 c 128,-1,37
 461 351 461 351 428 340 c 1,38,39
 507 327 507 327 538 295 c 128,-1,40
 569 263 569 263 569 217 c 0,41,42
 569 157 569 157 542.5 115.5 c 128,-1,43
 516 74 516 74 472.5 48.5 c 128,-1,44
 429 23 429 23 373 11.5 c 128,-1,45
 317 0 317 0 259 0 c 2,46,-1
 59 0 l 1,47,-1
 154 540 l 2,48,49
 156 552 156 552 157 562.5 c 128,-1,50
 158 573 158 573 158 583 c 0,51,52
 158 609 158 609 146 624.5 c 128,-1,53
 134 640 134 640 101 640 c 2,54,-1
 81 640 l 1,55,-1
 85 660 l 1,56,-1
 345 660 l 2,28,29
EndSplineSet
EndChar

StartChar: C
Encoding: 67 67 54
Width: 666
Flags: W
LayerCount: 2
Fore
SplineSet
620 450 m 1,0,1
 618 548 618 548 574.5 594 c 128,-1,2
 531 640 531 640 448 640 c 0,3,4
 371 640 371 640 314.5 604 c 128,-1,5
 258 568 258 568 220 510.5 c 128,-1,6
 182 453 182 453 163.5 382 c 128,-1,7
 145 311 145 311 145 241 c 0,8,9
 145 196 145 196 155.5 156 c 128,-1,10
 166 116 166 116 189.5 86 c 128,-1,11
 213 56 213 56 249.5 38 c 128,-1,12
 286 20 286 20 339 20 c 0,13,14
 414 20 414 20 474.5 56 c 128,-1,15
 535 92 535 92 589 160 c 1,16,-1
 606 145 l 1,17,18
 573 98 573 98 538.5 66.5 c 128,-1,19
 504 35 504 35 466.5 15.5 c 128,-1,20
 429 -4 429 -4 388 -12 c 128,-1,21
 347 -20 347 -20 302 -20 c 0,22,23
 240 -20 240 -20 192.5 0 c 128,-1,24
 145 20 145 20 112 55 c 128,-1,25
 79 90 79 90 62 139 c 128,-1,26
 45 188 45 188 45 245 c 0,27,28
 45 317 45 317 73.5 393.5 c 128,-1,29
 102 470 102 470 152.5 534 c 128,-1,30
 203 598 203 598 272.5 639 c 128,-1,31
 342 680 342 680 425 680 c 0,32,33
 454 680 454 680 493 674.5 c 128,-1,34
 532 669 532 669 567.5 655 c 128,-1,35
 603 641 603 641 627.5 615.5 c 128,-1,36
 652 590 652 590 652 550 c 0,37,38
 652 525 652 525 648 500.5 c 128,-1,39
 644 476 644 476 640 450 c 1,40,-1
 620 450 l 1,0,1
EndSplineSet
EndChar

StartChar: D
Encoding: 68 68 55
Width: 716
Flags: W
LayerCount: 2
Fore
SplineSet
160 48 m 1,0,1
 189 41 189 41 214.5 38 c 128,-1,2
 240 35 240 35 260 35 c 0,3,4
 330 35 330 35 389 66 c 128,-1,5
 448 97 448 97 490 148 c 128,-1,6
 532 199 532 199 555.5 264.5 c 128,-1,7
 579 330 579 330 579 398 c 0,8,9
 579 450 579 450 564 492 c 128,-1,10
 549 534 549 534 520.5 563.5 c 128,-1,11
 492 593 492 593 452 609 c 128,-1,12
 412 625 412 625 362 625 c 0,13,14
 340 625 340 625 314 621 c 128,-1,15
 288 617 288 617 259 609 c 1,16,-1
 160 48 l 1,0,1
347 660 m 2,17,18
 434 660 434 660 498 642.5 c 128,-1,19
 562 625 562 625 604.5 592 c 128,-1,20
 647 559 647 559 668 511.5 c 128,-1,21
 689 464 689 464 689 405 c 0,22,23
 689 318 689 318 656.5 243.5 c 128,-1,24
 624 169 624 169 566.5 115 c 128,-1,25
 509 61 509 61 429.5 30.5 c 128,-1,26
 350 0 350 0 257 0 c 2,27,-1
 59 0 l 1,28,-1
 154 540 l 2,29,30
 156 552 156 552 157 562.5 c 128,-1,31
 158 573 158 573 158 583 c 0,32,33
 158 609 158 609 146 624.5 c 128,-1,34
 134 640 134 640 101 640 c 2,35,-1
 81 640 l 1,36,-1
 85 660 l 1,37,-1
 347 660 l 2,17,18
EndSplineSet
EndChar

StartChar: E
Encoding: 69 69 56
Width: 593
Flags: W
LayerCount: 2
Fore
SplineSet
512 660 m 2,0,1
 555 660 555 660 570 643 c 128,-1,2
 585 626 585 626 585 602 c 0,3,4
 585 599 585 599 584.5 595 c 128,-1,5
 584 591 584 591 582.5 581.5 c 128,-1,6
 581 572 581 572 578 554 c 128,-1,7
 575 536 575 536 570 505 c 1,8,-1
 550 505 l 1,9,10
 553 521 553 521 553 535 c 0,11,12
 553 580 553 580 525 600 c 128,-1,13
 497 620 497 620 445 620 c 2,14,-1
 259 620 l 1,15,-1
 213 360 l 1,16,-1
 483 360 l 1,17,-1
 476 320 l 1,18,-1
 206 320 l 1,19,-1
 157 40 l 1,20,-1
 332 40 l 2,21,22
 400 40 400 40 444 65 c 128,-1,23
 488 90 488 90 521 150 c 1,24,-1
 540 145 l 1,25,-1
 488 50 l 2,26,27
 476 27 476 27 455.5 13.5 c 128,-1,28
 435 0 435 0 405 0 c 2,29,-1
 60 0 l 1,30,31
 84 139 84 139 101 235.5 c 128,-1,32
 118 332 118 332 129 395.5 c 128,-1,33
 140 459 140 459 146 495 c 128,-1,34
 152 531 152 531 155 549.5 c 128,-1,35
 158 568 158 568 158.5 574 c 128,-1,36
 159 580 159 580 159 583 c 0,37,38
 159 609 159 609 147 624.5 c 128,-1,39
 135 640 135 640 102 640 c 2,40,-1
 82 640 l 1,41,-1
 86 660 l 1,42,-1
 512 660 l 2,0,1
EndSplineSet
EndChar

StartChar: F
Encoding: 70 70 57
Width: 531
Flags: W
LayerCount: 2
Fore
SplineSet
485 660 m 2,0,1
 528 660 528 660 543 643 c 128,-1,2
 558 626 558 626 558 602 c 0,3,4
 558 599 558 599 557.5 595 c 128,-1,5
 557 591 557 591 555.5 581.5 c 128,-1,6
 554 572 554 572 551 554 c 128,-1,7
 548 536 548 536 543 505 c 1,8,-1
 523 505 l 1,9,10
 526 521 526 521 526 535 c 0,11,12
 526 580 526 580 498 600 c 128,-1,13
 470 620 470 620 418 620 c 2,14,-1
 259 620 l 1,15,-1
 212 355 l 1,16,-1
 438 355 l 1,17,-1
 431 315 l 1,18,-1
 205 315 l 1,19,-1
 150 0 l 1,20,-1
 60 0 l 1,21,22
 84 139 84 139 101 235.5 c 128,-1,23
 118 332 118 332 129 395.5 c 128,-1,24
 140 459 140 459 146 495 c 128,-1,25
 152 531 152 531 155 549.5 c 128,-1,26
 158 568 158 568 158.5 574 c 128,-1,27
 159 580 159 580 159 583 c 0,28,29
 159 609 159 609 147 624.5 c 128,-1,30
 135 640 135 640 102 640 c 2,31,-1
 82 640 l 1,32,-1
 86 660 l 1,33,-1
 485 660 l 2,0,1
EndSplineSet
EndChar

StartChar: G
Encoding: 71 71 58
Width: 720
Flags: W
LayerCount: 2
Fore
SplineSet
448 640 m 0,0,1
 371 640 371 640 314 602.5 c 128,-1,2
 257 565 257 565 219.5 506.5 c 128,-1,3
 182 448 182 448 163.5 376.5 c 128,-1,4
 145 305 145 305 145 236 c 0,5,6
 145 176 145 176 160 135 c 128,-1,7
 175 94 175 94 201 68.5 c 128,-1,8
 227 43 227 43 262.5 31.5 c 128,-1,9
 298 20 298 20 339 20 c 0,10,11
 393 20 393 20 430.5 29.5 c 128,-1,12
 468 39 468 39 500 55 c 1,13,-1
 531 229 l 2,14,15
 535 250 535 250 543.5 270.5 c 128,-1,16
 552 291 552 291 571.5 308 c 128,-1,17
 591 325 591 325 626 335.5 c 128,-1,18
 661 346 661 346 717 346 c 1,19,-1
 713 326 l 1,20,21
 689 326 689 326 673 319.5 c 128,-1,22
 657 313 657 313 647 300.5 c 128,-1,23
 637 288 637 288 631 270.5 c 128,-1,24
 625 253 625 253 621 231 c 2,25,-1
 588 43 l 1,26,27
 528 10 528 10 466.5 -5 c 128,-1,28
 405 -20 405 -20 332 -20 c 0,29,30
 266 -20 266 -20 213.5 2 c 128,-1,31
 161 24 161 24 124.5 62.5 c 128,-1,32
 88 101 88 101 68.5 154 c 128,-1,33
 49 207 49 207 49 269 c 0,34,35
 49 342 49 342 76 415.5 c 128,-1,36
 103 489 103 489 152.5 548 c 128,-1,37
 202 607 202 607 271.5 643.5 c 128,-1,38
 341 680 341 680 425 680 c 0,39,40
 455 680 455 680 496 675.5 c 128,-1,41
 537 671 537 671 573.5 657 c 128,-1,42
 610 643 610 643 636 617.5 c 128,-1,43
 662 592 662 592 662 550 c 0,44,45
 662 530 662 530 659 507.5 c 128,-1,46
 656 485 656 485 652 465 c 1,47,-1
 632 465 l 1,48,49
 626 640 626 640 448 640 c 0,0,1
EndSplineSet
EndChar

StartChar: H
Encoding: 72 72 59
Width: 696
Flags: W
LayerCount: 2
Fore
SplineSet
560 120 m 2,0,1
 555 92 555 92 555 75 c 0,2,3
 555 49 555 49 567.5 34.5 c 128,-1,4
 580 20 580 20 612 20 c 2,5,-1
 632 20 l 1,6,-1
 629 0 l 1,7,-1
 539 0 l 2,8,9
 499 0 499 0 481 12 c 128,-1,10
 463 24 463 24 463 61 c 0,11,12
 463 73 463 73 465 87.5 c 128,-1,13
 467 102 467 102 470 120 c 2,14,-1
 505 320 l 1,15,-1
 205 320 l 1,16,-1
 149 0 l 1,17,-1
 59 0 l 1,18,-1
 154 540 l 2,19,20
 156 552 156 552 157 562.5 c 128,-1,21
 158 573 158 573 158 583 c 0,22,23
 158 609 158 609 146 624.5 c 128,-1,24
 134 640 134 640 101 640 c 2,25,-1
 81 640 l 1,26,-1
 85 660 l 1,27,-1
 175 660 l 2,28,29
 215 660 215 660 232.5 648.5 c 128,-1,30
 250 637 250 637 250 599 c 0,31,32
 250 576 250 576 244 540 c 2,33,-1
 212 360 l 1,34,-1
 512 360 l 1,35,-1
 565 660 l 1,36,-1
 655 660 l 1,37,-1
 560 120 l 2,0,1
EndSplineSet
EndChar

StartChar: I
Encoding: 73 73 60
Width: 289
Flags: W
LayerCount: 2
Fore
SplineSet
158 660 m 1,0,-1
 248 660 l 1,1,-1
 153 120 l 2,2,3
 148 92 148 92 148 75 c 0,4,5
 148 49 148 49 160.5 34.5 c 128,-1,6
 173 20 173 20 205 20 c 2,7,-1
 225 20 l 1,8,-1
 222 0 l 1,9,-1
 132 0 l 2,10,11
 92 0 92 0 74 12 c 128,-1,12
 56 24 56 24 56 61 c 0,13,14
 56 73 56 73 58 87.5 c 128,-1,15
 60 102 60 102 63 120 c 2,16,-1
 158 660 l 1,0,-1
EndSplineSet
EndChar

StartChar: J
Encoding: 74 74 61
Width: 264
Flags: W
LayerCount: 2
Fore
SplineSet
-76 -117 m 1,0,1
 -28 -117 -28 -117 4 -65 c 128,-1,2
 36 -13 36 -13 52 78 c 2,3,-1
 155 660 l 1,4,-1
 245 660 l 1,5,-1
 142 78 l 2,6,7
 132 22 132 22 116.5 -19 c 128,-1,8
 101 -60 101 -60 75.5 -86 c 128,-1,9
 50 -112 50 -112 12 -124.5 c 128,-1,10
 -26 -137 -26 -137 -80 -137 c 1,11,-1
 -76 -117 l 1,0,1
EndSplineSet
EndChar

StartChar: K
Encoding: 75 75 62
Width: 678
Flags: W
LayerCount: 2
Fore
SplineSet
176 660 m 2,0,1
 216 660 216 660 234 648 c 128,-1,2
 252 636 252 636 252 599 c 0,3,4
 252 593 252 593 251 583.5 c 128,-1,5
 250 574 250 574 245.5 548.5 c 128,-1,6
 241 523 241 523 233 475 c 128,-1,7
 225 427 225 427 210 345 c 1,8,-1
 457 555 l 2,9,10
 479 574 479 574 500 592.5 c 128,-1,11
 521 611 521 611 543.5 626 c 128,-1,12
 566 641 566 641 591 650.5 c 128,-1,13
 616 660 616 660 646 660 c 2,14,-1
 696 660 l 1,15,-1
 691 635 l 1,16,17
 670 635 670 635 652 632 c 128,-1,18
 634 629 634 629 616 621 c 128,-1,19
 598 613 598 613 578 599.5 c 128,-1,20
 558 586 558 586 534 565 c 2,21,-1
 305 370 l 1,22,-1
 492 130 l 2,23,24
 525 87 525 87 565.5 55.5 c 128,-1,25
 606 24 606 24 643 19 c 1,26,-1
 640 0 l 1,27,28
 628 -4 628 -4 612 -7 c 128,-1,29
 596 -10 596 -10 573 -10 c 0,30,31
 552 -10 552 -10 530 -5.5 c 128,-1,32
 508 -1 508 -1 484 12.5 c 128,-1,33
 460 26 460 26 434 49 c 128,-1,34
 408 72 408 72 379 110 c 2,35,-1
 208 330 l 1,36,-1
 150 0 l 1,37,-1
 60 0 l 1,38,39
 84 139 84 139 101 235.5 c 128,-1,40
 118 332 118 332 129 395.5 c 128,-1,41
 140 459 140 459 146 495 c 128,-1,42
 152 531 152 531 155 549.5 c 128,-1,43
 158 568 158 568 158.5 574 c 128,-1,44
 159 580 159 580 159 583 c 0,45,46
 159 609 159 609 147 624.5 c 128,-1,47
 135 640 135 640 102 640 c 2,48,-1
 82 640 l 1,49,-1
 86 660 l 1,50,-1
 176 660 l 2,0,1
EndSplineSet
EndChar

StartChar: L
Encoding: 76 76 63
Width: 557
Flags: W
LayerCount: 2
Fore
SplineSet
512 40 m 1,0,-1
 505 0 l 1,1,-1
 60 0 l 1,2,3
 84 139 84 139 101 235.5 c 128,-1,4
 118 332 118 332 129 395.5 c 128,-1,5
 140 459 140 459 146 495 c 128,-1,6
 152 531 152 531 155 549.5 c 128,-1,7
 158 568 158 568 158.5 574 c 128,-1,8
 159 580 159 580 159 583 c 0,9,10
 159 609 159 609 147 624.5 c 128,-1,11
 135 640 135 640 102 640 c 2,12,-1
 82 640 l 1,13,-1
 86 660 l 1,14,-1
 176 660 l 2,15,16
 216 660 216 660 233.5 648.5 c 128,-1,17
 251 637 251 637 251 599 c 0,18,19
 251 595 251 595 250.5 588.5 c 128,-1,20
 250 582 250 582 247 563.5 c 128,-1,21
 244 545 244 545 238.5 510 c 128,-1,22
 233 475 233 475 222.5 414 c 128,-1,23
 212 353 212 353 196 262 c 128,-1,24
 180 171 180 171 157 40 c 1,25,-1
 512 40 l 1,0,-1
EndSplineSet
EndChar

StartChar: M
Encoding: 77 77 64
Width: 857
Flags: W
LayerCount: 2
Fore
SplineSet
785 -45 m 1,0,1
 699 -45 699 -45 663.5 -14 c 128,-1,2
 628 17 628 17 628 86 c 0,3,4
 628 122 628 122 637 170 c 2,5,-1
 705 555 l 1,6,-1
 358 0 l 1,7,-1
 338 0 l 1,8,-1
 177 565 l 1,9,-1
 78 0 l 1,10,-1
 38 0 l 1,11,-1
 154 660 l 1,12,-1
 249 660 l 1,13,-1
 397 140 l 1,14,-1
 724 660 l 1,15,-1
 814 660 l 1,16,-1
 727 170 l 2,17,18
 718 122 718 122 718 84 c 0,19,20
 718 32 718 32 735 3.5 c 128,-1,21
 752 -25 752 -25 788 -25 c 1,22,-1
 785 -45 l 1,0,1
EndSplineSet
EndChar

StartChar: N
Encoding: 78 78 65
Width: 687
Flags: W
LayerCount: 2
Fore
SplineSet
62 0 m 1,0,1
 86 138 86 138 103 233 c 128,-1,2
 120 328 120 328 130.5 391 c 128,-1,3
 141 454 141 454 147 489 c 128,-1,4
 153 524 153 524 156 541.5 c 128,-1,5
 159 559 159 559 159.5 564 c 128,-1,6
 160 569 160 569 160 572 c 0,7,8
 160 604 160 604 143.5 622 c 128,-1,9
 127 640 127 640 84 640 c 2,10,-1
 74 640 l 1,11,-1
 78 660 l 1,12,-1
 143 660 l 2,13,14
 192 660 192 660 221 644 c 128,-1,15
 250 628 250 628 267 600 c 2,16,-1
 541 165 l 1,17,-1
 628 660 l 1,18,-1
 668 660 l 1,19,-1
 550 -10 l 1,20,-1
 530 -10 l 1,21,-1
 194 525 l 1,22,-1
 102 0 l 1,23,-1
 62 0 l 1,24,-1
 62 0 l 1,0,1
EndSplineSet
EndChar

StartChar: O
Encoding: 79 79 66
Width: 712
Flags: W
LayerCount: 2
Fore
SplineSet
310 20 m 0,0,1
 358 20 358 20 396.5 39 c 128,-1,2
 435 58 435 58 465.5 89.5 c 128,-1,3
 496 121 496 121 518.5 162.5 c 128,-1,4
 541 204 541 204 555.5 249.5 c 128,-1,5
 570 295 570 295 577 340.5 c 128,-1,6
 584 386 584 386 584 427 c 0,7,8
 584 527 584 527 541.5 583.5 c 128,-1,9
 499 640 499 640 419 640 c 0,10,11
 371 640 371 640 332 621 c 128,-1,12
 293 602 293 602 263 570.5 c 128,-1,13
 233 539 233 539 210.5 497 c 128,-1,14
 188 455 188 455 174 409.5 c 128,-1,15
 160 364 160 364 153 318 c 128,-1,16
 146 272 146 272 146 231 c 0,17,18
 146 131 146 131 188 75.5 c 128,-1,19
 230 20 230 20 310 20 c 0,0,1
48 251 m 0,20,21
 48 326 48 326 74.5 402 c 128,-1,22
 101 478 101 478 150 540 c 128,-1,23
 199 602 199 602 269 641 c 128,-1,24
 339 680 339 680 426 680 c 0,25,26
 487 680 487 680 535 659.5 c 128,-1,27
 583 639 583 639 615.5 602.5 c 128,-1,28
 648 566 648 566 665 516 c 128,-1,29
 682 466 682 466 682 407 c 0,30,31
 682 332 682 332 655.5 256 c 128,-1,32
 629 180 629 180 579.5 118.5 c 128,-1,33
 530 57 530 57 460 18.5 c 128,-1,34
 390 -20 390 -20 303 -20 c 0,35,36
 241 -20 241 -20 193.5 0.5 c 128,-1,37
 146 21 146 21 114 57 c 128,-1,38
 82 93 82 93 65 142.5 c 128,-1,39
 48 192 48 192 48 251 c 0,20,21
EndSplineSet
EndChar

StartChar: P
Encoding: 80 80 67
Width: 555
Flags: W
LayerCount: 2
Fore
SplineSet
278 305 m 0,0,1
 305 305 305 305 337 316.5 c 128,-1,2
 369 328 369 328 397.5 352 c 128,-1,3
 426 376 426 376 445 412.5 c 128,-1,4
 464 449 464 449 464 499 c 0,5,6
 464 534 464 534 450.5 558 c 128,-1,7
 437 582 437 582 417.5 597 c 128,-1,8
 398 612 398 612 375.5 618.5 c 128,-1,9
 353 625 353 625 335 625 c 0,10,11
 316 625 316 625 295 622 c 128,-1,12
 274 619 274 619 258 615 c 1,13,-1
 205 315 l 1,14,15
 219 311 219 311 239 308 c 128,-1,16
 259 305 259 305 278 305 c 0,0,1
150 0 m 1,17,-1
 60 0 l 1,18,19
 84 139 84 139 101 235.5 c 128,-1,20
 118 332 118 332 129 395.5 c 128,-1,21
 140 459 140 459 146 495 c 128,-1,22
 152 531 152 531 155 549.5 c 128,-1,23
 158 568 158 568 158.5 574 c 128,-1,24
 159 580 159 580 159 583 c 0,25,26
 159 609 159 609 147 624.5 c 128,-1,27
 135 640 135 640 102 640 c 2,28,-1
 82 640 l 1,29,-1
 86 660 l 1,30,-1
 346 660 l 2,31,32
 375 660 375 660 413 655 c 128,-1,33
 451 650 451 650 484.5 634 c 128,-1,34
 518 618 518 618 541.5 586.5 c 128,-1,35
 565 555 565 555 565 503 c 0,36,37
 565 450 565 450 544 407.5 c 128,-1,38
 523 365 523 365 488 334 c 128,-1,39
 453 303 453 303 406 286.5 c 128,-1,40
 359 270 359 270 307 270 c 2,41,-1
 197 270 l 1,42,-1
 150 0 l 1,17,-1
EndSplineSet
EndChar

StartChar: Q
Encoding: 81 81 68
Width: 713
Flags: W
LayerCount: 2
Fore
SplineSet
49 251 m 0,0,1
 49 326 49 326 75.5 402 c 128,-1,2
 102 478 102 478 151 540 c 128,-1,3
 200 602 200 602 270 641 c 128,-1,4
 340 680 340 680 427 680 c 0,5,6
 488 680 488 680 536 659.5 c 128,-1,7
 584 639 584 639 616 603 c 128,-1,8
 648 567 648 567 665 517.5 c 128,-1,9
 682 468 682 468 682 409 c 0,10,11
 682 342 682 342 662.5 276 c 128,-1,12
 643 210 643 210 605.5 154 c 128,-1,13
 568 98 568 98 513 55 c 128,-1,14
 458 12 458 12 388 -9 c 1,15,16
 393 -47 393 -47 414 -79 c 128,-1,17
 435 -111 435 -111 464.5 -134.5 c 128,-1,18
 494 -158 494 -158 528.5 -171.5 c 128,-1,19
 563 -185 563 -185 595 -185 c 1,20,-1
 591 -205 l 1,21,22
 537 -205 537 -205 485 -195.5 c 128,-1,23
 433 -186 433 -186 385 -163.5 c 128,-1,24
 337 -141 337 -141 294.5 -102.5 c 128,-1,25
 252 -64 252 -64 216 -7 c 1,26,27
 135 18 135 18 92 87 c 128,-1,28
 49 156 49 156 49 251 c 0,0,1
311 20 m 0,29,30
 359 20 359 20 397.5 39 c 128,-1,31
 436 58 436 58 466.5 89.5 c 128,-1,32
 497 121 497 121 519.5 162.5 c 128,-1,33
 542 204 542 204 556.5 249.5 c 128,-1,34
 571 295 571 295 578 340.5 c 128,-1,35
 585 386 585 386 585 427 c 0,36,37
 585 527 585 527 542.5 583.5 c 128,-1,38
 500 640 500 640 420 640 c 0,39,40
 372 640 372 640 333 621 c 128,-1,41
 294 602 294 602 264 570.5 c 128,-1,42
 234 539 234 539 211.5 497 c 128,-1,43
 189 455 189 455 175 409.5 c 128,-1,44
 161 364 161 364 154 318 c 128,-1,45
 147 272 147 272 147 231 c 0,46,47
 147 131 147 131 189 75.5 c 128,-1,48
 231 20 231 20 311 20 c 0,29,30
EndSplineSet
EndChar

StartChar: R
Encoding: 82 82 69
Width: 595
Flags: W
LayerCount: 2
Fore
SplineSet
284 340 m 0,0,1
 317 340 317 340 349.5 352.5 c 128,-1,2
 382 365 382 365 408.5 387.5 c 128,-1,3
 435 410 435 410 451 440.5 c 128,-1,4
 467 471 467 471 467 507 c 0,5,6
 467 539 467 539 453.5 561.5 c 128,-1,7
 440 584 440 584 420 598 c 128,-1,8
 400 612 400 612 377 618.5 c 128,-1,9
 354 625 354 625 335 625 c 256,10,11
 316 625 316 625 295 622 c 128,-1,12
 274 619 274 619 258 615 c 1,13,-1
 211 350 l 1,14,15
 225 346 225 346 245 343 c 128,-1,16
 265 340 265 340 284 340 c 0,0,1
273 305 m 1,17,-1
 203 305 l 1,18,-1
 150 0 l 1,19,-1
 60 0 l 1,20,21
 84 139 84 139 101 235.5 c 128,-1,22
 118 332 118 332 129 395.5 c 128,-1,23
 140 459 140 459 146 495 c 128,-1,24
 152 531 152 531 155 549.5 c 128,-1,25
 158 568 158 568 158.5 574 c 128,-1,26
 159 580 159 580 159 583 c 0,27,28
 159 609 159 609 147 624.5 c 128,-1,29
 135 640 135 640 102 640 c 2,30,-1
 82 640 l 1,31,-1
 86 660 l 1,32,-1
 346 660 l 2,33,34
 375 660 375 660 413.5 655.5 c 128,-1,35
 452 651 452 651 486 635.5 c 128,-1,36
 520 620 520 620 543.5 591.5 c 128,-1,37
 567 563 567 563 567 515 c 0,38,39
 567 474 567 474 552.5 440.5 c 128,-1,40
 538 407 538 407 512 381.5 c 128,-1,41
 486 356 486 356 451 338 c 128,-1,42
 416 320 416 320 374 310 c 1,43,-1
 448 135 l 2,44,45
 461 103 461 103 474 82 c 128,-1,46
 487 61 487 61 500.5 47.5 c 128,-1,47
 514 34 514 34 529.5 28 c 128,-1,48
 545 22 545 22 563 20 c 1,49,-1
 560 0 l 1,50,51
 552 -4 552 -4 534.5 -7 c 128,-1,52
 517 -10 517 -10 498 -10 c 0,53,54
 472 -10 472 -10 451 -3 c 128,-1,55
 430 4 430 4 411.5 21 c 128,-1,56
 393 38 393 38 376.5 66 c 128,-1,57
 360 94 360 94 343 135 c 2,58,-1
 273 305 l 1,17,-1
EndSplineSet
EndChar

StartChar: S
Encoding: 83 83 70
Width: 534
Flags: W
LayerCount: 2
Fore
SplineSet
474 198 m 0,0,1
 474 151 474 151 454 111.5 c 128,-1,2
 434 72 434 72 400.5 43.5 c 128,-1,3
 367 15 367 15 323 -1 c 128,-1,4
 279 -17 279 -17 231 -17 c 0,5,6
 192 -17 192 -17 155 -9.5 c 128,-1,7
 118 -2 118 -2 88.5 12.5 c 128,-1,8
 59 27 59 27 41 47 c 128,-1,9
 23 67 23 67 23 93 c 0,10,11
 23 94 23 94 23.5 97.5 c 128,-1,12
 24 101 24 101 25.5 112.5 c 128,-1,13
 27 124 27 124 31 147 c 128,-1,14
 35 170 35 170 43 212 c 1,15,-1
 61 212 l 1,16,-1
 61 205 l 2,17,18
 61 108 61 108 103.5 65.5 c 128,-1,19
 146 23 146 23 229 23 c 0,20,21
 255 23 255 23 282 31 c 128,-1,22
 309 39 309 39 330.5 54.5 c 128,-1,23
 352 70 352 70 366 93 c 128,-1,24
 380 116 380 116 380 146 c 0,25,26
 380 181 380 181 357.5 207.5 c 128,-1,27
 335 234 335 234 292 263 c 2,28,-1
 182 336 l 2,29,30
 134 368 134 368 113 399 c 128,-1,31
 92 430 92 430 92 472 c 0,32,33
 92 517 92 517 110 554.5 c 128,-1,34
 128 592 128 592 158.5 619.5 c 128,-1,35
 189 647 189 647 230.5 662.5 c 128,-1,36
 272 678 272 678 319 678 c 0,37,38
 354 678 354 678 389 670.5 c 128,-1,39
 424 663 424 663 452 649.5 c 128,-1,40
 480 636 480 636 497.5 615.5 c 128,-1,41
 515 595 515 595 515 570 c 0,42,43
 515 568 515 568 514.5 565 c 128,-1,44
 514 562 514 562 512.5 550.5 c 128,-1,45
 511 539 511 539 506.5 516 c 128,-1,46
 502 493 502 493 495 451 c 1,47,-1
 477 451 l 1,48,-1
 477 458 l 2,49,50
 477 555 477 555 436 596.5 c 128,-1,51
 395 638 395 638 312 638 c 0,52,53
 288 638 288 638 263.5 629.5 c 128,-1,54
 239 621 239 621 219.5 605 c 128,-1,55
 200 589 200 589 188 567 c 128,-1,56
 176 545 176 545 176 518 c 0,57,58
 176 483 176 483 199.5 459 c 128,-1,59
 223 435 223 435 266 406 c 2,60,-1
 376 333 l 2,61,62
 425 301 425 301 449.5 270.5 c 128,-1,63
 474 240 474 240 474 198 c 0,0,1
EndSplineSet
EndChar

StartChar: T
Encoding: 84 84 71
Width: 585
Flags: W
LayerCount: 2
Fore
SplineSet
637 660 m 1,0,-1
 630 620 l 1,1,-1
 405 620 l 1,2,-1
 296 0 l 1,3,-1
 206 0 l 1,4,-1
 315 620 l 1,5,-1
 225 620 l 2,6,7
 165 620 165 620 128 592.5 c 128,-1,8
 91 565 91 565 80 505 c 1,9,-1
 60 505 l 1,10,-1
 73 580 l 2,11,12
 76 595 76 595 82 609.5 c 128,-1,13
 88 624 88 624 99 635 c 128,-1,14
 110 646 110 646 128 653 c 128,-1,15
 146 660 146 660 172 660 c 2,16,-1
 637 660 l 1,0,-1
EndSplineSet
EndChar

StartChar: U
Encoding: 85 85 72
Width: 687
Flags: W
LayerCount: 2
Fore
SplineSet
144 540 m 2,0,1
 146 552 146 552 147 562.5 c 128,-1,2
 148 573 148 573 148 583 c 0,3,4
 148 609 148 609 136 624.5 c 128,-1,5
 124 640 124 640 91 640 c 2,6,-1
 71 640 l 1,7,-1
 75 660 l 1,8,-1
 165 660 l 2,9,10
 205 660 205 660 223 648 c 128,-1,11
 241 636 241 636 241 599 c 0,12,13
 241 587 241 587 239 572.5 c 128,-1,14
 237 558 237 558 234 540 c 2,15,-1
 183 255 l 2,16,17
 179 233 179 233 177 214 c 128,-1,18
 175 195 175 195 175 177 c 0,19,20
 175 107 175 107 208.5 68.5 c 128,-1,21
 242 30 242 30 321 30 c 0,22,23
 378 30 378 30 419.5 45 c 128,-1,24
 461 60 461 60 490.5 91.5 c 128,-1,25
 520 123 520 123 538.5 171 c 128,-1,26
 557 219 557 219 569 285 c 2,27,-1
 635 660 l 1,28,-1
 675 660 l 1,29,-1
 609 285 l 2,30,31
 596 212 596 212 575 156.5 c 128,-1,32
 554 101 554 101 519 64 c 128,-1,33
 484 27 484 27 431.5 8.5 c 128,-1,34
 379 -10 379 -10 302 -10 c 0,35,36
 186 -10 186 -10 137 37 c 128,-1,37
 88 84 88 84 88 177 c 0,38,39
 88 201 88 201 91 228 c 128,-1,40
 94 255 94 255 99 285 c 2,41,-1
 144 540 l 2,0,1
EndSplineSet
EndChar

StartChar: V
Encoding: 86 86 73
Width: 639
Flags: W
LayerCount: 2
Fore
SplineSet
321 140 m 1,0,1
 356 198 356 198 379 235 c 128,-1,2
 402 272 402 272 417 297 c 128,-1,3
 432 322 432 322 442 339 c 128,-1,4
 452 356 452 356 462 372.5 c 128,-1,5
 472 389 472 389 484 409 c 128,-1,6
 496 429 496 429 514.5 461 c 128,-1,7
 533 493 533 493 561.5 540.5 c 128,-1,8
 590 588 590 588 633 660 c 1,9,-1
 681 660 l 1,10,-1
 276 -10 l 1,11,-1
 258 -10 l 1,12,-1
 123 543 l 2,13,14
 116 571 116 571 108.5 590.5 c 128,-1,15
 101 610 101 610 91 622 c 128,-1,16
 81 634 81 634 66.5 640 c 128,-1,17
 52 646 52 646 32 648 c 1,18,-1
 35 668 l 1,19,20
 39 668 39 668 51 669 c 128,-1,21
 63 670 63 670 70 670 c 0,22,23
 88 670 88 670 110.5 666 c 128,-1,24
 133 662 133 662 154 649 c 128,-1,25
 175 636 175 636 193 611 c 128,-1,26
 211 586 211 586 221 543 c 2,27,-1
 321 140 l 1,0,1
EndSplineSet
EndChar

StartChar: W
Encoding: 87 87 74
Width: 867
Flags: W
LayerCount: 2
Fore
SplineSet
121 543 m 2,0,1
 116 571 116 571 109.5 590.5 c 128,-1,2
 103 610 103 610 92.5 622 c 128,-1,3
 82 634 82 634 67 640 c 128,-1,4
 52 646 52 646 30 648 c 1,5,-1
 33 668 l 1,6,7
 37 668 37 668 49 669 c 128,-1,8
 61 670 61 670 68 670 c 0,9,10
 89 670 89 670 112 666.5 c 128,-1,11
 135 663 135 663 155.5 650 c 128,-1,12
 176 637 176 637 192 611.5 c 128,-1,13
 208 586 208 586 216 543 c 2,14,-1
 282 157 l 1,15,-1
 445 474 l 1,16,-1
 433 543 l 2,17,18
 428 571 428 571 421.5 590.5 c 128,-1,19
 415 610 415 610 404.5 622 c 128,-1,20
 394 634 394 634 379 640 c 128,-1,21
 364 646 364 646 342 648 c 1,22,-1
 345 668 l 1,23,24
 349 668 349 668 361 669 c 128,-1,25
 373 670 373 670 380 670 c 0,26,27
 401 670 401 670 424 666.5 c 128,-1,28
 447 663 447 663 467.5 650 c 128,-1,29
 488 637 488 637 504 611.5 c 128,-1,30
 520 586 520 586 528 543 c 2,31,-1
 594 157 l 1,32,-1
 854 660 l 1,33,-1
 897 660 l 1,34,-1
 550 -10 l 1,35,-1
 530 -10 l 1,36,-1
 456 411 l 1,37,-1
 238 -10 l 1,38,-1
 218 -10 l 1,39,-1
 121 543 l 2,0,1
EndSplineSet
EndChar

StartChar: X
Encoding: 88 88 75
Width: 663
Flags: W
LayerCount: 2
Fore
SplineSet
41 0 m 1,0,-1
 -9 0 l 1,1,-1
 298 325 l 1,2,-1
 194 530 l 2,3,4
 185 549 185 549 174 567.5 c 128,-1,5
 163 586 163 586 147.5 601.5 c 128,-1,6
 132 617 132 617 109 627.5 c 128,-1,7
 86 638 86 638 53 640 c 1,8,-1
 57 660 l 1,9,-1
 177 660 l 2,10,11
 201 660 201 660 219.5 650 c 128,-1,12
 238 640 238 640 252 624 c 128,-1,13
 266 608 266 608 277 588.5 c 128,-1,14
 288 569 288 569 297 550 c 2,15,-1
 371 400 l 1,16,-1
 617 660 l 1,17,-1
 667 660 l 1,18,-1
 390 365 l 1,19,-1
 508 130 l 2,20,21
 518 111 518 111 530 92.5 c 128,-1,22
 542 74 542 74 557 58.5 c 128,-1,23
 572 43 572 43 591 32.5 c 128,-1,24
 610 22 610 22 634 20 c 1,25,-1
 631 0 l 1,26,-1
 526 0 l 2,27,28
 502 0 502 0 483 10 c 128,-1,29
 464 20 464 20 450 36 c 128,-1,30
 436 52 436 52 425 71.5 c 128,-1,31
 414 91 414 91 405 110 c 2,32,-1
 317 290 l 1,33,-1
 41 0 l 1,0,-1
EndSplineSet
EndChar

StartChar: Y
Encoding: 89 89 76
Width: 629
Flags: W
LayerCount: 2
Fore
SplineSet
365 325 m 1,0,-1
 633 660 l 1,1,-1
 678 660 l 1,2,-1
 377 280 l 1,3,-1
 328 0 l 1,4,-1
 238 0 l 1,5,-1
 286 273 l 1,6,-1
 161 530 l 2,7,8
 150 552 150 552 138.5 571.5 c 128,-1,9
 127 591 127 591 113 605.5 c 128,-1,10
 99 620 99 620 80 629 c 128,-1,11
 61 638 61 638 35 640 c 1,12,-1
 39 660 l 1,13,-1
 129 660 l 2,14,15
 157 660 157 660 177.5 650.5 c 128,-1,16
 198 641 198 641 213 625.5 c 128,-1,17
 228 610 228 610 239 590.5 c 128,-1,18
 250 571 250 571 259 550 c 2,19,-1
 365 325 l 1,0,-1
EndSplineSet
EndChar

StartChar: Z
Encoding: 90 90 77
Width: 594
Flags: W
LayerCount: 2
Fore
SplineSet
644 660 m 1,0,-1
 110 40 l 1,1,-1
 520 40 l 1,2,-1
 513 0 l 1,3,-1
 -22 0 l 1,4,-1
 -19 20 l 1,5,-1
 502 620 l 1,6,-1
 262 620 l 2,7,8
 202 620 202 620 165 592.5 c 128,-1,9
 128 565 128 565 117 505 c 1,10,-1
 97 505 l 1,11,-1
 110 580 l 2,12,13
 113 595 113 595 119 609.5 c 128,-1,14
 125 624 125 624 136 635 c 128,-1,15
 147 646 147 646 165 653 c 128,-1,16
 183 660 183 660 209 660 c 2,17,-1
 644 660 l 1,0,-1
EndSplineSet
EndChar

StartChar: bracketleft
Encoding: 91 91 78
Width: 317
Flags: W
LayerCount: 2
Fore
SplineSet
207 -200 m 1,0,-1
 -8 -200 l 1,1,-1
 147 680 l 1,2,-1
 362 680 l 1,3,-1
 355 640 l 1,4,-1
 220 640 l 1,5,-1
 79 -160 l 1,6,-1
 214 -160 l 1,7,-1
 207 -200 l 1,0,-1
EndSplineSet
EndChar

StartChar: backslash
Encoding: 92 92 79
Width: 440
Flags: W
LayerCount: 2
Fore
SplineSet
295 0 m 1,0,-1
 90 660 l 1,1,-1
 163 660 l 1,2,-1
 368 0 l 1,3,-1
 295 0 l 1,0,-1
EndSplineSet
EndChar

StartChar: bracketright
Encoding: 93 93 80
Width: 317
Flags: W
LayerCount: 2
Fore
SplineSet
-50 -160 m 1,0,-1
 84 -160 l 1,1,-1
 225 640 l 1,2,-1
 90 640 l 1,3,-1
 97 680 l 1,4,-1
 312 680 l 1,5,-1
 157 -200 l 1,6,-1
 -57 -200 l 1,7,-1
 -50 -160 l 1,0,-1
EndSplineSet
EndChar

StartChar: asciicircum
Encoding: 94 94 81
Width: 490
Flags: W
LayerCount: 2
Fore
SplineSet
314 680 m 1,0,-1
 334 680 l 1,1,-1
 488 330 l 1,2,-1
 421 330 l 1,3,-1
 308 587 l 1,4,-1
 105 330 l 1,5,-1
 38 330 l 1,6,-1
 314 680 l 1,0,-1
EndSplineSet
EndChar

StartChar: underscore
Encoding: 95 95 82
Width: 430
Flags: W
LayerCount: 2
Fore
SplineSet
359 -60 m 1,0,-1
 -41 -60 l 1,1,-1
 -30 0 l 1,2,-1
 370 0 l 1,3,-1
 359 -60 l 1,0,-1
EndSplineSet
EndChar

StartChar: grave
Encoding: 96 96 83
Width: 200
Flags: W
LayerCount: 2
Fore
SplineSet
99 680 m 1,0,-1
 199 680 l 1,1,-1
 224 480 l 1,2,-1
 174 480 l 1,3,-1
 99 680 l 1,0,-1
EndSplineSet
EndChar

StartChar: a
Encoding: 97 97 84
Width: 525
Flags: W
LayerCount: 2
Fore
SplineSet
296 440 m 0,0,1
 250 440 250 440 218 410 c 128,-1,2
 186 380 186 380 165.5 336.5 c 128,-1,3
 145 293 145 293 136 244 c 128,-1,4
 127 195 127 195 127 157 c 0,5,6
 127 102 127 102 147 66 c 128,-1,7
 167 30 167 30 214 30 c 0,8,9
 259 30 259 30 284.5 48.5 c 128,-1,10
 310 67 310 67 329 90 c 1,11,-1
 381 380 l 1,12,13
 375 391 375 391 368 402 c 128,-1,14
 361 413 361 413 351.5 421.5 c 128,-1,15
 342 430 342 430 328.5 435 c 128,-1,16
 315 440 315 440 296 440 c 0,0,1
273 480 m 1,17,18
 325 480 325 480 351 462 c 128,-1,19
 377 444 377 444 388 425 c 1,20,-1
 393 425 l 1,21,-1
 436 470 l 1,22,-1
 486 470 l 1,23,-1
 404 0 l 1,24,-1
 354 0 l 1,25,-1
 326 45 l 1,26,-1
 321 45 l 1,27,28
 303 26 303 26 270 8 c 128,-1,29
 237 -10 237 -10 177 -10 c 0,30,31
 140 -10 140 -10 112.5 3.5 c 128,-1,32
 85 17 85 17 67 40 c 128,-1,33
 49 63 49 63 40.5 95 c 128,-1,34
 32 127 32 127 32 163 c 0,35,36
 32 215 32 215 47 269 c 128,-1,37
 62 323 62 323 92 368.5 c 128,-1,38
 122 414 122 414 167 444.5 c 128,-1,39
 212 475 212 475 273 480 c 1,17,18
EndSplineSet
EndChar

StartChar: b
Encoding: 98 98 85
Width: 526
Flags: W
LayerCount: 2
Fore
SplineSet
130 90 m 1,0,1
 141 67 141 67 162.5 48.5 c 128,-1,2
 184 30 184 30 225 30 c 0,3,4
 254 30 254 30 277 44 c 128,-1,5
 300 58 300 58 317.5 81 c 128,-1,6
 335 104 335 104 347.5 134 c 128,-1,7
 360 164 360 164 368 195 c 128,-1,8
 376 226 376 226 379.5 256.5 c 128,-1,9
 383 287 383 287 383 311 c 0,10,11
 383 368 383 368 361 404 c 128,-1,12
 339 440 339 440 287 440 c 0,13,14
 264 440 264 440 237.5 430.5 c 128,-1,15
 211 421 211 421 187 410 c 1,16,-1
 130 90 l 1,0,1
25 0 m 1,17,18
 49 139 49 139 66 235.5 c 128,-1,19
 83 332 83 332 94 395.5 c 128,-1,20
 105 459 105 459 111 495 c 128,-1,21
 117 531 117 531 120 549.5 c 128,-1,22
 123 568 123 568 123.5 574 c 128,-1,23
 124 580 124 580 124 583 c 0,24,25
 124 609 124 609 112 624.5 c 128,-1,26
 100 640 100 640 67 640 c 2,27,-1
 47 640 l 1,28,-1
 51 660 l 1,29,-1
 141 660 l 2,30,31
 181 660 181 660 198.5 648.5 c 128,-1,32
 216 637 216 637 216 599 c 0,33,34
 216 576 216 576 210 540 c 2,35,-1
 194 450 l 1,36,37
 218 461 218 461 250 470.5 c 128,-1,38
 282 480 282 480 324 480 c 0,39,40
 364 480 364 480 393 467 c 128,-1,41
 422 454 422 454 441 430.5 c 128,-1,42
 460 407 460 407 469 375 c 128,-1,43
 478 343 478 343 478 305 c 0,44,45
 478 274 478 274 472 238.5 c 128,-1,46
 466 203 466 203 453.5 168 c 128,-1,47
 441 133 441 133 422 101 c 128,-1,48
 403 69 403 69 377.5 44 c 128,-1,49
 352 19 352 19 319.5 4.5 c 128,-1,50
 287 -10 287 -10 248 -10 c 0,51,52
 192 -10 192 -10 163 8 c 128,-1,53
 134 26 134 26 122 45 c 1,54,-1
 117 45 l 1,55,-1
 75 0 l 1,56,-1
 25 0 l 1,17,18
EndSplineSet
EndChar

StartChar: c
Encoding: 99 99 86
Width: 484
Flags: W
LayerCount: 2
Fore
SplineSet
301 480 m 0,0,1
 320 480 320 480 346.5 478.5 c 128,-1,2
 373 477 373 477 397 469.5 c 128,-1,3
 421 462 421 462 437.5 446.5 c 128,-1,4
 454 431 454 431 454 402 c 0,5,6
 454 388 454 388 451 368.5 c 128,-1,7
 448 349 448 349 443 322 c 0,8,9
 443 320 443 320 442.5 318.5 c 128,-1,10
 442 317 442 317 442 315 c 1,11,-1
 422 315 l 1,12,13
 423 321 423 321 423 326.5 c 128,-1,14
 423 332 423 332 423 337 c 0,15,16
 423 390 423 390 392.5 415 c 128,-1,17
 362 440 362 440 314 440 c 0,18,19
 265 440 265 440 230 414 c 128,-1,20
 195 388 195 388 172 348.5 c 128,-1,21
 149 309 149 309 138 261.5 c 128,-1,22
 127 214 127 214 127 171 c 0,23,24
 127 108 127 108 154.5 69 c 128,-1,25
 182 30 182 30 242 30 c 0,26,27
 295 30 295 30 331.5 51 c 128,-1,28
 368 72 368 72 401 110 c 1,29,-1
 418 95 l 1,30,31
 374 38 374 38 324.5 14 c 128,-1,32
 275 -10 275 -10 215 -10 c 0,33,34
 167 -10 167 -10 132.5 4 c 128,-1,35
 98 18 98 18 75.5 42.5 c 128,-1,36
 53 67 53 67 42.5 100.5 c 128,-1,37
 32 134 32 134 32 174 c 0,38,39
 32 229 32 229 50 283.5 c 128,-1,40
 68 338 68 338 102.5 381.5 c 128,-1,41
 137 425 137 425 187 452.5 c 128,-1,42
 237 480 237 480 301 480 c 0,0,1
EndSplineSet
EndChar

StartChar: d
Encoding: 100 100 87
Width: 524
Flags: W
LayerCount: 2
Fore
SplineSet
385 410 m 1,0,1
 364 421 364 421 341 430.5 c 128,-1,2
 318 440 318 440 295 440 c 0,3,4
 248 440 248 440 215.5 410.5 c 128,-1,5
 183 381 183 381 163.5 338 c 128,-1,6
 144 295 144 295 135.5 245.5 c 128,-1,7
 127 196 127 196 127 157 c 0,8,9
 127 100 127 100 147 65 c 128,-1,10
 167 30 167 30 213 30 c 0,11,12
 258 30 258 30 283.5 48.5 c 128,-1,13
 309 67 309 67 328 90 c 1,14,-1
 385 410 l 1,0,1
353 0 m 1,15,-1
 325 45 l 1,16,-1
 320 45 l 1,17,18
 302 26 302 26 269 8 c 128,-1,19
 236 -10 236 -10 176 -10 c 0,20,21
 139 -10 139 -10 112 3 c 128,-1,22
 85 16 85 16 67 39.5 c 128,-1,23
 49 63 49 63 40.5 95 c 128,-1,24
 32 127 32 127 32 165 c 0,25,26
 32 214 32 214 46.5 269.5 c 128,-1,27
 61 325 61 325 90.5 372 c 128,-1,28
 120 419 120 419 165 449.5 c 128,-1,29
 210 480 210 480 272 480 c 0,30,31
 314 480 314 480 342.5 470.5 c 128,-1,32
 371 461 371 461 392 450 c 1,33,34
 399 490 399 490 403 514 c 128,-1,35
 407 538 407 538 409 551.5 c 128,-1,36
 411 565 411 565 411.5 571.5 c 128,-1,37
 412 578 412 578 412 583 c 0,38,39
 412 609 412 609 400 624.5 c 128,-1,40
 388 640 388 640 355 640 c 2,41,-1
 335 640 l 1,42,-1
 339 660 l 1,43,-1
 429 660 l 2,44,45
 469 660 469 660 486.5 648.5 c 128,-1,46
 504 637 504 637 504 599 c 0,47,48
 504 595 504 595 503.5 588 c 128,-1,49
 503 581 503 581 500 561.5 c 128,-1,50
 497 542 497 542 490.5 505 c 128,-1,51
 484 468 484 468 473 402.5 c 128,-1,52
 462 337 462 337 445 239 c 128,-1,53
 428 141 428 141 403 0 c 1,54,-1
 353 0 l 1,15,-1
EndSplineSet
EndChar

StartChar: e
Encoding: 101 101 88
Width: 487
Flags: W
LayerCount: 2
Fore
SplineSet
127 200 m 1,0,1
 125 189 125 189 124 179 c 128,-1,2
 123 169 123 169 123 159 c 0,3,4
 123 105 123 105 150.5 67.5 c 128,-1,5
 178 30 178 30 232 30 c 0,6,7
 281 30 281 30 317 51 c 128,-1,8
 353 72 353 72 386 110 c 1,9,-1
 403 95 l 1,10,11
 359 38 359 38 310.5 14 c 128,-1,12
 262 -10 262 -10 205 -10 c 0,13,14
 161 -10 161 -10 128.5 4 c 128,-1,15
 96 18 96 18 74.5 42.5 c 128,-1,16
 53 67 53 67 42.5 100.5 c 128,-1,17
 32 134 32 134 32 173 c 0,18,19
 32 225 32 225 49 279.5 c 128,-1,20
 66 334 66 334 99 378.5 c 128,-1,21
 132 423 132 423 180.5 451.5 c 128,-1,22
 229 480 229 480 291 480 c 0,23,24
 380 480 380 480 419 447 c 128,-1,25
 458 414 458 414 458 366 c 0,26,27
 458 325 458 325 440.5 294 c 128,-1,28
 423 263 423 263 393.5 242 c 128,-1,29
 364 221 364 221 326 210.5 c 128,-1,30
 288 200 288 200 247 200 c 2,31,-1
 127 200 l 1,0,1
249 240 m 1,32,33
 297 242 297 242 330 276 c 128,-1,34
 363 310 363 310 363 364 c 0,35,36
 363 399 363 399 342.5 419.5 c 128,-1,37
 322 440 322 440 284 440 c 0,38,39
 231 440 231 440 191 387 c 128,-1,40
 151 334 151 334 134 240 c 1,41,-1
 249 240 l 1,32,33
EndSplineSet
EndChar

StartChar: f
Encoding: 102 102 89
Width: 340
Flags: W
LayerCount: 2
Fore
SplineSet
118 430 m 1,0,-1
 48 430 l 1,1,-1
 55 470 l 1,2,-1
 125 470 l 1,3,-1
 131 500 l 2,4,5
 141 552 141 552 162.5 585 c 128,-1,6
 184 618 184 618 212 637 c 128,-1,7
 240 656 240 656 272 663 c 128,-1,8
 304 670 304 670 336 670 c 0,9,10
 398 670 398 670 418 655 c 0,11,12
 436 641 436 641 445 610 c 1,13,-1
 411 585 l 1,14,15
 400 608 400 608 379 619 c 128,-1,16
 358 630 358 630 324 630 c 256,17,18
 290 630 290 630 263 602 c 128,-1,19
 236 574 236 574 221 500 c 2,20,-1
 215 470 l 1,21,-1
 355 470 l 1,22,-1
 348 430 l 1,23,-1
 208 430 l 1,24,-1
 137 25 l 2,25,26
 127 -31 127 -31 111 -72 c 128,-1,27
 95 -113 95 -113 69.5 -139 c 128,-1,28
 44 -165 44 -165 6.5 -177.5 c 128,-1,29
 -31 -190 -31 -190 -85 -190 c 1,30,-1
 -81 -170 l 1,31,32
 -33 -170 -33 -170 -1 -118 c 128,-1,33
 31 -66 31 -66 47 25 c 2,34,-1
 118 430 l 1,0,-1
EndSplineSet
EndChar

StartChar: g
Encoding: 103 103 90
Width: 524
Flags: W
LayerCount: 2
Fore
SplineSet
380 380 m 1,0,1
 369 402 369 402 347.5 421 c 128,-1,2
 326 440 326 440 285 440 c 0,3,4
 242 440 242 440 212 411 c 128,-1,5
 182 382 182 382 163.5 340 c 128,-1,6
 145 298 145 298 136.5 251 c 128,-1,7
 128 204 128 204 128 168 c 0,8,9
 128 112 128 112 150.5 76 c 128,-1,10
 173 40 173 40 225 40 c 0,11,12
 248 40 248 40 274 49.5 c 128,-1,13
 300 59 300 59 325 70 c 1,14,-1
 380 380 l 1,0,1
407 25 m 2,15,16
 398 -26 398 -26 378 -67.5 c 128,-1,17
 358 -109 358 -109 328 -138.5 c 128,-1,18
 298 -168 298 -168 260 -184 c 128,-1,19
 222 -200 222 -200 177 -200 c 0,20,21
 117 -200 117 -200 76 -176 c 128,-1,22
 35 -152 35 -152 11 -95 c 1,23,-1
 33 -80 l 1,24,25
 53 -118 53 -118 82 -139 c 128,-1,26
 111 -160 111 -160 164 -160 c 0,27,28
 221 -160 221 -160 261.5 -111 c 128,-1,29
 302 -62 302 -62 317 25 c 1,30,-1
 318 30 l 1,31,32
 293 19 293 19 261.5 9.5 c 128,-1,33
 230 0 230 0 188 0 c 0,34,35
 148 0 148 0 119 13.5 c 128,-1,36
 90 27 90 27 71 50 c 128,-1,37
 52 73 52 73 43 105 c 128,-1,38
 34 137 34 137 34 174 c 0,39,40
 34 220 34 220 48 273.5 c 128,-1,41
 62 327 62 327 90.5 373 c 128,-1,42
 119 419 119 419 161.5 449.5 c 128,-1,43
 204 480 204 480 262 480 c 0,44,45
 318 480 318 480 347 462 c 128,-1,46
 376 444 376 444 387 425 c 1,47,-1
 392 425 l 1,48,-1
 435 470 l 1,49,-1
 485 470 l 1,50,-1
 407 25 l 2,15,16
EndSplineSet
EndChar

StartChar: h
Encoding: 104 104 91
Width: 532
Flags: W
LayerCount: 2
Fore
SplineSet
190 430 m 1,0,1
 213 449 213 449 248.5 464.5 c 128,-1,2
 284 480 284 480 329 480 c 0,3,4
 357 480 357 480 382.5 474.5 c 128,-1,5
 408 469 408 469 428 454.5 c 128,-1,6
 448 440 448 440 460 415 c 128,-1,7
 472 390 472 390 472 352 c 0,8,9
 472 348 472 348 471.5 342.5 c 128,-1,10
 471 337 471 337 469.5 324.5 c 128,-1,11
 468 312 468 312 464.5 290 c 128,-1,12
 461 268 461 268 454.5 230 c 128,-1,13
 448 192 448 192 438.5 136 c 128,-1,14
 429 80 429 80 415 0 c 1,15,-1
 325 0 l 1,16,17
 339 78 339 78 348.5 133 c 128,-1,18
 358 188 358 188 364 224.5 c 128,-1,19
 370 261 370 261 373.5 282.5 c 128,-1,20
 377 304 377 304 378.5 315.5 c 128,-1,21
 380 327 380 327 380.5 331.5 c 128,-1,22
 381 336 381 336 381 339 c 0,23,24
 381 365 381 365 373.5 383.5 c 128,-1,25
 366 402 366 402 353.5 413.5 c 128,-1,26
 341 425 341 425 325 430 c 128,-1,27
 309 435 309 435 291 435 c 0,28,29
 261 435 261 435 233 419 c 128,-1,30
 205 403 205 403 182 382 c 1,31,-1
 115 0 l 1,32,-1
 25 0 l 1,33,34
 49 139 49 139 66 235.5 c 128,-1,35
 83 332 83 332 94 395.5 c 128,-1,36
 105 459 105 459 111 495 c 128,-1,37
 117 531 117 531 120 549.5 c 128,-1,38
 123 568 123 568 123.5 574 c 128,-1,39
 124 580 124 580 124 583 c 0,40,41
 124 609 124 609 112 624.5 c 128,-1,42
 100 640 100 640 67 640 c 2,43,-1
 47 640 l 1,44,-1
 51 660 l 1,45,-1
 141 660 l 2,46,47
 181 660 181 660 198.5 648.5 c 128,-1,48
 216 637 216 637 216 599 c 0,49,50
 216 593 216 593 215.5 584.5 c 128,-1,51
 215 576 215 576 212 558.5 c 128,-1,52
 209 541 209 541 204 510.5 c 128,-1,53
 199 480 199 480 190 430 c 1,0,1
EndSplineSet
EndChar

StartChar: i
Encoding: 105 105 92
Width: 251
Flags: W
LayerCount: 2
Fore
SplineSet
42 0 m 1,0,1
 58 92 58 92 69 156 c 128,-1,2
 80 220 80 220 87.5 262.5 c 128,-1,3
 95 305 95 305 99 330 c 128,-1,4
 103 355 103 355 105 368.5 c 128,-1,5
 107 382 107 382 107.5 387 c 128,-1,6
 108 392 108 392 108 395 c 0,7,8
 108 421 108 421 95.5 435.5 c 128,-1,9
 83 450 83 450 51 450 c 2,10,-1
 31 450 l 1,11,-1
 34 470 l 1,12,-1
 124 470 l 2,13,14
 164 470 164 470 182 458 c 128,-1,15
 200 446 200 446 200 409 c 0,16,17
 200 405 200 405 199.5 399 c 128,-1,18
 199 393 199 393 197 379 c 128,-1,19
 195 365 195 365 190.5 339 c 128,-1,20
 186 313 186 313 178.5 269 c 128,-1,21
 171 225 171 225 159.5 159 c 128,-1,22
 148 93 148 93 132 0 c 1,23,-1
 42 0 l 1,0,1
228 587 m 0,24,25
 228 564 228 564 213.5 547 c 128,-1,26
 199 530 199 530 173 530 c 0,27,28
 153 530 153 530 140 545 c 128,-1,29
 127 560 127 560 127 582 c 0,30,31
 127 605 127 605 141.5 622 c 128,-1,32
 156 639 156 639 182 639 c 0,33,34
 202 639 202 639 215 624 c 128,-1,35
 228 609 228 609 228 587 c 0,24,25
EndSplineSet
EndChar

StartChar: j
Encoding: 106 106 93
Width: 251
Flags: W
LayerCount: 2
Fore
SplineSet
46 25 m 0,0,1
 61 110 61 110 71.5 170 c 128,-1,2
 82 230 82 230 89 270 c 128,-1,3
 96 310 96 310 99.5 333.5 c 128,-1,4
 103 357 103 357 105 369.5 c 128,-1,5
 107 382 107 382 107.5 387 c 128,-1,6
 108 392 108 392 108 395 c 0,7,8
 108 421 108 421 95.5 435.5 c 128,-1,9
 83 450 83 450 51 450 c 2,10,-1
 31 450 l 1,11,-1
 34 470 l 1,12,-1
 124 470 l 2,13,14
 164 470 164 470 182 458 c 128,-1,15
 200 446 200 446 200 409 c 0,16,17
 200 405 200 405 199.5 399 c 128,-1,18
 199 393 199 393 197 379.5 c 128,-1,19
 195 366 195 366 191 341.5 c 128,-1,20
 187 317 187 317 180 276 c 128,-1,21
 173 235 173 235 162 173.5 c 128,-1,22
 151 112 151 112 136 25 c 0,23,24
 126 -31 126 -31 110 -72 c 128,-1,25
 94 -113 94 -113 68.5 -139 c 128,-1,26
 43 -165 43 -165 5.5 -177.5 c 128,-1,27
 -32 -190 -32 -190 -86 -190 c 1,28,-1
 -82 -170 l 1,29,30
 -34 -170 -34 -170 -2 -118 c 128,-1,31
 30 -66 30 -66 46 25 c 0,0,1
228 587 m 0,32,33
 228 564 228 564 213.5 547 c 128,-1,34
 199 530 199 530 173 530 c 0,35,36
 153 530 153 530 140 545 c 128,-1,37
 127 560 127 560 127 582 c 0,38,39
 127 605 127 605 141.5 622 c 128,-1,40
 156 639 156 639 182 639 c 0,41,42
 202 639 202 639 215 624 c 128,-1,43
 228 609 228 609 228 587 c 0,32,33
EndSplineSet
EndChar

StartChar: k
Encoding: 107 107 94
Width: 485
Flags: W
LayerCount: 2
Fore
SplineSet
157 245 m 1,0,-1
 310 405 l 2,1,2
 338 434 338 434 370 452 c 128,-1,3
 402 470 402 470 451 470 c 2,4,-1
 481 470 l 1,5,-1
 477 445 l 1,6,7
 451 445 451 445 424 434 c 128,-1,8
 397 423 397 423 374 400 c 2,9,-1
 239 260 l 1,10,-1
 336 100 l 2,11,12
 359 62 359 62 381 43 c 128,-1,13
 403 24 403 24 432 19 c 1,14,-1
 429 0 l 1,15,16
 421 -4 421 -4 406.5 -7 c 128,-1,17
 392 -10 392 -10 377 -10 c 0,18,19
 339 -10 339 -10 305.5 7.5 c 128,-1,20
 272 25 272 25 246 70 c 2,21,-1
 154 230 l 1,22,-1
 114 0 l 1,23,-1
 24 0 l 1,24,-1
 119 540 l 2,25,26
 121 552 121 552 122 562.5 c 128,-1,27
 123 573 123 573 123 583 c 0,28,29
 123 609 123 609 111 624.5 c 128,-1,30
 99 640 99 640 66 640 c 2,31,-1
 46 640 l 1,32,-1
 50 660 l 1,33,-1
 140 660 l 2,34,35
 180 660 180 660 197.5 648.5 c 128,-1,36
 215 637 215 637 215 599 c 0,37,38
 215 576 215 576 209 540 c 2,39,-1
 157 245 l 1,0,-1
EndSplineSet
EndChar

StartChar: l
Encoding: 108 108 95
Width: 244
Flags: W
LayerCount: 2
Fore
SplineSet
29 0 m 1,0,1
 53 139 53 139 70 235.5 c 128,-1,2
 87 332 87 332 98 395.5 c 128,-1,3
 109 459 109 459 115 495 c 128,-1,4
 121 531 121 531 124 549.5 c 128,-1,5
 127 568 127 568 127.5 574 c 128,-1,6
 128 580 128 580 128 583 c 0,7,8
 128 609 128 609 116 624.5 c 128,-1,9
 104 640 104 640 71 640 c 2,10,-1
 51 640 l 1,11,-1
 55 660 l 1,12,-1
 145 660 l 2,13,14
 185 660 185 660 202.5 648.5 c 128,-1,15
 220 637 220 637 220 599 c 0,16,17
 220 595 220 595 219.5 588 c 128,-1,18
 219 581 219 581 216 561.5 c 128,-1,19
 213 542 213 542 206.5 505 c 128,-1,20
 200 468 200 468 189 402.5 c 128,-1,21
 178 337 178 337 161 239 c 128,-1,22
 144 141 144 141 119 0 c 1,23,-1
 29 0 l 1,0,1
EndSplineSet
EndChar

StartChar: m
Encoding: 109 109 96
Width: 788
Flags: W
LayerCount: 2
Fore
SplineSet
207 430 m 1,0,1
 230 449 230 449 265.5 464.5 c 128,-1,2
 301 480 301 480 346 480 c 0,3,4
 383 480 383 480 412.5 465.5 c 128,-1,5
 442 451 442 451 454 410 c 1,6,7
 486 444 486 444 530 462 c 128,-1,8
 574 480 574 480 616 480 c 0,9,10
 640 480 640 480 660.5 475 c 128,-1,11
 681 470 681 470 696.5 456.5 c 128,-1,12
 712 443 712 443 721 420.5 c 128,-1,13
 730 398 730 398 730 363 c 0,14,15
 730 358 730 358 729.5 352 c 128,-1,16
 729 346 729 346 727.5 333 c 128,-1,17
 726 320 726 320 722 296.5 c 128,-1,18
 718 273 718 273 711.5 234 c 128,-1,19
 705 195 705 195 695.5 138 c 128,-1,20
 686 81 686 81 672 0 c 1,21,-1
 582 0 l 1,22,23
 596 80 596 80 605.5 137 c 128,-1,24
 615 194 615 194 621.5 232.5 c 128,-1,25
 628 271 628 271 632 294 c 128,-1,26
 636 317 636 317 637.5 330 c 128,-1,27
 639 343 639 343 639.5 348.5 c 128,-1,28
 640 354 640 354 640 358 c 0,29,30
 640 400 640 400 623.5 417.5 c 128,-1,31
 607 435 607 435 578 435 c 0,32,33
 563 435 563 435 546.5 429 c 128,-1,34
 530 423 530 423 514.5 413.5 c 128,-1,35
 499 404 499 404 485 392.5 c 128,-1,36
 471 381 471 381 462 370 c 1,37,-1
 462 363 l 2,38,39
 462 357 462 357 460.5 344 c 128,-1,40
 459 331 459 331 453 294 c 128,-1,41
 447 257 447 257 435 188 c 128,-1,42
 423 119 423 119 402 0 c 1,43,-1
 312 0 l 1,44,45
 326 80 326 80 335.5 137 c 128,-1,46
 345 194 345 194 351.5 232.5 c 128,-1,47
 358 271 358 271 362 294 c 128,-1,48
 366 317 366 317 367.5 330 c 128,-1,49
 369 343 369 343 369.5 348.5 c 128,-1,50
 370 354 370 354 370 358 c 0,51,52
 370 400 370 400 353.5 417.5 c 128,-1,53
 337 435 337 435 308 435 c 0,54,55
 278 435 278 435 250 419 c 128,-1,56
 222 403 222 403 199 382 c 1,57,-1
 132 0 l 1,58,-1
 42 0 l 1,59,60
 58 92 58 92 69 156 c 128,-1,61
 80 220 80 220 87.5 262.5 c 128,-1,62
 95 305 95 305 99 330 c 128,-1,63
 103 355 103 355 105 368.5 c 128,-1,64
 107 382 107 382 107.5 387 c 128,-1,65
 108 392 108 392 108 395 c 0,66,67
 108 421 108 421 95.5 435.5 c 128,-1,68
 83 450 83 450 51 450 c 2,69,-1
 31 450 l 1,70,-1
 34 470 l 1,71,-1
 124 470 l 2,72,73
 162 470 162 470 180 459.5 c 128,-1,74
 198 449 198 449 202 430 c 1,75,-1
 207 430 l 1,0,1
EndSplineSet
EndChar

StartChar: n
Encoding: 110 110 97
Width: 549
Flags: W
LayerCount: 2
Fore
SplineSet
42 0 m 1,0,1
 58 92 58 92 69 156 c 128,-1,2
 80 220 80 220 87.5 262.5 c 128,-1,3
 95 305 95 305 99 330 c 128,-1,4
 103 355 103 355 105 368.5 c 128,-1,5
 107 382 107 382 107.5 387 c 128,-1,6
 108 392 108 392 108 395 c 0,7,8
 108 421 108 421 95.5 435.5 c 128,-1,9
 83 450 83 450 51 450 c 2,10,-1
 31 450 l 1,11,-1
 34 470 l 1,12,-1
 124 470 l 2,13,14
 162 470 162 470 180 459.5 c 128,-1,15
 198 449 198 449 202 430 c 1,16,-1
 207 430 l 1,17,18
 230 449 230 449 265.5 464.5 c 128,-1,19
 301 480 301 480 346 480 c 0,20,21
 374 480 374 480 399.5 474.5 c 128,-1,22
 425 469 425 469 445 454.5 c 128,-1,23
 465 440 465 440 477 415 c 128,-1,24
 489 390 489 390 489 352 c 0,25,26
 489 348 489 348 488.5 342.5 c 128,-1,27
 488 337 488 337 486.5 324.5 c 128,-1,28
 485 312 485 312 481.5 290 c 128,-1,29
 478 268 478 268 471.5 230 c 128,-1,30
 465 192 465 192 455.5 136 c 128,-1,31
 446 80 446 80 432 0 c 1,32,-1
 342 0 l 1,33,34
 356 78 356 78 365.5 133 c 128,-1,35
 375 188 375 188 381 224.5 c 128,-1,36
 387 261 387 261 390.5 282.5 c 128,-1,37
 394 304 394 304 395.5 315.5 c 128,-1,38
 397 327 397 327 397.5 331.5 c 128,-1,39
 398 336 398 336 398 339 c 0,40,41
 398 365 398 365 390.5 383.5 c 128,-1,42
 383 402 383 402 370.5 413.5 c 128,-1,43
 358 425 358 425 342 430 c 128,-1,44
 326 435 326 435 308 435 c 0,45,46
 278 435 278 435 250 419 c 128,-1,47
 222 403 222 403 199 382 c 1,48,-1
 132 0 l 1,49,-1
 42 0 l 1,50,-1
 42 0 l 1,0,1
EndSplineSet
EndChar

StartChar: o
Encoding: 111 111 98
Width: 529
Flags: W
LayerCount: 2
Fore
SplineSet
221 30 m 0,0,1
 263 30 263 30 294.5 58.5 c 128,-1,2
 326 87 326 87 346.5 128 c 128,-1,3
 367 169 367 169 377.5 215 c 128,-1,4
 388 261 388 261 388 297 c 0,5,6
 388 360 388 360 363.5 400 c 128,-1,7
 339 440 339 440 293 440 c 0,8,9
 251 440 251 440 219.5 411.5 c 128,-1,10
 188 383 188 383 167.5 342 c 128,-1,11
 147 301 147 301 136.5 255 c 128,-1,12
 126 209 126 209 126 173 c 0,13,14
 126 110 126 110 150.5 70 c 128,-1,15
 175 30 175 30 221 30 c 0,0,1
32 179 m 0,16,17
 32 232 32 232 50.5 286 c 128,-1,18
 69 340 69 340 104 383 c 128,-1,19
 139 426 139 426 188.5 453 c 128,-1,20
 238 480 238 480 300 480 c 0,21,22
 345 480 345 480 379 465.5 c 128,-1,23
 413 451 413 451 436 426 c 128,-1,24
 459 401 459 401 470.5 366 c 128,-1,25
 482 331 482 331 482 291 c 0,26,27
 482 238 482 238 463.5 184 c 128,-1,28
 445 130 445 130 410 87 c 128,-1,29
 375 44 375 44 325.5 17 c 128,-1,30
 276 -10 276 -10 214 -10 c 0,31,32
 169 -10 169 -10 135 4.5 c 128,-1,33
 101 19 101 19 78 44 c 128,-1,34
 55 69 55 69 43.5 103.5 c 128,-1,35
 32 138 32 138 32 179 c 0,16,17
EndSplineSet
EndChar

StartChar: p
Encoding: 112 112 99
Width: 543
Flags: W
LayerCount: 2
Fore
SplineSet
142 60 m 1,0,1
 162 49 162 49 185.5 39.5 c 128,-1,2
 209 30 209 30 232 30 c 0,3,4
 279 30 279 30 311.5 59.5 c 128,-1,5
 344 89 344 89 363.5 132 c 128,-1,6
 383 175 383 175 391.5 224.5 c 128,-1,7
 400 274 400 274 400 313 c 0,8,9
 400 370 400 370 380 405 c 128,-1,10
 360 440 360 440 314 440 c 0,11,12
 272 440 272 440 245 421.5 c 128,-1,13
 218 403 218 403 199 380 c 1,14,-1
 142 60 l 1,0,1
8 -190 m 1,15,16
 32 -51 32 -51 49 45.5 c 128,-1,17
 66 142 66 142 77.5 206 c 128,-1,18
 89 270 89 270 95 306.5 c 128,-1,19
 101 343 101 343 104 361.5 c 128,-1,20
 107 380 107 380 107.5 386 c 128,-1,21
 108 392 108 392 108 395 c 0,22,23
 108 421 108 421 95.5 435.5 c 128,-1,24
 83 450 83 450 51 450 c 2,25,-1
 31 450 l 1,26,-1
 34 470 l 1,27,-1
 124 470 l 2,28,29
 162 470 162 470 180 459 c 128,-1,30
 198 448 198 448 201 425 c 1,31,-1
 206 425 l 1,32,33
 225 444 225 444 259.5 462 c 128,-1,34
 294 480 294 480 351 480 c 0,35,36
 388 480 388 480 415 467 c 128,-1,37
 442 454 442 454 460 430.5 c 128,-1,38
 478 407 478 407 486.5 375 c 128,-1,39
 495 343 495 343 495 305 c 0,40,41
 495 255 495 255 480.5 200 c 128,-1,42
 466 145 466 145 436.5 98 c 128,-1,43
 407 51 407 51 362 20.5 c 128,-1,44
 317 -10 317 -10 255 -10 c 0,45,46
 213 -10 213 -10 184 -0.5 c 128,-1,47
 155 9 155 9 135 20 c 1,48,-1
 98 -190 l 1,49,-1
 8 -190 l 1,15,16
EndSplineSet
EndChar

StartChar: q
Encoding: 113 113 100
Width: 524
Flags: W
LayerCount: 2
Fore
SplineSet
380 380 m 1,0,1
 369 402 369 402 347.5 421 c 128,-1,2
 326 440 326 440 285 440 c 0,3,4
 256 440 256 440 233 426 c 128,-1,5
 210 412 210 412 192.5 389 c 128,-1,6
 175 366 175 366 162.5 336 c 128,-1,7
 150 306 150 306 142 275 c 128,-1,8
 134 244 134 244 130.5 213.5 c 128,-1,9
 127 183 127 183 127 159 c 0,10,11
 127 102 127 102 149 66 c 128,-1,12
 171 30 171 30 223 30 c 0,13,14
 246 30 246 30 272 39.5 c 128,-1,15
 298 49 298 49 323 60 c 1,16,-1
 380 380 l 1,0,1
316 20 m 1,17,18
 291 9 291 9 259.5 -0.5 c 128,-1,19
 228 -10 228 -10 186 -10 c 0,20,21
 146 -10 146 -10 117 3 c 128,-1,22
 88 16 88 16 69 39.5 c 128,-1,23
 50 63 50 63 41 95 c 128,-1,24
 32 127 32 127 32 165 c 0,25,26
 32 211 32 211 46 266.5 c 128,-1,27
 60 322 60 322 88.5 369 c 128,-1,28
 117 416 117 416 160 448 c 128,-1,29
 203 480 203 480 262 480 c 0,30,31
 318 480 318 480 347 462 c 128,-1,32
 376 444 376 444 387 425 c 1,33,-1
 392 425 l 1,34,-1
 435 470 l 1,35,-1
 485 470 l 1,36,-1
 369 -190 l 1,37,-1
 279 -190 l 1,38,-1
 316 20 l 1,17,18
EndSplineSet
EndChar

StartChar: r
Encoding: 114 114 101
Width: 403
Flags: W
LayerCount: 2
Fore
SplineSet
36 0 m 1,0,1
 52 92 52 92 63 156 c 128,-1,2
 74 220 74 220 81.5 262.5 c 128,-1,3
 89 305 89 305 93 330 c 128,-1,4
 97 355 97 355 99 368.5 c 128,-1,5
 101 382 101 382 101.5 387 c 128,-1,6
 102 392 102 392 102 395 c 0,7,8
 102 421 102 421 89.5 435.5 c 128,-1,9
 77 450 77 450 45 450 c 2,10,-1
 35 450 l 1,11,-1
 38 470 l 1,12,-1
 118 470 l 2,13,14
 156 470 156 470 174 459 c 128,-1,15
 192 448 192 448 195 425 c 1,16,-1
 200 425 l 1,17,18
 219 444 219 444 252 462 c 128,-1,19
 285 480 285 480 330 480 c 0,20,21
 345 480 345 480 361 476.5 c 128,-1,22
 377 473 377 473 387 465 c 0,23,24
 398 457 398 457 404 446 c 128,-1,25
 410 435 410 435 415 420 c 1,26,-1
 369 390 l 1,27,28
 361 405 361 405 341 412.5 c 128,-1,29
 321 420 321 420 295 420 c 0,30,31
 265 420 265 420 237.5 406.5 c 128,-1,32
 210 393 210 393 191 370 c 1,33,-1
 126 0 l 1,34,-1
 36 0 l 1,35,-1
 36 0 l 1,0,1
EndSplineSet
EndChar

StartChar: s
Encoding: 115 115 102
Width: 449
Flags: W
LayerCount: 2
Fore
SplineSet
380 144 m 0,0,1
 380 106 380 106 362.5 77.5 c 128,-1,2
 345 49 345 49 316.5 29.5 c 128,-1,3
 288 10 288 10 252.5 0 c 128,-1,4
 217 -10 217 -10 180 -10 c 0,5,6
 159 -10 159 -10 131 -8 c 128,-1,7
 103 -6 103 -6 77.5 2 c 128,-1,8
 52 10 52 10 34.5 27.5 c 128,-1,9
 17 45 17 45 17 75 c 0,10,11
 17 88 17 88 19.5 102.5 c 128,-1,12
 22 117 22 117 25 135 c 1,13,-1
 45 135 l 1,14,-1
 45 133 l 2,15,16
 45 85 45 85 74.5 57.5 c 128,-1,17
 104 30 104 30 167 30 c 0,18,19
 185 30 185 30 206 34 c 128,-1,20
 227 38 227 38 246 47.5 c 128,-1,21
 265 57 265 57 277.5 73 c 128,-1,22
 290 89 290 89 290 113 c 0,23,24
 290 138 290 138 271.5 155.5 c 128,-1,25
 253 173 253 173 215 190 c 2,26,-1
 159 215 l 2,27,28
 113 235 113 235 87 262.5 c 128,-1,29
 61 290 61 290 61 329 c 0,30,31
 61 365 61 365 77.5 393 c 128,-1,32
 94 421 94 421 121 440.5 c 128,-1,33
 148 460 148 460 182 470 c 128,-1,34
 216 480 216 480 251 480 c 0,35,36
 271 480 271 480 298 478 c 128,-1,37
 325 476 325 476 349.5 467.5 c 128,-1,38
 374 459 374 459 391 442.5 c 128,-1,39
 408 426 408 426 408 397 c 0,40,41
 408 382 408 382 405.5 366.5 c 128,-1,42
 403 351 403 351 401 335 c 1,43,-1
 381 335 l 1,44,-1
 381 337 l 2,45,46
 381 385 381 385 352.5 412.5 c 128,-1,47
 324 440 324 440 264 440 c 0,48,49
 247 440 247 440 227.5 436 c 128,-1,50
 208 432 208 432 191 422.5 c 128,-1,51
 174 413 174 413 162.5 397.5 c 128,-1,52
 151 382 151 382 151 360 c 0,53,54
 151 337 151 337 168 318 c 128,-1,55
 185 299 185 299 217 285 c 2,56,-1
 272 260 l 2,57,58
 324 237 324 237 352 211 c 128,-1,59
 380 185 380 185 380 144 c 0,0,1
EndSplineSet
EndChar

StartChar: t
Encoding: 116 116 103
Width: 336
Flags: W
LayerCount: 2
Fore
SplineSet
46 430 m 1,0,-1
 53 470 l 1,1,-1
 123 470 l 1,2,-1
 139 560 l 1,3,-1
 200 620 l 1,4,-1
 240 620 l 1,5,-1
 213 470 l 1,6,-1
 333 470 l 1,7,-1
 326 430 l 1,8,-1
 206 430 l 1,9,10
 192 350 192 350 182.5 294 c 128,-1,11
 173 238 173 238 166.5 201 c 128,-1,12
 160 164 160 164 156.5 143 c 128,-1,13
 153 122 153 122 151.5 111 c 128,-1,14
 150 100 150 100 149.5 96 c 128,-1,15
 149 92 149 92 149 90 c 0,16,17
 149 30 149 30 206 30 c 0,18,19
 232 30 232 30 250 36 c 128,-1,20
 268 42 268 42 284 50 c 1,21,-1
 291 30 l 1,22,23
 274 19 274 19 243 4.5 c 128,-1,24
 212 -10 212 -10 159 -10 c 0,25,26
 114 -10 114 -10 86.5 13 c 128,-1,27
 59 36 59 36 59 85 c 0,28,29
 59 89 59 89 60 98 c 128,-1,30
 61 107 61 107 66.5 140.5 c 128,-1,31
 72 174 72 174 83.5 241.5 c 128,-1,32
 95 309 95 309 116 430 c 1,33,-1
 46 430 l 1,0,-1
EndSplineSet
EndChar

StartChar: u
Encoding: 117 117 104
Width: 537
Flags: W
LayerCount: 2
Fore
SplineSet
416 0 m 1,0,-1
 366 0 l 1,1,-1
 338 40 l 1,2,-1
 333 40 l 1,3,4
 310 21 310 21 274.5 5.5 c 128,-1,5
 239 -10 239 -10 194 -10 c 0,6,7
 166 -10 166 -10 140 -4 c 128,-1,8
 114 2 114 2 94 16.5 c 128,-1,9
 74 31 74 31 62 56 c 128,-1,10
 50 81 50 81 50 120 c 0,11,12
 50 126 50 126 51 134.5 c 128,-1,13
 52 143 52 143 55.5 166 c 128,-1,14
 59 189 59 189 66.5 232 c 128,-1,15
 74 275 74 275 87 350 c 0,16,17
 92 378 92 378 92 395 c 0,18,19
 92 421 92 421 79.5 435.5 c 128,-1,20
 67 450 67 450 35 450 c 2,21,-1
 25 450 l 1,22,-1
 28 470 l 1,23,-1
 108 470 l 2,24,25
 148 470 148 470 166 458 c 128,-1,26
 184 446 184 446 184 409 c 0,27,28
 184 397 184 397 182 382.5 c 128,-1,29
 180 368 180 368 177 350 c 0,30,31
 164 277 164 277 157 235.5 c 128,-1,32
 150 194 150 194 146.5 172.5 c 128,-1,33
 143 151 143 151 142.5 143.5 c 128,-1,34
 142 136 142 136 142 132 c 0,35,36
 142 105 142 105 149.5 86.5 c 128,-1,37
 157 68 157 68 169.5 56.5 c 128,-1,38
 182 45 182 45 198 40 c 128,-1,39
 214 35 214 35 232 35 c 0,40,41
 262 35 262 35 290 51 c 128,-1,42
 318 67 318 67 341 88 c 1,43,-1
 408 470 l 1,44,-1
 498 470 l 1,45,-1
 416 0 l 1,0,-1
EndSplineSet
EndChar

StartChar: v
Encoding: 118 118 105
Width: 498
Flags: W
LayerCount: 2
Fore
SplineSet
262 140 m 1,0,-1
 460 470 l 1,1,-1
 510 470 l 1,2,-1
 221 -10 l 1,3,-1
 201 -10 l 1,4,-1
 110 355 l 2,5,6
 103 383 103 383 95.5 402 c 128,-1,7
 88 421 88 421 78 433 c 128,-1,8
 68 445 68 445 55 451 c 128,-1,9
 42 457 42 457 24 458 c 1,10,-1
 28 478 l 1,11,12
 32 478 32 478 43.5 479 c 128,-1,13
 55 480 55 480 62 480 c 0,14,15
 84 480 84 480 106.5 475 c 128,-1,16
 129 470 129 470 148.5 456.5 c 128,-1,17
 168 443 168 443 184 418.5 c 128,-1,18
 200 394 200 394 210 355 c 2,19,-1
 262 140 l 1,0,-1
EndSplineSet
EndChar

StartChar: w
Encoding: 119 119 106
Width: 749
Flags: W
LayerCount: 2
Fore
SplineSet
523 145 m 1,0,-1
 710 470 l 1,1,-1
 760 470 l 1,2,-1
 481 -10 l 1,3,-1
 461 -10 l 1,4,-1
 390 300 l 1,5,-1
 211 -10 l 1,6,-1
 191 -10 l 1,7,-1
 110 355 l 2,8,9
 97 411 97 411 78.5 433.5 c 128,-1,10
 60 456 60 456 23 458 c 1,11,-1
 27 478 l 1,12,13
 31 478 31 478 43 479 c 128,-1,14
 55 480 55 480 62 480 c 0,15,16
 86 480 86 480 108.5 474.5 c 128,-1,17
 131 469 131 469 149.5 455 c 128,-1,18
 168 441 168 441 182.5 416.5 c 128,-1,19
 197 392 197 392 205 355 c 2,20,-1
 253 145 l 1,21,-1
 376 360 l 1,22,23
 362 412 362 412 344.5 434 c 128,-1,24
 327 456 327 456 293 458 c 1,25,-1
 297 478 l 1,26,27
 301 478 301 478 313 479 c 128,-1,28
 325 480 325 480 332 480 c 0,29,30
 356 480 356 480 378.5 474.5 c 128,-1,31
 401 469 401 469 419.5 455 c 128,-1,32
 438 441 438 441 452.5 416.5 c 128,-1,33
 467 392 467 392 475 355 c 2,34,-1
 523 145 l 1,0,-1
EndSplineSet
EndChar

StartChar: x
Encoding: 120 120 107
Width: 490
Flags: W
LayerCount: 2
Fore
SplineSet
202 185 m 1,0,-1
 40 0 l 1,1,-1
 -10 0 l 1,2,-1
 189 225 l 1,3,-1
 128 370 l 2,4,5
 98 442 98 442 39 450 c 1,6,-1
 42 470 l 1,7,-1
 127 470 l 2,8,9
 161 470 161 470 186 448.5 c 128,-1,10
 211 427 211 427 226 390 c 2,11,-1
 270 285 l 1,12,-1
 432 470 l 1,13,-1
 482 470 l 1,14,-1
 283 245 l 1,15,-1
 344 100 l 2,16,17
 374 27 374 27 438 20 c 1,18,-1
 435 0 l 1,19,-1
 345 0 l 2,20,21
 311 0 311 0 286 21.5 c 128,-1,22
 261 43 261 43 246 80 c 2,23,-1
 202 185 l 1,0,-1
EndSplineSet
EndChar

StartChar: y
Encoding: 121 121 108
Width: 514
Flags: W
LayerCount: 2
Fore
SplineSet
206 -10 m 1,0,-1
 115 380 l 2,1,2
 106 418 106 418 81 437 c 128,-1,3
 56 456 56 456 19 460 c 1,4,-1
 22 480 l 1,5,-1
 107 480 l 2,6,7
 152 480 152 480 178 459 c 128,-1,8
 204 438 204 438 213 400 c 2,9,-1
 278 123 l 1,10,-1
 465 470 l 1,11,-1
 515 470 l 1,12,-1
 226 -65 l 2,13,14
 204 -106 204 -106 183 -132.5 c 128,-1,15
 162 -159 162 -159 140.5 -174 c 128,-1,16
 119 -189 119 -189 96 -194.5 c 128,-1,17
 73 -200 73 -200 47 -200 c 2,18,-1
 17 -200 l 1,19,-1
 23 -170 l 1,20,21
 45 -170 45 -170 65.5 -165.5 c 128,-1,22
 86 -161 86 -161 104.5 -149.5 c 128,-1,23
 123 -138 123 -138 141 -117.5 c 128,-1,24
 159 -97 159 -97 176 -65 c 2,25,-1
 206 -10 l 1,0,-1
EndSplineSet
EndChar

StartChar: z
Encoding: 122 122 109
Width: 468
Flags: W
LayerCount: 2
Fore
SplineSet
469 470 m 1,0,-1
 124 40 l 1,1,-1
 394 40 l 1,2,-1
 387 0 l 1,3,-1
 -3 0 l 1,4,-1
 0 19 l 1,5,-1
 332 430 l 1,6,-1
 217 430 l 2,7,8
 153 430 153 430 118.5 406 c 128,-1,9
 84 382 84 382 76 340 c 1,10,-1
 56 340 l 1,11,-1
 65 390 l 2,12,13
 68 405 68 405 74 419.5 c 128,-1,14
 80 434 80 434 91 445 c 128,-1,15
 102 456 102 456 120 463 c 128,-1,16
 138 470 138 470 164 470 c 2,17,-1
 469 470 l 1,0,-1
EndSplineSet
EndChar

StartChar: braceleft
Encoding: 123 123 110
Width: 304
Flags: W
LayerCount: 2
Fore
SplineSet
6 255 m 1,0,1
 64 263 64 263 91.5 295.5 c 128,-1,2
 119 328 119 328 127 370 c 2,3,-1
 151 510 l 2,4,5
 163 578 163 578 208.5 622.5 c 128,-1,6
 254 667 254 667 348 690 c 1,7,-1
 343 660 l 1,8,9
 315 652 315 652 297 642.5 c 128,-1,10
 279 633 279 633 267 620 c 128,-1,11
 255 607 255 607 248.5 589.5 c 128,-1,12
 242 572 242 572 238 550 c 2,13,-1
 209 380 l 2,14,15
 198 320 198 320 166 287.5 c 128,-1,16
 134 255 134 255 79 240 c 1,17,18
 121 227 121 227 142 203 c 128,-1,19
 163 179 163 179 163 137 c 0,20,21
 163 107 163 107 157 77 c 128,-1,22
 151 47 151 47 144.5 17 c 128,-1,23
 138 -13 138 -13 132 -43.5 c 128,-1,24
 126 -74 126 -74 126 -105 c 0,25,26
 126 -134 126 -134 140.5 -151 c 128,-1,27
 155 -168 155 -168 195 -180 c 1,28,-1
 189 -210 l 1,29,30
 116 -191 116 -191 84 -156 c 128,-1,31
 52 -121 52 -121 52 -69 c 0,32,33
 52 -44 52 -44 57 -19 c 128,-1,34
 62 6 62 6 68 31 c 128,-1,35
 74 56 74 56 79 82.5 c 128,-1,36
 84 109 84 109 84 137 c 0,37,38
 84 169 84 169 65.5 194 c 128,-1,39
 47 219 47 219 1 225 c 1,40,-1
 6 255 l 1,0,1
EndSplineSet
EndChar

StartChar: bar
Encoding: 124 124 111
Width: 242
Flags: W
LayerCount: 2
Fore
SplineSet
237 680 m 1,0,-1
 84 -190 l 1,1,-1
 -6 -190 l 1,2,-1
 147 680 l 1,3,-1
 237 680 l 1,0,-1
EndSplineSet
EndChar

StartChar: braceright
Encoding: 125 125 112
Width: 304
Flags: W
LayerCount: 2
Fore
SplineSet
284 225 m 1,0,1
 226 217 226 217 199 184.5 c 128,-1,2
 172 152 172 152 164 110 c 2,3,-1
 139 -30 l 2,4,5
 127 -98 127 -98 82 -142.5 c 128,-1,6
 37 -187 37 -187 -57 -210 c 1,7,-1
 -51 -180 l 1,8,9
 -24 -173 -24 -173 -6 -163 c 128,-1,10
 12 -153 12 -153 23.5 -140 c 128,-1,11
 35 -127 35 -127 41.5 -110 c 128,-1,12
 48 -93 48 -93 52 -70 c 2,13,-1
 82 100 l 2,14,15
 93 160 93 160 124.5 192.5 c 128,-1,16
 156 225 156 225 212 240 c 1,17,18
 170 253 170 253 149 276.5 c 128,-1,19
 128 300 128 300 128 342 c 0,20,21
 128 372 128 372 134 402 c 128,-1,22
 140 432 140 432 146.5 462 c 128,-1,23
 153 492 153 492 159 523 c 128,-1,24
 165 554 165 554 165 586 c 0,25,26
 165 614 165 614 149.5 631 c 128,-1,27
 134 648 134 648 96 660 c 1,28,-1
 101 690 l 1,29,30
 174 671 174 671 206 635.5 c 128,-1,31
 238 600 238 600 238 549 c 0,32,33
 238 523 238 523 233 497.5 c 128,-1,34
 228 472 228 472 222.5 446.5 c 128,-1,35
 217 421 217 421 212 395 c 128,-1,36
 207 369 207 369 207 342 c 0,37,38
 207 310 207 310 225.5 285.5 c 128,-1,39
 244 261 244 261 289 255 c 1,40,-1
 284 225 l 1,0,1
EndSplineSet
EndChar

StartChar: asciitilde
Encoding: 126 126 113
Width: 632
Flags: W
LayerCount: 2
Fore
SplineSet
434 180 m 0,0,1
 396 180 396 180 363 192.5 c 128,-1,2
 330 205 330 205 298.5 220 c 128,-1,3
 267 235 267 235 237.5 247.5 c 128,-1,4
 208 260 208 260 178 260 c 0,5,6
 140 260 140 260 115.5 240 c 128,-1,7
 91 220 91 220 86 190 c 1,8,-1
 46 190 l 1,9,10
 53 227 53 227 68 254 c 128,-1,11
 83 281 83 281 103 297.5 c 128,-1,12
 123 314 123 314 145.5 322 c 128,-1,13
 168 330 168 330 191 330 c 0,14,15
 228 330 228 330 261.5 317.5 c 128,-1,16
 295 305 295 305 326.5 290 c 128,-1,17
 358 275 358 275 387.5 262.5 c 128,-1,18
 417 250 417 250 447 250 c 0,19,20
 485 250 485 250 509.5 270 c 128,-1,21
 534 290 534 290 539 320 c 1,22,-1
 579 320 l 1,23,24
 572 282 572 282 557 255.5 c 128,-1,25
 542 229 542 229 522 212.5 c 128,-1,26
 502 196 502 196 479 188 c 128,-1,27
 456 180 456 180 434 180 c 0,0,1
EndSplineSet
EndChar

StartChar: exclamdown
Encoding: 161 161 114
Width: 222
Flags: W
LayerCount: 2
Fore
SplineSet
75 -194 m 1,0,-1
 -19 -194 l 1,1,-1
 88 311 l 1,2,-1
 146 311 l 1,3,-1
 75 -194 l 1,0,-1
128 372 m 0,4,5
 108 372 108 372 95 385 c 128,-1,6
 82 398 82 398 82 417 c 0,7,8
 82 429 82 429 87.5 440 c 128,-1,9
 93 451 93 451 102 460 c 128,-1,10
 111 469 111 469 123 474.5 c 128,-1,11
 135 480 135 480 147 480 c 0,12,13
 167 480 167 480 179.5 467.5 c 128,-1,14
 192 455 192 455 192 435 c 0,15,16
 192 423 192 423 187 412 c 128,-1,17
 182 401 182 401 173 392 c 128,-1,18
 164 383 164 383 152.5 377.5 c 128,-1,19
 141 372 141 372 128 372 c 0,4,5
EndSplineSet
EndChar

StartChar: sterling
Encoding: 163 163 115
Width: 531
Flags: W
LayerCount: 2
Fore
SplineSet
152 460 m 2,0,1
 164 527 164 527 185.5 568.5 c 128,-1,2
 207 610 207 610 235.5 632.5 c 128,-1,3
 264 655 264 655 297 662.5 c 128,-1,4
 330 670 330 670 364 670 c 0,5,6
 384 670 384 670 411.5 668.5 c 128,-1,7
 439 667 439 667 463.5 659 c 128,-1,8
 488 651 488 651 505 635 c 128,-1,9
 522 619 522 619 522 589 c 0,10,11
 522 578 522 578 520.5 567.5 c 128,-1,12
 519 557 519 557 517 545 c 1,13,-1
 472 545 l 1,14,15
 469 594 469 594 444 612 c 128,-1,16
 419 630 419 630 377 630 c 0,17,18
 354 630 354 630 333.5 623 c 128,-1,19
 313 616 313 616 296 597.5 c 128,-1,20
 279 579 279 579 265 545.5 c 128,-1,21
 251 512 251 512 242 460 c 2,22,-1
 224 360 l 1,23,-1
 364 360 l 1,24,-1
 357 320 l 1,25,-1
 217 320 l 1,26,-1
 199 220 l 2,27,28
 187 148 187 148 165 105.5 c 128,-1,29
 143 63 143 63 113 40 c 1,30,-1
 298 40 l 2,31,32
 358 40 358 40 395 67.5 c 128,-1,33
 432 95 432 95 443 155 c 1,34,-1
 463 155 l 1,35,-1
 450 80 l 2,36,37
 447 65 447 65 441 50.5 c 128,-1,38
 435 36 435 36 424 25 c 128,-1,39
 413 14 413 14 395 7 c 128,-1,40
 377 0 377 0 351 0 c 2,41,-1
 -14 0 l 1,42,-1
 -10 25 l 1,43,44
 12 31 12 31 30 43.5 c 128,-1,45
 48 56 48 56 62.5 79 c 128,-1,46
 77 102 77 102 88.5 136.5 c 128,-1,47
 100 171 100 171 109 220 c 2,48,-1
 127 320 l 1,49,-1
 57 320 l 1,50,-1
 64 360 l 1,51,-1
 134 360 l 1,52,-1
 152 460 l 2,0,1
EndSplineSet
EndChar

StartChar: yen
Encoding: 165 165 116
Width: 692
Flags: W
LayerCount: 2
Fore
SplineSet
417 325 m 1,0,-1
 685 660 l 1,1,-1
 730 660 l 1,2,-1
 429 280 l 1,3,-1
 426 265 l 1,4,-1
 521 265 l 1,5,-1
 514 225 l 1,6,-1
 419 225 l 1,7,-1
 412 185 l 1,8,-1
 507 185 l 1,9,-1
 500 145 l 1,10,-1
 405 145 l 1,11,-1
 380 0 l 1,12,-1
 290 0 l 1,13,-1
 315 145 l 1,14,-1
 220 145 l 1,15,-1
 227 185 l 1,16,-1
 322 185 l 1,17,-1
 329 225 l 1,18,-1
 234 225 l 1,19,-1
 241 265 l 1,20,-1
 336 265 l 1,21,-1
 338 273 l 1,22,-1
 213 530 l 2,23,24
 202 552 202 552 190.5 571.5 c 128,-1,25
 179 591 179 591 165 605.5 c 128,-1,26
 151 620 151 620 132 629 c 128,-1,27
 113 638 113 638 87 640 c 1,28,-1
 91 660 l 1,29,-1
 181 660 l 2,30,31
 209 660 209 660 229.5 650.5 c 128,-1,32
 250 641 250 641 265 625.5 c 128,-1,33
 280 610 280 610 291 590.5 c 128,-1,34
 302 571 302 571 311 550 c 2,35,-1
 417 325 l 1,0,-1
EndSplineSet
EndChar

StartChar: section
Encoding: 167 167 117
Width: 433
Flags: W
LayerCount: 2
Fore
SplineSet
314 630 m 0,0,1
 290 630 290 630 269 622.5 c 128,-1,2
 248 615 248 615 231.5 600.5 c 128,-1,3
 215 586 215 586 205.5 565.5 c 128,-1,4
 196 545 196 545 196 519 c 0,5,6
 196 491 196 491 209.5 470 c 128,-1,7
 223 449 223 449 243 432 c 128,-1,8
 263 415 263 415 287 398.5 c 128,-1,9
 311 382 311 382 331 364 c 128,-1,10
 351 346 351 346 364.5 323 c 128,-1,11
 378 300 378 300 378 269 c 0,12,13
 378 208 378 208 340 165 c 128,-1,14
 302 122 302 122 244 100 c 1,15,16
 273 78 273 78 292.5 48.5 c 128,-1,17
 312 19 312 19 312 -22 c 0,18,19
 312 -59 312 -59 297.5 -91.5 c 128,-1,20
 283 -124 283 -124 258.5 -148 c 128,-1,21
 234 -172 234 -172 200 -186 c 128,-1,22
 166 -200 166 -200 127 -200 c 0,23,24
 107 -200 107 -200 83.5 -196.5 c 128,-1,25
 60 -193 60 -193 39 -184 c 128,-1,26
 18 -175 18 -175 4 -158.5 c 128,-1,27
 -10 -142 -10 -142 -10 -116 c 0,28,29
 -10 -103 -10 -103 -7.5 -88.5 c 128,-1,30
 -5 -74 -5 -74 -2 -55 c 1,31,-1
 18 -55 l 1,32,-1
 18 -61 l 2,33,34
 18 -108 18 -108 41 -134 c 128,-1,35
 64 -160 64 -160 104 -160 c 0,36,37
 128 -160 128 -160 149 -152.5 c 128,-1,38
 170 -145 170 -145 186.5 -130.5 c 128,-1,39
 203 -116 203 -116 212.5 -95.5 c 128,-1,40
 222 -75 222 -75 222 -49 c 0,41,42
 222 -21 222 -21 208.5 0 c 128,-1,43
 195 21 195 21 175 38 c 128,-1,44
 155 55 155 55 131 71.5 c 128,-1,45
 107 88 107 88 87 106 c 128,-1,46
 67 124 67 124 53.5 147 c 128,-1,47
 40 170 40 170 40 201 c 0,48,49
 40 261 40 261 78 304 c 128,-1,50
 116 347 116 347 173 370 c 1,51,52
 144 391 144 391 125 421 c 128,-1,53
 106 451 106 451 106 492 c 0,54,55
 106 529 106 529 120.5 561.5 c 128,-1,56
 135 594 135 594 159.5 618 c 128,-1,57
 184 642 184 642 218 656 c 128,-1,58
 252 670 252 670 291 670 c 0,59,60
 310 670 310 670 334 666.5 c 128,-1,61
 358 663 358 663 379 654 c 128,-1,62
 400 645 400 645 414 628.5 c 128,-1,63
 428 612 428 612 428 586 c 0,64,65
 428 573 428 573 425.5 558.5 c 128,-1,66
 423 544 423 544 420 525 c 1,67,-1
 400 525 l 1,68,-1
 400 531 l 2,69,70
 400 578 400 578 377 604 c 128,-1,71
 354 630 354 630 314 630 c 0,0,1
208 347 m 1,72,73
 173 337 173 337 147 309 c 128,-1,74
 121 281 121 281 121 239 c 0,75,76
 121 204 121 204 145.5 176 c 128,-1,77
 170 148 170 148 210 123 c 1,78,79
 246 134 246 134 271.5 162 c 128,-1,80
 297 190 297 190 297 232 c 0,81,82
 297 267 297 267 272.5 294.5 c 128,-1,83
 248 322 248 322 208 347 c 1,72,73
EndSplineSet
EndChar

StartChar: copyright
Encoding: 169 169 118
Width: 789
Flags: W
LayerCount: 2
Fore
SplineSet
466 685 m 0,0,1
 534 685 534 685 589 664 c 128,-1,2
 644 643 644 643 683 605.5 c 128,-1,3
 722 568 722 568 743.5 515 c 128,-1,4
 765 462 765 462 765 399 c 0,5,6
 765 318 765 318 732 241.5 c 128,-1,7
 699 165 699 165 642 105.5 c 128,-1,8
 585 46 585 46 507.5 10.5 c 128,-1,9
 430 -25 430 -25 341 -25 c 0,10,11
 273 -25 273 -25 218 -4 c 128,-1,12
 163 17 163 17 124 54.5 c 128,-1,13
 85 92 85 92 64 145 c 128,-1,14
 43 198 43 198 43 261 c 0,15,16
 43 342 43 342 75.5 418.5 c 128,-1,17
 108 495 108 495 165 554.5 c 128,-1,18
 222 614 222 614 299.5 649.5 c 128,-1,19
 377 685 377 685 466 685 c 0,0,1
348 15 m 0,20,21
 424 15 424 15 492 45 c 128,-1,22
 560 75 560 75 612 126 c 128,-1,23
 664 177 664 177 694.5 246 c 128,-1,24
 725 315 725 315 725 393 c 0,25,26
 725 450 725 450 706.5 496.5 c 128,-1,27
 688 543 688 543 653.5 576 c 128,-1,28
 619 609 619 609 569.5 627 c 128,-1,29
 520 645 520 645 459 645 c 0,30,31
 382 645 382 645 314 615 c 128,-1,32
 246 585 246 585 194.5 533.5 c 128,-1,33
 143 482 143 482 113 412.5 c 128,-1,34
 83 343 83 343 83 265 c 0,35,36
 83 209 83 209 101.5 163 c 128,-1,37
 120 117 120 117 154.5 84 c 128,-1,38
 189 51 189 51 238 33 c 128,-1,39
 287 15 287 15 348 15 c 0,20,21
571 412 m 1,40,41
 570 476 570 476 542 506 c 128,-1,42
 514 536 514 536 460 536 c 0,43,44
 411 536 411 536 374 512.5 c 128,-1,45
 337 489 337 489 312 451.5 c 128,-1,46
 287 414 287 414 274.5 368 c 128,-1,47
 262 322 262 322 262 277 c 0,48,49
 262 248 262 248 269 221.5 c 128,-1,50
 276 195 276 195 291.5 175 c 128,-1,51
 307 155 307 155 331 143.5 c 128,-1,52
 355 132 355 132 389 132 c 0,53,54
 438 132 438 132 477 155 c 128,-1,55
 516 178 516 178 551 223 c 1,56,-1
 562 213 l 1,57,58
 520 152 520 152 471.5 128.5 c 128,-1,59
 423 105 423 105 364 105 c 0,60,61
 324 105 324 105 293.5 118 c 128,-1,62
 263 131 263 131 242 154 c 128,-1,63
 221 177 221 177 210 208.5 c 128,-1,64
 199 240 199 240 199 278 c 0,65,66
 199 324 199 324 217 374.5 c 128,-1,67
 235 425 235 425 267.5 466.5 c 128,-1,68
 300 508 300 508 345.5 535 c 128,-1,69
 391 562 391 562 445 562 c 0,70,71
 464 562 464 562 489.5 558.5 c 128,-1,72
 515 555 515 555 537.5 545.5 c 128,-1,73
 560 536 560 536 576 519.5 c 128,-1,74
 592 503 592 503 592 476 c 0,75,76
 592 462 592 462 590 447 c 128,-1,77
 588 432 588 432 585 415 c 0,78,79
 585 414 585 414 584.5 413.5 c 128,-1,80
 584 413 584 413 584 412 c 1,81,-1
 571 412 l 1,40,41
EndSplineSet
EndChar

StartChar: guillemotleft
Encoding: 171 171 119
Width: 375
Flags: W
LayerCount: 2
Fore
SplineSet
293 370 m 1,0,-1
 333 370 l 1,1,-1
 247 225 l 1,2,-1
 282 80 l 1,3,-1
 242 80 l 1,4,-1
 167 225 l 1,5,-1
 293 370 l 1,0,-1
127 225 m 1,6,-1
 188 30 l 1,7,-1
 148 30 l 1,8,-1
 27 225 l 1,9,-1
 217 420 l 1,10,-1
 257 420 l 1,11,-1
 127 225 l 1,6,-1
EndSplineSet
EndChar

StartChar: logicalnot
Encoding: 172 172 120
Width: 656
Flags: W
LayerCount: 2
Fore
SplineSet
520 230 m 1,0,-1
 60 230 l 1,1,-1
 71 290 l 1,2,-1
 591 290 l 1,3,-1
 562 130 l 1,4,-1
 502 130 l 1,5,-1
 520 230 l 1,0,-1
EndSplineSet
EndChar

StartChar: registered
Encoding: 174 174 121
Width: 789
Flags: W
LayerCount: 2
Fore
SplineSet
466 685 m 0,0,1
 534 685 534 685 589 664 c 128,-1,2
 644 643 644 643 683 605.5 c 128,-1,3
 722 568 722 568 743.5 515 c 128,-1,4
 765 462 765 462 765 399 c 0,5,6
 765 318 765 318 732 241.5 c 128,-1,7
 699 165 699 165 642 105.5 c 128,-1,8
 585 46 585 46 507.5 10.5 c 128,-1,9
 430 -25 430 -25 341 -25 c 0,10,11
 273 -25 273 -25 218 -4 c 128,-1,12
 163 17 163 17 124 54.5 c 128,-1,13
 85 92 85 92 64 145 c 128,-1,14
 43 198 43 198 43 261 c 0,15,16
 43 342 43 342 75.5 418.5 c 128,-1,17
 108 495 108 495 165 554.5 c 128,-1,18
 222 614 222 614 299.5 649.5 c 128,-1,19
 377 685 377 685 466 685 c 0,0,1
348 15 m 0,20,21
 424 15 424 15 492 45 c 128,-1,22
 560 75 560 75 612 126 c 128,-1,23
 664 177 664 177 694.5 246 c 128,-1,24
 725 315 725 315 725 393 c 0,25,26
 725 450 725 450 706.5 496.5 c 128,-1,27
 688 543 688 543 653.5 576 c 128,-1,28
 619 609 619 609 569.5 627 c 128,-1,29
 520 645 520 645 459 645 c 0,30,31
 382 645 382 645 314 615 c 128,-1,32
 246 585 246 585 194.5 533.5 c 128,-1,33
 143 482 143 482 113 412.5 c 128,-1,34
 83 343 83 343 83 265 c 0,35,36
 83 209 83 209 101.5 163 c 128,-1,37
 120 117 120 117 154.5 84 c 128,-1,38
 189 51 189 51 238 33 c 128,-1,39
 287 15 287 15 348 15 c 0,20,21
387 345 m 0,40,41
 407 345 407 345 428 353 c 128,-1,42
 449 361 449 361 466 375.5 c 128,-1,43
 483 390 483 390 494 410 c 128,-1,44
 505 430 505 430 505 454 c 0,45,46
 505 474 505 474 496.5 488.5 c 128,-1,47
 488 503 488 503 475 512 c 128,-1,48
 462 521 462 521 447 525.5 c 128,-1,49
 432 530 432 530 420 530 c 256,50,51
 408 530 408 530 394 527.5 c 128,-1,52
 380 525 380 525 370 523 c 1,53,-1
 340 352 l 1,54,55
 349 350 349 350 362 347.5 c 128,-1,56
 375 345 375 345 387 345 c 0,40,41
382 323 m 1,57,-1
 334 323 l 1,58,-1
 300 125 l 1,59,-1
 242 125 l 1,60,-1
 303 474 l 2,61,62
 306 490 306 490 306 504 c 0,63,64
 306 521 306 521 298.5 530 c 128,-1,65
 291 539 291 539 270 539 c 2,66,-1
 257 539 l 1,67,-1
 259 552 l 1,68,-1
 427 552 l 2,69,70
 446 552 446 552 471 549 c 128,-1,71
 496 546 496 546 518 536 c 128,-1,72
 540 526 540 526 555 507.5 c 128,-1,73
 570 489 570 489 570 458 c 0,74,75
 570 404 570 404 535 370.5 c 128,-1,76
 500 337 500 337 446 327 c 1,77,-1
 498 211 l 2,78,79
 516 171 516 171 531 155.5 c 128,-1,80
 546 140 546 140 570 137 c 1,81,-1
 568 125 l 1,82,83
 563 122 563 122 550.5 120 c 128,-1,84
 538 118 538 118 524 118 c 0,85,86
 508 118 508 118 495.5 122.5 c 128,-1,87
 483 127 483 127 472.5 138 c 128,-1,88
 462 149 462 149 451.5 167 c 128,-1,89
 441 185 441 185 430 211 c 2,90,-1
 382 323 l 1,57,-1
EndSplineSet
EndChar

StartChar: questiondown
Encoding: 191 191 122
Width: 476
Flags: W
LayerCount: 2
Fore
SplineSet
277 372 m 0,0,1
 257 372 257 372 244 384 c 128,-1,2
 231 396 231 396 231 416 c 0,3,4
 231 442 231 442 250.5 461.5 c 128,-1,5
 270 481 270 481 296 481 c 0,6,7
 317 481 317 481 329.5 468 c 128,-1,8
 342 455 342 455 342 436 c 0,9,10
 342 410 342 410 322 391 c 128,-1,11
 302 372 302 372 277 372 c 0,0,1
287 312 m 1,12,13
 278 271 278 271 258.5 239 c 128,-1,14
 239 207 239 207 215 179.5 c 128,-1,15
 191 152 191 152 166 126.5 c 128,-1,16
 141 101 141 101 120.5 73 c 128,-1,17
 100 45 100 45 87 13 c 128,-1,18
 74 -19 74 -19 74 -60 c 0,19,20
 74 -116 74 -116 105 -144 c 128,-1,21
 136 -172 136 -172 181 -172 c 0,22,23
 241 -172 241 -172 294.5 -128.5 c 128,-1,24
 348 -85 348 -85 377 -2 c 1,25,-1
 397 -2 l 1,26,27
 397 -15 397 -15 393.5 -33 c 128,-1,28
 390 -51 390 -51 383.5 -69.5 c 128,-1,29
 377 -88 377 -88 368 -105 c 128,-1,30
 359 -122 359 -122 349 -132 c 0,31,32
 332 -149 332 -149 309.5 -163.5 c 128,-1,33
 287 -178 287 -178 260 -188.5 c 128,-1,34
 233 -199 233 -199 203.5 -205.5 c 128,-1,35
 174 -212 174 -212 144 -212 c 0,36,37
 117 -212 117 -212 87 -206.5 c 128,-1,38
 57 -201 57 -201 31.5 -185 c 128,-1,39
 6 -169 6 -169 -10.5 -141.5 c 128,-1,40
 -27 -114 -27 -114 -27 -69 c 0,41,42
 -27 -17 -27 -17 -10.5 20.5 c 128,-1,43
 6 58 6 58 32 86.5 c 128,-1,44
 58 115 58 115 90 139 c 128,-1,45
 122 163 122 163 152 188 c 128,-1,46
 182 213 182 213 207.5 242 c 128,-1,47
 233 271 233 271 247 312 c 1,48,-1
 287 312 l 1,12,13
EndSplineSet
EndChar

StartChar: OE
Encoding: 338 338 123
Width: 945
Flags: W
LayerCount: 2
Fore
SplineSet
48 251 m 0,0,1
 48 326 48 326 74.5 402 c 128,-1,2
 101 478 101 478 150 540 c 128,-1,3
 199 602 199 602 269 641 c 128,-1,4
 339 680 339 680 426 680 c 0,5,6
 456 680 456 680 482.5 675.5 c 128,-1,7
 509 671 509 671 533 660 c 1,8,-1
 864 660 l 2,9,10
 907 660 907 660 922 643 c 128,-1,11
 937 626 937 626 937 602 c 0,12,13
 937 599 937 599 936.5 595 c 128,-1,14
 936 591 936 591 934.5 581.5 c 128,-1,15
 933 572 933 572 930 554 c 128,-1,16
 927 536 927 536 922 505 c 1,17,-1
 902 505 l 1,18,19
 905 521 905 521 905 535 c 0,20,21
 905 580 905 580 877 600 c 128,-1,22
 849 620 849 620 797 620 c 2,23,-1
 611 620 l 1,24,-1
 565 360 l 1,25,-1
 835 360 l 1,26,-1
 828 320 l 1,27,-1
 558 320 l 1,28,-1
 509 40 l 1,29,-1
 684 40 l 2,30,31
 752 40 752 40 796 65 c 128,-1,32
 840 90 840 90 873 150 c 1,33,-1
 892 145 l 1,34,-1
 840 50 l 2,35,36
 828 27 828 27 807.5 13.5 c 128,-1,37
 787 0 787 0 757 0 c 2,38,-1
 417 0 l 1,39,40
 388 -11 388 -11 360.5 -15.5 c 128,-1,41
 333 -20 333 -20 303 -20 c 0,42,43
 241 -20 241 -20 193.5 0.5 c 128,-1,44
 146 21 146 21 114 57 c 128,-1,45
 82 93 82 93 65 142.5 c 128,-1,46
 48 192 48 192 48 251 c 0,0,1
310 20 m 0,47,48
 372 20 372 20 421 52 c 1,49,-1
 519 610 l 1,50,51
 480 640 480 640 419 640 c 0,52,53
 371 640 371 640 332 621 c 128,-1,54
 293 602 293 602 263 570.5 c 128,-1,55
 233 539 233 539 210.5 497 c 128,-1,56
 188 455 188 455 174 409.5 c 128,-1,57
 160 364 160 364 153 318 c 128,-1,58
 146 272 146 272 146 231 c 0,59,60
 146 131 146 131 188 75.5 c 128,-1,61
 230 20 230 20 310 20 c 0,47,48
EndSplineSet
EndChar

StartChar: Ydieresis
Encoding: 376 376 124
Width: 629
Flags: W
LayerCount: 2
Fore
SplineSet
365 325 m 1,0,-1
 633 660 l 1,1,-1
 678 660 l 1,2,-1
 377 280 l 1,3,-1
 328 0 l 1,4,-1
 238 0 l 1,5,-1
 286 273 l 1,6,-1
 161 530 l 2,7,8
 150 552 150 552 138.5 571.5 c 128,-1,9
 127 591 127 591 113 605.5 c 128,-1,10
 99 620 99 620 80 629 c 128,-1,11
 61 638 61 638 35 640 c 1,12,-1
 39 660 l 1,13,-1
 129 660 l 2,14,15
 157 660 157 660 177.5 650.5 c 128,-1,16
 198 641 198 641 213 625.5 c 128,-1,17
 228 610 228 610 239 590.5 c 128,-1,18
 250 571 250 571 259 550 c 2,19,-1
 365 325 l 1,0,-1
564 750 m 0,20,21
 564 727 564 727 547 708.5 c 128,-1,22
 530 690 530 690 504 690 c 0,23,24
 484 690 484 690 473 701 c 128,-1,25
 462 712 462 712 462 730 c 0,26,27
 462 753 462 753 479 771.5 c 128,-1,28
 496 790 496 790 522 790 c 0,29,30
 542 790 542 790 553 779 c 128,-1,31
 564 768 564 768 564 750 c 0,20,21
394 750 m 0,32,33
 394 727 394 727 377 708.5 c 128,-1,34
 360 690 360 690 334 690 c 0,35,36
 314 690 314 690 303 701 c 128,-1,37
 292 712 292 712 292 730 c 0,38,39
 292 753 292 753 309 771.5 c 128,-1,40
 326 790 326 790 352 790 c 0,41,42
 372 790 372 790 383 779 c 128,-1,43
 394 768 394 768 394 750 c 0,32,33
EndSplineSet
EndChar

StartChar: oe
Encoding: 339 339 125
Width: 787
Flags: W
LayerCount: 2
Fore
SplineSet
585 480 m 0,0,1
 632 480 632 480 664 471 c 128,-1,2
 696 462 696 462 715.5 447 c 128,-1,3
 735 432 735 432 743.5 411 c 128,-1,4
 752 390 752 390 752 366 c 0,5,6
 752 325 752 325 734.5 295.5 c 128,-1,7
 717 266 717 266 687.5 247 c 128,-1,8
 658 228 658 228 620 219 c 128,-1,9
 582 210 582 210 541 210 c 2,10,-1
 437 210 l 1,11,12
 434 189 434 189 434 165 c 0,13,14
 434 104 434 104 461 67 c 128,-1,15
 488 30 488 30 541 30 c 0,16,17
 590 30 590 30 626 51 c 128,-1,18
 662 72 662 72 695 110 c 1,19,-1
 712 95 l 1,20,21
 668 38 668 38 619.5 14 c 128,-1,22
 571 -10 571 -10 514 -10 c 0,23,24
 465 -10 465 -10 430.5 7 c 128,-1,25
 396 24 396 24 374 50 c 1,26,27
 343 24 343 24 303 7 c 128,-1,28
 263 -10 263 -10 214 -10 c 0,29,30
 169 -10 169 -10 135 4.5 c 128,-1,31
 101 19 101 19 78 44 c 128,-1,32
 55 69 55 69 43.5 103.5 c 128,-1,33
 32 138 32 138 32 179 c 0,34,35
 32 232 32 232 50.5 286 c 128,-1,36
 69 340 69 340 104 383 c 128,-1,37
 139 426 139 426 188.5 453 c 128,-1,38
 238 480 238 480 300 480 c 0,39,40
 397 480 397 480 441 421 c 1,41,42
 470 449 470 449 506 464.5 c 128,-1,43
 542 480 542 480 585 480 c 0,0,1
221 30 m 0,44,45
 259 30 259 30 290 55 c 128,-1,46
 321 80 321 80 348 125 c 1,47,48
 346 136 346 136 344 149.5 c 128,-1,49
 342 163 342 163 342 180 c 0,50,51
 342 223 342 223 353.5 264.5 c 128,-1,52
 365 306 365 306 386 345 c 1,53,54
 378 387 378 387 354.5 413.5 c 128,-1,55
 331 440 331 440 293 440 c 0,56,57
 251 440 251 440 219.5 411.5 c 128,-1,58
 188 383 188 383 167.5 342 c 128,-1,59
 147 301 147 301 136.5 255 c 128,-1,60
 126 209 126 209 126 173 c 0,61,62
 126 110 126 110 150.5 70 c 128,-1,63
 175 30 175 30 221 30 c 0,44,45
444 250 m 1,64,-1
 543 250 l 2,65,66
 591 250 591 250 624 280 c 128,-1,67
 657 310 657 310 657 364 c 0,68,69
 657 399 657 399 640.5 417 c 128,-1,70
 624 435 624 435 587 435 c 0,71,72
 564 435 564 435 542 421.5 c 128,-1,73
 520 408 520 408 501 385 c 128,-1,74
 482 362 482 362 467.5 329.5 c 128,-1,75
 453 297 453 297 446 260 c 2,76,-1
 444 250 l 1,64,-1
EndSplineSet
EndChar

StartChar: ordmasculine
Encoding: 186 186 126
Width: 336
Flags: W
LayerCount: 2
Fore
SplineSet
235 667 m 0,0,1
 214 667 214 667 197 647 c 128,-1,2
 180 627 180 627 167.5 597 c 128,-1,3
 155 567 155 567 148 530.5 c 128,-1,4
 141 494 141 494 141 461 c 0,5,6
 141 389 141 389 186 389 c 0,7,8
 207 389 207 389 225 408.5 c 128,-1,9
 243 428 243 428 255.5 458 c 128,-1,10
 268 488 268 488 275 524.5 c 128,-1,11
 282 561 282 561 282 594 c 0,12,13
 282 667 282 667 235 667 c 0,0,1
239 689 m 0,14,15
 287 689 287 689 309.5 660.5 c 128,-1,16
 332 632 332 632 332 581 c 0,17,18
 332 541 332 541 322 502.5 c 128,-1,19
 312 464 312 464 293 434 c 128,-1,20
 274 404 274 404 246 385.5 c 128,-1,21
 218 367 218 367 182 367 c 0,22,23
 134 367 134 367 112.5 395.5 c 128,-1,24
 91 424 91 424 91 474 c 0,25,26
 91 514 91 514 100.5 552.5 c 128,-1,27
 110 591 110 591 129 621.5 c 128,-1,28
 148 652 148 652 175.5 670.5 c 128,-1,29
 203 689 203 689 239 689 c 0,14,15
EndSplineSet
EndChar

StartChar: mu
Encoding: 181 181 127
Width: 531
Flags: W
LayerCount: 2
Fore
SplineSet
-8 -190 m 1,0,-1
 108 470 l 1,1,-1
 198 470 l 1,2,-1
 157 235 l 2,3,4
 153 214 153 214 151.5 194.5 c 128,-1,5
 150 175 150 175 150 157 c 0,6,7
 150 100 150 100 170 65 c 128,-1,8
 190 30 190 30 236 30 c 0,9,10
 278 30 278 30 305 48.5 c 128,-1,11
 332 67 332 67 351 90 c 1,12,-1
 418 470 l 1,13,-1
 508 470 l 1,14,-1
 426 0 l 1,15,-1
 376 0 l 1,16,-1
 348 45 l 1,17,-1
 343 45 l 1,18,19
 325 26 325 26 296.5 8 c 128,-1,20
 268 -10 268 -10 219 -10 c 0,21,22
 158 -10 158 -10 122 35 c 1,23,-1
 82 -190 l 1,24,-1
 -8 -190 l 1,0,-1
EndSplineSet
EndChar

StartChar: ordfeminine
Encoding: 170 170 128
Width: 321
Flags: W
LayerCount: 2
Fore
SplineSet
248 525 m 1,0,-1
 232 525 l 2,1,2
 217 525 217 525 200 521 c 128,-1,3
 183 517 183 517 168.5 508.5 c 128,-1,4
 154 500 154 500 144.5 486.5 c 128,-1,5
 135 473 135 473 135 453 c 0,6,7
 135 435 135 435 145.5 426.5 c 128,-1,8
 156 418 156 418 173 418 c 0,9,10
 193 418 193 418 209 429.5 c 128,-1,11
 225 441 225 441 235 453 c 1,12,-1
 248 525 l 1,0,-1
248 401 m 1,13,-1
 231 426 l 1,14,15
 220 415 220 415 200 405.5 c 128,-1,16
 180 396 180 396 150 396 c 0,17,18
 140 396 140 396 128 398 c 128,-1,19
 116 400 116 400 106 406 c 128,-1,20
 96 412 96 412 89 423 c 128,-1,21
 82 434 82 434 82 451 c 0,22,23
 82 479 82 479 97 497.5 c 128,-1,24
 112 516 112 516 134.5 527 c 128,-1,25
 157 538 157 538 184 542.5 c 128,-1,26
 211 547 211 547 236 547 c 2,27,-1
 252 547 l 1,28,29
 256 567 256 567 256 586 c 0,30,31
 256 618 256 618 243.5 628 c 128,-1,32
 231 638 231 638 212 638 c 0,33,34
 189 638 189 638 172.5 628.5 c 128,-1,35
 156 619 156 619 145 593 c 1,36,-1
 120 593 l 1,37,38
 122 607 122 607 126 618.5 c 128,-1,39
 130 630 130 630 143 641 c 1,40,41
 154 652 154 652 178 656 c 128,-1,42
 202 660 202 660 226 660 c 0,43,44
 242 660 242 660 256.5 657 c 128,-1,45
 271 654 271 654 282.5 646 c 128,-1,46
 294 638 294 638 301 623 c 128,-1,47
 308 608 308 608 308 584 c 0,48,49
 308 580 308 580 307 573.5 c 128,-1,50
 306 567 306 567 303 548.5 c 128,-1,51
 300 530 300 530 294 495.5 c 128,-1,52
 288 461 288 461 278 401 c 1,53,-1
 248 401 l 1,13,-1
EndSplineSet
EndChar

StartChar: dieresis
Encoding: 168 168 129
Width: 310
Flags: W
LayerCount: 2
Fore
SplineSet
381 750 m 0,0,1
 381 727 381 727 364 708.5 c 128,-1,2
 347 690 347 690 321 690 c 0,3,4
 301 690 301 690 290 701 c 128,-1,5
 279 712 279 712 279 730 c 0,6,7
 279 753 279 753 296 771.5 c 128,-1,8
 313 790 313 790 339 790 c 0,9,10
 359 790 359 790 370 779 c 128,-1,11
 381 768 381 768 381 750 c 0,0,1
211 750 m 0,12,13
 211 727 211 727 194 708.5 c 128,-1,14
 177 690 177 690 151 690 c 0,15,16
 131 690 131 690 120 701 c 128,-1,17
 109 712 109 712 109 730 c 0,18,19
 109 753 109 753 126 771.5 c 128,-1,20
 143 790 143 790 169 790 c 0,21,22
 189 790 189 790 200 779 c 128,-1,23
 211 768 211 768 211 750 c 0,12,13
EndSplineSet
EndChar

StartChar: circumflex
Encoding: 710 710 130
Width: 310
Flags: W
LayerCount: 2
Fore
SplineSet
245 740 m 1,0,-1
 146 660 l 1,1,-1
 96 660 l 1,2,-1
 196 775 l 1,3,-1
 306 775 l 1,4,-1
 366 660 l 1,5,-1
 316 660 l 1,6,-1
 245 740 l 1,0,-1
EndSplineSet
EndChar

StartChar: acute
Encoding: 180 180 131
Width: 175
Flags: W
LayerCount: 2
Fore
SplineSet
143 700 m 1,0,-1
 103 700 l 1,1,-1
 166 830 l 1,2,-1
 261 830 l 1,3,-1
 143 700 l 1,0,-1
EndSplineSet
EndChar

StartChar: cedilla
Encoding: 184 184 132
Width: 180
Flags: W
LayerCount: 2
Fore
SplineSet
50 0 m 1,0,-1
 41 -50 l 1,1,-1
 51 -50 l 2,2,3
 81 -50 81 -50 100 -64.5 c 128,-1,4
 119 -79 119 -79 119 -108 c 0,5,6
 119 -146 119 -146 92 -171 c 128,-1,7
 65 -196 65 -196 25 -196 c 2,8,-1
 -35 -196 l 1,9,-1
 -28 -155 l 1,10,-1
 22 -155 l 2,11,12
 40 -155 40 -155 54.5 -145 c 128,-1,13
 69 -135 69 -135 69 -115 c 0,14,15
 69 -90 69 -90 34 -90 c 2,16,-1
 -11 -90 l 1,17,-1
 5 0 l 1,18,-1
 50 0 l 1,0,-1
EndSplineSet
EndChar

StartChar: tilde
Encoding: 732 732 133
Width: 265
Flags: W
LayerCount: 2
Fore
SplineSet
99 680 m 1,0,1
 109 733 109 733 127.5 754 c 128,-1,2
 146 775 146 775 176 775 c 0,3,4
 192 775 192 775 204 768.5 c 128,-1,5
 216 762 216 762 226.5 754.5 c 128,-1,6
 237 747 237 747 248 741 c 128,-1,7
 259 735 259 735 274 735 c 0,8,9
 280 735 280 735 286 739 c 128,-1,10
 292 743 292 743 297.5 749 c 128,-1,11
 303 755 303 755 306.5 762 c 128,-1,12
 310 769 310 769 311 775 c 1,13,-1
 341 775 l 1,14,15
 332 722 332 722 313 701 c 128,-1,16
 294 680 294 680 264 680 c 0,17,18
 248 680 248 680 236.5 686 c 128,-1,19
 225 692 225 692 214.5 699.5 c 128,-1,20
 204 707 204 707 192.5 713.5 c 128,-1,21
 181 720 181 720 166 720 c 0,22,23
 160 720 160 720 154 716 c 128,-1,24
 148 712 148 712 143 706 c 128,-1,25
 138 700 138 700 134 693 c 128,-1,26
 130 686 130 686 129 680 c 1,27,-1
 99 680 l 1,0,1
EndSplineSet
EndChar

StartChar: periodcentered
Encoding: 183 183 134
Width: 232
Flags: W
LayerCount: 2
Fore
SplineSet
133 385 m 0,0,1
 154 385 154 385 166.5 372 c 128,-1,2
 179 359 179 359 179 340 c 0,3,4
 179 316 179 316 159.5 296 c 128,-1,5
 140 276 140 276 114 276 c 0,6,7
 94 276 94 276 81.5 288.5 c 128,-1,8
 69 301 69 301 69 321 c 0,9,10
 69 333 69 333 74 344.5 c 128,-1,11
 79 356 79 356 88 365 c 128,-1,12
 97 374 97 374 108.5 379.5 c 128,-1,13
 120 385 120 385 133 385 c 0,0,1
EndSplineSet
EndChar

StartChar: Agrave
Encoding: 192 192 138
Width: 634
Flags: W
LayerCount: 2
Fore
SplineSet
617 0 m 1,0,1
 599 -5 599 -5 576 -5 c 0,2,3
 559 -5 559 -5 537.5 -1 c 128,-1,4
 516 3 516 3 495 16.5 c 128,-1,5
 474 30 474 30 456 56 c 128,-1,6
 438 82 438 82 429 125 c 2,7,-1
 415 190 l 1,8,-1
 135 190 l 1,9,-1
 22 0 l 1,10,-1
 -23 0 l 1,11,-1
 373 660 l 1,12,-1
 403 660 l 1,13,-1
 529 125 l 2,14,15
 535 97 535 97 542.5 77.5 c 128,-1,16
 550 58 550 58 560.5 46 c 128,-1,17
 571 34 571 34 585.5 28 c 128,-1,18
 600 22 600 22 620 20 c 1,19,-1
 617 0 l 1,0,1
157 230 m 1,20,-1
 402 230 l 1,21,-1
 333 520 l 1,22,-1
 157 230 l 1,20,-1
303 830 m 1,23,-1
 398 830 l 1,24,-1
 415 700 l 1,25,-1
 375 700 l 1,26,-1
 303 830 l 1,23,-1
EndSplineSet
EndChar

StartChar: Aacute
Encoding: 193 193 139
Width: 634
Flags: W
LayerCount: 2
Fore
SplineSet
617 0 m 1,0,1
 599 -5 599 -5 576 -5 c 0,2,3
 559 -5 559 -5 537.5 -1 c 128,-1,4
 516 3 516 3 495 16.5 c 128,-1,5
 474 30 474 30 456 56 c 128,-1,6
 438 82 438 82 429 125 c 2,7,-1
 415 190 l 1,8,-1
 135 190 l 1,9,-1
 22 0 l 1,10,-1
 -23 0 l 1,11,-1
 373 660 l 1,12,-1
 403 660 l 1,13,-1
 529 125 l 2,14,15
 535 97 535 97 542.5 77.5 c 128,-1,16
 550 58 550 58 560.5 46 c 128,-1,17
 571 34 571 34 585.5 28 c 128,-1,18
 600 22 600 22 620 20 c 1,19,-1
 617 0 l 1,0,1
157 230 m 1,20,-1
 402 230 l 1,21,-1
 333 520 l 1,22,-1
 157 230 l 1,20,-1
420 700 m 1,23,-1
 380 700 l 1,24,-1
 443 830 l 1,25,-1
 538 830 l 1,26,-1
 420 700 l 1,23,-1
EndSplineSet
EndChar

StartChar: Acircumflex
Encoding: 194 194 140
Width: 634
Flags: W
LayerCount: 2
Fore
SplineSet
617 0 m 1,0,1
 599 -5 599 -5 576 -5 c 0,2,3
 559 -5 559 -5 537.5 -1 c 128,-1,4
 516 3 516 3 495 16.5 c 128,-1,5
 474 30 474 30 456 56 c 128,-1,6
 438 82 438 82 429 125 c 2,7,-1
 415 190 l 1,8,-1
 135 190 l 1,9,-1
 22 0 l 1,10,-1
 -23 0 l 1,11,-1
 373 660 l 1,12,-1
 403 660 l 1,13,-1
 529 125 l 2,14,15
 535 97 535 97 542.5 77.5 c 128,-1,16
 550 58 550 58 560.5 46 c 128,-1,17
 571 34 571 34 585.5 28 c 128,-1,18
 600 22 600 22 620 20 c 1,19,-1
 617 0 l 1,0,1
157 230 m 1,20,-1
 402 230 l 1,21,-1
 333 520 l 1,22,-1
 157 230 l 1,20,-1
406 765 m 1,23,-1
 307 685 l 1,24,-1
 257 685 l 1,25,-1
 358 800 l 1,26,-1
 468 800 l 1,27,-1
 527 685 l 1,28,-1
 477 685 l 1,29,-1
 406 765 l 1,23,-1
EndSplineSet
EndChar

StartChar: Atilde
Encoding: 195 195 141
Width: 634
Flags: W
LayerCount: 2
Fore
SplineSet
617 0 m 1,0,1
 599 -5 599 -5 576 -5 c 0,2,3
 559 -5 559 -5 537.5 -1 c 128,-1,4
 516 3 516 3 495 16.5 c 128,-1,5
 474 30 474 30 456 56 c 128,-1,6
 438 82 438 82 429 125 c 2,7,-1
 415 190 l 1,8,-1
 135 190 l 1,9,-1
 22 0 l 1,10,-1
 -23 0 l 1,11,-1
 373 660 l 1,12,-1
 403 660 l 1,13,-1
 529 125 l 2,14,15
 535 97 535 97 542.5 77.5 c 128,-1,16
 550 58 550 58 560.5 46 c 128,-1,17
 571 34 571 34 585.5 28 c 128,-1,18
 600 22 600 22 620 20 c 1,19,-1
 617 0 l 1,0,1
157 230 m 1,20,-1
 402 230 l 1,21,-1
 333 520 l 1,22,-1
 157 230 l 1,20,-1
287 700 m 1,23,24
 296 753 296 753 315 774 c 128,-1,25
 334 795 334 795 364 795 c 0,26,27
 380 795 380 795 392 788.5 c 128,-1,28
 404 782 404 782 414.5 774.5 c 128,-1,29
 425 767 425 767 436 761 c 128,-1,30
 447 755 447 755 462 755 c 0,31,32
 468 755 468 755 474 759 c 128,-1,33
 480 763 480 763 485 769 c 128,-1,34
 490 775 490 775 494 782 c 128,-1,35
 498 789 498 789 499 795 c 1,36,-1
 529 795 l 1,37,38
 519 742 519 742 500.5 721 c 128,-1,39
 482 700 482 700 452 700 c 0,40,41
 436 700 436 700 424.5 706 c 128,-1,42
 413 712 413 712 402.5 719.5 c 128,-1,43
 392 727 392 727 380.5 733.5 c 128,-1,44
 369 740 369 740 354 740 c 0,45,46
 348 740 348 740 342 736 c 128,-1,47
 336 732 336 732 331 726 c 128,-1,48
 326 720 326 720 322 713 c 128,-1,49
 318 706 318 706 317 700 c 1,50,-1
 287 700 l 1,23,24
EndSplineSet
EndChar

StartChar: Adieresis
Encoding: 196 196 142
Width: 634
Flags: W
LayerCount: 2
Fore
SplineSet
617 0 m 1,0,1
 599 -5 599 -5 576 -5 c 0,2,3
 559 -5 559 -5 537.5 -1 c 128,-1,4
 516 3 516 3 495 16.5 c 128,-1,5
 474 30 474 30 456 56 c 128,-1,6
 438 82 438 82 429 125 c 2,7,-1
 415 190 l 1,8,-1
 135 190 l 1,9,-1
 22 0 l 1,10,-1
 -23 0 l 1,11,-1
 373 660 l 1,12,-1
 403 660 l 1,13,-1
 529 125 l 2,14,15
 535 97 535 97 542.5 77.5 c 128,-1,16
 550 58 550 58 560.5 46 c 128,-1,17
 571 34 571 34 585.5 28 c 128,-1,18
 600 22 600 22 620 20 c 1,19,-1
 617 0 l 1,0,1
157 230 m 1,20,-1
 402 230 l 1,21,-1
 333 520 l 1,22,-1
 157 230 l 1,20,-1
538 750 m 0,23,24
 538 727 538 727 521 708.5 c 128,-1,25
 504 690 504 690 478 690 c 0,26,27
 458 690 458 690 447 701 c 128,-1,28
 436 712 436 712 436 730 c 0,29,30
 436 753 436 753 453 771.5 c 128,-1,31
 470 790 470 790 496 790 c 0,32,33
 516 790 516 790 527 779 c 128,-1,34
 538 768 538 768 538 750 c 0,23,24
368 750 m 0,35,36
 368 727 368 727 351 708.5 c 128,-1,37
 334 690 334 690 308 690 c 0,38,39
 288 690 288 690 277 701 c 128,-1,40
 266 712 266 712 266 730 c 0,41,42
 266 753 266 753 283 771.5 c 128,-1,43
 300 790 300 790 326 790 c 0,44,45
 346 790 346 790 357 779 c 128,-1,46
 368 768 368 768 368 750 c 0,35,36
EndSplineSet
EndChar

StartChar: Aring
Encoding: 197 197 143
Width: 634
Flags: W
LayerCount: 2
Fore
SplineSet
309 688 m 0,0,1
 309 707 309 707 317.5 725 c 128,-1,2
 326 743 326 743 340 757.5 c 128,-1,3
 354 772 354 772 372.5 781 c 128,-1,4
 391 790 391 790 411 790 c 0,5,6
 441 790 441 790 461.5 768.5 c 128,-1,7
 482 747 482 747 482 718 c 0,8,9
 482 687 482 687 462 663 c 128,-1,10
 442 639 442 639 412 625 c 1,11,-1
 529 125 l 2,12,13
 535 97 535 97 542.5 77.5 c 128,-1,14
 550 58 550 58 560.5 46 c 128,-1,15
 571 34 571 34 585.5 28 c 128,-1,16
 600 22 600 22 620 20 c 1,17,-1
 617 0 l 1,18,19
 599 -5 599 -5 576 -5 c 0,20,21
 559 -5 559 -5 537.5 -1 c 128,-1,22
 516 3 516 3 495 16.5 c 128,-1,23
 474 30 474 30 456 56 c 128,-1,24
 438 82 438 82 429 125 c 2,25,-1
 415 190 l 1,26,-1
 135 190 l 1,27,-1
 22 0 l 1,28,-1
 -23 0 l 1,29,-1
 352 625 l 1,30,31
 336 632 336 632 322.5 647 c 128,-1,32
 309 662 309 662 309 688 c 0,0,1
157 230 m 1,33,-1
 402 230 l 1,34,-1
 333 520 l 1,35,-1
 157 230 l 1,33,-1
405 755 m 0,36,37
 383 755 383 755 366.5 737 c 128,-1,38
 350 719 350 719 350 695 c 0,39,40
 350 673 350 673 368 660 c 1,41,-1
 408 660 l 1,42,43
 422 668 422 668 432 682.5 c 128,-1,44
 442 697 442 697 442 716 c 0,45,46
 442 734 442 734 432 744.5 c 128,-1,47
 422 755 422 755 405 755 c 0,36,37
EndSplineSet
EndChar

StartChar: AE
Encoding: 198 198 144
Width: 870
Flags: W
LayerCount: 2
Fore
SplineSet
789 660 m 2,0,1
 832 660 832 660 847 643 c 128,-1,2
 862 626 862 626 862 602 c 0,3,4
 862 599 862 599 861.5 595 c 128,-1,5
 861 591 861 591 859.5 581.5 c 128,-1,6
 858 572 858 572 855 554 c 128,-1,7
 852 536 852 536 847 505 c 1,8,-1
 827 505 l 1,9,10
 830 521 830 521 830 535 c 0,11,12
 830 580 830 580 802 600 c 128,-1,13
 774 620 774 620 722 620 c 2,14,-1
 536 620 l 1,15,-1
 490 360 l 1,16,-1
 760 360 l 1,17,-1
 753 320 l 1,18,-1
 483 320 l 1,19,-1
 434 40 l 1,20,-1
 609 40 l 2,21,22
 677 40 677 40 721 65 c 128,-1,23
 765 90 765 90 798 150 c 1,24,-1
 817 145 l 1,25,-1
 765 50 l 2,26,27
 753 27 753 27 732.5 13.5 c 128,-1,28
 712 0 712 0 682 0 c 2,29,-1
 337 0 l 1,30,-1
 370 190 l 1,31,-1
 130 190 l 1,32,-1
 -8 0 l 1,33,-1
 -58 0 l 1,34,-1
 428 660 l 1,35,-1
 789 660 l 2,0,1
162 230 m 1,36,-1
 377 230 l 1,37,-1
 445 615 l 1,38,-1
 162 230 l 1,36,-1
EndSplineSet
EndChar

StartChar: Ccedilla
Encoding: 199 199 145
Width: 669
Flags: W
LayerCount: 2
Fore
SplineSet
243 -196 m 1,0,-1
 250 -155 l 1,1,-1
 300 -155 l 2,2,3
 318 -155 318 -155 332.5 -145 c 128,-1,4
 347 -135 347 -135 347 -115 c 0,5,6
 347 -90 347 -90 312 -90 c 2,7,-1
 267 -90 l 1,8,-1
 279 -20 l 1,9,10
 223 -17 223 -17 180 4.5 c 128,-1,11
 137 26 137 26 107.5 61 c 128,-1,12
 78 96 78 96 62.5 143 c 128,-1,13
 47 190 47 190 47 245 c 0,14,15
 47 317 47 317 75.5 393.5 c 128,-1,16
 104 470 104 470 154.5 534 c 128,-1,17
 205 598 205 598 274.5 639 c 128,-1,18
 344 680 344 680 427 680 c 0,19,20
 456 680 456 680 495 674.5 c 128,-1,21
 534 669 534 669 569.5 655 c 128,-1,22
 605 641 605 641 629.5 615.5 c 128,-1,23
 654 590 654 590 654 550 c 0,24,25
 654 525 654 525 650 500.5 c 128,-1,26
 646 476 646 476 642 450 c 1,27,-1
 622 450 l 1,28,29
 620 548 620 548 576.5 594 c 128,-1,30
 533 640 533 640 450 640 c 0,31,32
 373 640 373 640 316.5 604 c 128,-1,33
 260 568 260 568 222 510.5 c 128,-1,34
 184 453 184 453 165.5 382 c 128,-1,35
 147 311 147 311 147 241 c 0,36,37
 147 196 147 196 157.5 156 c 128,-1,38
 168 116 168 116 191.5 86 c 128,-1,39
 215 56 215 56 251.5 38 c 128,-1,40
 288 20 288 20 341 20 c 0,41,42
 416 20 416 20 476.5 56 c 128,-1,43
 537 92 537 92 591 160 c 1,44,-1
 608 145 l 1,45,46
 577 101 577 101 544.5 70.5 c 128,-1,47
 512 40 512 40 476.5 20.5 c 128,-1,48
 441 1 441 1 403.5 -8.5 c 128,-1,49
 366 -18 366 -18 324 -20 c 1,50,-1
 319 -50 l 1,51,-1
 329 -50 l 2,52,53
 359 -50 359 -50 378 -64.5 c 128,-1,54
 397 -79 397 -79 397 -108 c 0,55,56
 397 -147 397 -147 370 -170.5 c 128,-1,57
 343 -194 343 -194 303 -196 c 1,58,-1
 243 -196 l 1,0,-1
EndSplineSet
EndChar

StartChar: Egrave
Encoding: 200 200 146
Width: 593
Flags: W
LayerCount: 2
Fore
SplineSet
512 660 m 2,0,1
 555 660 555 660 570 643 c 128,-1,2
 585 626 585 626 585 602 c 0,3,4
 585 599 585 599 584.5 595 c 128,-1,5
 584 591 584 591 582.5 581.5 c 128,-1,6
 581 572 581 572 578 554 c 128,-1,7
 575 536 575 536 570 505 c 1,8,-1
 550 505 l 1,9,10
 553 521 553 521 553 535 c 0,11,12
 553 580 553 580 525 600 c 128,-1,13
 497 620 497 620 445 620 c 2,14,-1
 259 620 l 1,15,-1
 213 360 l 1,16,-1
 483 360 l 1,17,-1
 476 320 l 1,18,-1
 206 320 l 1,19,-1
 157 40 l 1,20,-1
 332 40 l 2,21,22
 400 40 400 40 444 65 c 128,-1,23
 488 90 488 90 521 150 c 1,24,-1
 540 145 l 1,25,-1
 488 50 l 2,26,27
 476 27 476 27 455.5 13.5 c 128,-1,28
 435 0 435 0 405 0 c 2,29,-1
 60 0 l 1,30,31
 84 139 84 139 101 235.5 c 128,-1,32
 118 332 118 332 129 395.5 c 128,-1,33
 140 459 140 459 146 495 c 128,-1,34
 152 531 152 531 155 549.5 c 128,-1,35
 158 568 158 568 158.5 574 c 128,-1,36
 159 580 159 580 159 583 c 0,37,38
 159 609 159 609 147 624.5 c 128,-1,39
 135 640 135 640 102 640 c 2,40,-1
 82 640 l 1,41,-1
 86 660 l 1,42,-1
 512 660 l 2,0,1
296 830 m 1,43,-1
 391 830 l 1,44,-1
 408 700 l 1,45,-1
 368 700 l 1,46,-1
 296 830 l 1,43,-1
EndSplineSet
EndChar

StartChar: Eacute
Encoding: 201 201 147
Width: 593
Flags: W
LayerCount: 2
Fore
SplineSet
512 660 m 2,0,1
 555 660 555 660 570 643 c 128,-1,2
 585 626 585 626 585 602 c 0,3,4
 585 599 585 599 584.5 595 c 128,-1,5
 584 591 584 591 582.5 581.5 c 128,-1,6
 581 572 581 572 578 554 c 128,-1,7
 575 536 575 536 570 505 c 1,8,-1
 550 505 l 1,9,10
 553 521 553 521 553 535 c 0,11,12
 553 580 553 580 525 600 c 128,-1,13
 497 620 497 620 445 620 c 2,14,-1
 259 620 l 1,15,-1
 213 360 l 1,16,-1
 483 360 l 1,17,-1
 476 320 l 1,18,-1
 206 320 l 1,19,-1
 157 40 l 1,20,-1
 332 40 l 2,21,22
 400 40 400 40 444 65 c 128,-1,23
 488 90 488 90 521 150 c 1,24,-1
 540 145 l 1,25,-1
 488 50 l 2,26,27
 476 27 476 27 455.5 13.5 c 128,-1,28
 435 0 435 0 405 0 c 2,29,-1
 60 0 l 1,30,31
 84 139 84 139 101 235.5 c 128,-1,32
 118 332 118 332 129 395.5 c 128,-1,33
 140 459 140 459 146 495 c 128,-1,34
 152 531 152 531 155 549.5 c 128,-1,35
 158 568 158 568 158.5 574 c 128,-1,36
 159 580 159 580 159 583 c 0,37,38
 159 609 159 609 147 624.5 c 128,-1,39
 135 640 135 640 102 640 c 2,40,-1
 82 640 l 1,41,-1
 86 660 l 1,42,-1
 512 660 l 2,0,1
393 700 m 1,43,-1
 353 700 l 1,44,-1
 416 830 l 1,45,-1
 511 830 l 1,46,-1
 393 700 l 1,43,-1
EndSplineSet
EndChar

StartChar: Ecircumflex
Encoding: 202 202 148
Width: 593
Flags: W
LayerCount: 2
Fore
SplineSet
512 660 m 2,0,1
 555 660 555 660 570 643 c 128,-1,2
 585 626 585 626 585 602 c 0,3,4
 585 599 585 599 584.5 595 c 128,-1,5
 584 591 584 591 582.5 581.5 c 128,-1,6
 581 572 581 572 578 554 c 128,-1,7
 575 536 575 536 570 505 c 1,8,-1
 550 505 l 1,9,10
 553 521 553 521 553 535 c 0,11,12
 553 580 553 580 525 600 c 128,-1,13
 497 620 497 620 445 620 c 2,14,-1
 259 620 l 1,15,-1
 213 360 l 1,16,-1
 483 360 l 1,17,-1
 476 320 l 1,18,-1
 206 320 l 1,19,-1
 157 40 l 1,20,-1
 332 40 l 2,21,22
 400 40 400 40 444 65 c 128,-1,23
 488 90 488 90 521 150 c 1,24,-1
 540 145 l 1,25,-1
 488 50 l 2,26,27
 476 27 476 27 455.5 13.5 c 128,-1,28
 435 0 435 0 405 0 c 2,29,-1
 60 0 l 1,30,31
 84 139 84 139 101 235.5 c 128,-1,32
 118 332 118 332 129 395.5 c 128,-1,33
 140 459 140 459 146 495 c 128,-1,34
 152 531 152 531 155 549.5 c 128,-1,35
 158 568 158 568 158.5 574 c 128,-1,36
 159 580 159 580 159 583 c 0,37,38
 159 609 159 609 147 624.5 c 128,-1,39
 135 640 135 640 102 640 c 2,40,-1
 82 640 l 1,41,-1
 86 660 l 1,42,-1
 512 660 l 2,0,1
396 801 m 1,43,-1
 297 721 l 1,44,-1
 247 721 l 1,45,-1
 347 836 l 1,46,-1
 457 836 l 1,47,-1
 517 721 l 1,48,-1
 467 721 l 1,49,-1
 396 801 l 1,43,-1
EndSplineSet
EndChar

StartChar: Edieresis
Encoding: 203 203 149
Width: 593
Flags: W
LayerCount: 2
Fore
SplineSet
343 790 m 0,0,1
 343 767 343 767 326 748.5 c 128,-1,2
 309 730 309 730 283 730 c 0,3,4
 263 730 263 730 252 741 c 128,-1,5
 241 752 241 752 241 770 c 0,6,7
 241 793 241 793 258 811.5 c 128,-1,8
 275 830 275 830 301 830 c 0,9,10
 321 830 321 830 332 819 c 128,-1,11
 343 808 343 808 343 790 c 0,0,1
523 790 m 0,12,13
 523 767 523 767 506 748.5 c 128,-1,14
 489 730 489 730 463 730 c 0,15,16
 443 730 443 730 432 741 c 128,-1,17
 421 752 421 752 421 770 c 0,18,19
 421 793 421 793 438 811.5 c 128,-1,20
 455 830 455 830 481 830 c 0,21,22
 501 830 501 830 512 819 c 128,-1,23
 523 808 523 808 523 790 c 0,12,13
512 660 m 2,24,25
 555 660 555 660 570 643 c 128,-1,26
 585 626 585 626 585 602 c 0,27,28
 585 599 585 599 584.5 595 c 128,-1,29
 584 591 584 591 582.5 581.5 c 128,-1,30
 581 572 581 572 578 554 c 128,-1,31
 575 536 575 536 570 505 c 1,32,-1
 550 505 l 1,33,34
 553 521 553 521 553 535 c 0,35,36
 553 580 553 580 525 600 c 128,-1,37
 497 620 497 620 445 620 c 2,38,-1
 259 620 l 1,39,-1
 213 360 l 1,40,-1
 483 360 l 1,41,-1
 476 320 l 1,42,-1
 206 320 l 1,43,-1
 157 40 l 1,44,-1
 332 40 l 2,45,46
 400 40 400 40 444 65 c 128,-1,47
 488 90 488 90 521 150 c 1,48,-1
 540 145 l 1,49,-1
 488 50 l 2,50,51
 476 27 476 27 455.5 13.5 c 128,-1,52
 435 0 435 0 405 0 c 2,53,-1
 60 0 l 1,54,55
 84 139 84 139 101 235.5 c 128,-1,56
 118 332 118 332 129 395.5 c 128,-1,57
 140 459 140 459 146 495 c 128,-1,58
 152 531 152 531 155 549.5 c 128,-1,59
 158 568 158 568 158.5 574 c 128,-1,60
 159 580 159 580 159 583 c 0,61,62
 159 609 159 609 147 624.5 c 128,-1,63
 135 640 135 640 102 640 c 2,64,-1
 82 640 l 1,65,-1
 86 660 l 1,66,-1
 512 660 l 2,24,25
EndSplineSet
EndChar

StartChar: Igrave
Encoding: 204 204 150
Width: 289
Flags: W
LayerCount: 2
Fore
SplineSet
158 660 m 1,0,-1
 248 660 l 1,1,-1
 153 120 l 2,2,3
 148 92 148 92 148 75 c 0,4,5
 148 49 148 49 160.5 34.5 c 128,-1,6
 173 20 173 20 205 20 c 2,7,-1
 225 20 l 1,8,-1
 222 0 l 1,9,-1
 132 0 l 2,10,11
 92 0 92 0 74 12 c 128,-1,12
 56 24 56 24 56 61 c 0,13,14
 56 73 56 73 58 87.5 c 128,-1,15
 60 102 60 102 63 120 c 2,16,-1
 158 660 l 1,0,-1
129 830 m 1,17,-1
 224 830 l 1,18,-1
 241 700 l 1,19,-1
 201 700 l 1,20,-1
 129 830 l 1,17,-1
EndSplineSet
EndChar

StartChar: Iacute
Encoding: 205 205 151
Width: 289
Flags: W
LayerCount: 2
Fore
SplineSet
158 660 m 1,0,-1
 248 660 l 1,1,-1
 153 120 l 2,2,3
 148 92 148 92 148 75 c 0,4,5
 148 49 148 49 160.5 34.5 c 128,-1,6
 173 20 173 20 205 20 c 2,7,-1
 225 20 l 1,8,-1
 222 0 l 1,9,-1
 132 0 l 2,10,11
 92 0 92 0 74 12 c 128,-1,12
 56 24 56 24 56 61 c 0,13,14
 56 73 56 73 58 87.5 c 128,-1,15
 60 102 60 102 63 120 c 2,16,-1
 158 660 l 1,0,-1
225 700 m 1,17,-1
 185 700 l 1,18,-1
 248 830 l 1,19,-1
 343 830 l 1,20,-1
 225 700 l 1,17,-1
EndSplineSet
EndChar

StartChar: Icircumflex
Encoding: 206 206 152
Width: 289
Flags: W
LayerCount: 2
Fore
SplineSet
158 660 m 1,0,-1
 248 660 l 1,1,-1
 153 120 l 2,2,3
 148 92 148 92 148 75 c 0,4,5
 148 49 148 49 160.5 34.5 c 128,-1,6
 173 20 173 20 205 20 c 2,7,-1
 225 20 l 1,8,-1
 222 0 l 1,9,-1
 132 0 l 2,10,11
 92 0 92 0 74 12 c 128,-1,12
 56 24 56 24 56 61 c 0,13,14
 56 73 56 73 58 87.5 c 128,-1,15
 60 102 60 102 63 120 c 2,16,-1
 158 660 l 1,0,-1
223 775 m 1,17,-1
 124 695 l 1,18,-1
 74 695 l 1,19,-1
 174 810 l 1,20,-1
 284 810 l 1,21,-1
 344 695 l 1,22,-1
 294 695 l 1,23,-1
 223 775 l 1,17,-1
EndSplineSet
EndChar

StartChar: Idieresis
Encoding: 207 207 153
Width: 289
Flags: W
LayerCount: 2
Fore
SplineSet
158 660 m 1,0,-1
 248 660 l 1,1,-1
 153 120 l 2,2,3
 148 92 148 92 148 75 c 0,4,5
 148 49 148 49 160.5 34.5 c 128,-1,6
 173 20 173 20 205 20 c 2,7,-1
 225 20 l 1,8,-1
 222 0 l 1,9,-1
 132 0 l 2,10,11
 92 0 92 0 74 12 c 128,-1,12
 56 24 56 24 56 61 c 0,13,14
 56 73 56 73 58 87.5 c 128,-1,15
 60 102 60 102 63 120 c 2,16,-1
 158 660 l 1,0,-1
349 777 m 0,17,18
 349 753 349 753 333 734 c 128,-1,19
 317 715 317 715 290 715 c 0,20,21
 270 715 270 715 258.5 726 c 128,-1,22
 247 737 247 737 247 755 c 0,23,24
 247 778 247 778 264 796.5 c 128,-1,25
 281 815 281 815 307 815 c 0,26,27
 327 815 327 815 338 804.5 c 128,-1,28
 349 794 349 794 349 777 c 0,17,18
195 777 m 0,29,30
 195 753 195 753 179 734 c 128,-1,31
 163 715 163 715 136 715 c 0,32,33
 116 715 116 715 104.5 726 c 128,-1,34
 93 737 93 737 93 755 c 0,35,36
 93 778 93 778 110 796.5 c 128,-1,37
 127 815 127 815 153 815 c 0,38,39
 173 815 173 815 184 804.5 c 128,-1,40
 195 794 195 794 195 777 c 0,29,30
EndSplineSet
EndChar

StartChar: Ntilde
Encoding: 209 209 154
Width: 687
Flags: W
LayerCount: 2
Fore
SplineSet
157 540 m 2,0,1
 160 556 160 556 160 572 c 0,2,3
 160 604 160 604 143.5 622 c 128,-1,4
 127 640 127 640 84 640 c 2,5,-1
 74 640 l 1,6,-1
 78 660 l 1,7,-1
 143 660 l 2,8,9
 192 660 192 660 221 644 c 128,-1,10
 250 628 250 628 267 600 c 2,11,-1
 541 165 l 1,12,-1
 628 660 l 1,13,-1
 668 660 l 1,14,-1
 550 -10 l 1,15,-1
 530 -10 l 1,16,-1
 194 525 l 1,17,-1
 102 0 l 1,18,-1
 62 0 l 1,19,-1
 157 540 l 2,0,1
311 694 m 1,20,21
 320 747 320 747 339 768 c 128,-1,22
 358 789 358 789 388 789 c 0,23,24
 404 789 404 789 416 782.5 c 128,-1,25
 428 776 428 776 438.5 768.5 c 128,-1,26
 449 761 449 761 460 755 c 128,-1,27
 471 749 471 749 486 749 c 0,28,29
 492 749 492 749 498 753 c 128,-1,30
 504 757 504 757 509 763 c 128,-1,31
 514 769 514 769 518 776 c 128,-1,32
 522 783 522 783 523 789 c 1,33,-1
 553 789 l 1,34,35
 543 736 543 736 524.5 715 c 128,-1,36
 506 694 506 694 476 694 c 0,37,38
 460 694 460 694 448.5 700 c 128,-1,39
 437 706 437 706 426.5 713.5 c 128,-1,40
 416 721 416 721 404.5 727.5 c 128,-1,41
 393 734 393 734 378 734 c 0,42,43
 372 734 372 734 366 730 c 128,-1,44
 360 726 360 726 355 720 c 128,-1,45
 350 714 350 714 346 707 c 128,-1,46
 342 700 342 700 341 694 c 1,47,-1
 311 694 l 1,20,21
EndSplineSet
EndChar

StartChar: Ograve
Encoding: 210 210 155
Width: 712
Flags: W
LayerCount: 2
Fore
SplineSet
347 854 m 1,0,-1
 442 854 l 1,1,-1
 459 724 l 1,2,-1
 419 724 l 1,3,-1
 347 854 l 1,0,-1
310 20 m 0,4,5
 358 20 358 20 396.5 39 c 128,-1,6
 435 58 435 58 465.5 89.5 c 128,-1,7
 496 121 496 121 518.5 162.5 c 128,-1,8
 541 204 541 204 555.5 249.5 c 128,-1,9
 570 295 570 295 577 340.5 c 128,-1,10
 584 386 584 386 584 427 c 0,11,12
 584 527 584 527 541.5 583.5 c 128,-1,13
 499 640 499 640 419 640 c 0,14,15
 371 640 371 640 332 621 c 128,-1,16
 293 602 293 602 263 570.5 c 128,-1,17
 233 539 233 539 210.5 497 c 128,-1,18
 188 455 188 455 174 409.5 c 128,-1,19
 160 364 160 364 153 318 c 128,-1,20
 146 272 146 272 146 231 c 0,21,22
 146 131 146 131 188 75.5 c 128,-1,23
 230 20 230 20 310 20 c 0,4,5
48 251 m 0,24,25
 48 326 48 326 74.5 402 c 128,-1,26
 101 478 101 478 150 540 c 128,-1,27
 199 602 199 602 269 641 c 128,-1,28
 339 680 339 680 426 680 c 0,29,30
 487 680 487 680 535 659.5 c 128,-1,31
 583 639 583 639 615.5 602.5 c 128,-1,32
 648 566 648 566 665 516 c 128,-1,33
 682 466 682 466 682 407 c 0,34,35
 682 332 682 332 655.5 256 c 128,-1,36
 629 180 629 180 579.5 118.5 c 128,-1,37
 530 57 530 57 460 18.5 c 128,-1,38
 390 -20 390 -20 303 -20 c 0,39,40
 241 -20 241 -20 193.5 0.5 c 128,-1,41
 146 21 146 21 114 57 c 128,-1,42
 82 93 82 93 65 142.5 c 128,-1,43
 48 192 48 192 48 251 c 0,24,25
EndSplineSet
EndChar

StartChar: Oacute
Encoding: 211 211 156
Width: 712
Flags: W
LayerCount: 2
Fore
SplineSet
452 720 m 1,0,-1
 412 720 l 1,1,-1
 475 850 l 1,2,-1
 570 850 l 1,3,-1
 452 720 l 1,0,-1
310 20 m 0,4,5
 358 20 358 20 396.5 39 c 128,-1,6
 435 58 435 58 465.5 89.5 c 128,-1,7
 496 121 496 121 518.5 162.5 c 128,-1,8
 541 204 541 204 555.5 249.5 c 128,-1,9
 570 295 570 295 577 340.5 c 128,-1,10
 584 386 584 386 584 427 c 0,11,12
 584 527 584 527 541.5 583.5 c 128,-1,13
 499 640 499 640 419 640 c 0,14,15
 371 640 371 640 332 621 c 128,-1,16
 293 602 293 602 263 570.5 c 128,-1,17
 233 539 233 539 210.5 497 c 128,-1,18
 188 455 188 455 174 409.5 c 128,-1,19
 160 364 160 364 153 318 c 128,-1,20
 146 272 146 272 146 231 c 0,21,22
 146 131 146 131 188 75.5 c 128,-1,23
 230 20 230 20 310 20 c 0,4,5
48 251 m 0,24,25
 48 326 48 326 74.5 402 c 128,-1,26
 101 478 101 478 150 540 c 128,-1,27
 199 602 199 602 269 641 c 128,-1,28
 339 680 339 680 426 680 c 0,29,30
 487 680 487 680 535 659.5 c 128,-1,31
 583 639 583 639 615.5 602.5 c 128,-1,32
 648 566 648 566 665 516 c 128,-1,33
 682 466 682 466 682 407 c 0,34,35
 682 332 682 332 655.5 256 c 128,-1,36
 629 180 629 180 579.5 118.5 c 128,-1,37
 530 57 530 57 460 18.5 c 128,-1,38
 390 -20 390 -20 303 -20 c 0,39,40
 241 -20 241 -20 193.5 0.5 c 128,-1,41
 146 21 146 21 114 57 c 128,-1,42
 82 93 82 93 65 142.5 c 128,-1,43
 48 192 48 192 48 251 c 0,24,25
EndSplineSet
EndChar

StartChar: Otilde
Encoding: 213 213 157
Width: 712
Flags: W
LayerCount: 2
Fore
SplineSet
324 738 m 1,0,1
 333 791 333 791 351.5 812 c 128,-1,2
 370 833 370 833 400 833 c 0,3,4
 416 833 416 833 428 826.5 c 128,-1,5
 440 820 440 820 450.5 812.5 c 128,-1,6
 461 805 461 805 472 799 c 128,-1,7
 483 793 483 793 498 793 c 0,8,9
 504 793 504 793 510 797 c 128,-1,10
 516 801 516 801 521.5 807 c 128,-1,11
 527 813 527 813 530.5 820 c 128,-1,12
 534 827 534 827 535 833 c 1,13,-1
 565 833 l 1,14,15
 556 780 556 780 537.5 759 c 128,-1,16
 519 738 519 738 489 738 c 0,17,18
 473 738 473 738 461.5 744 c 128,-1,19
 450 750 450 750 439.5 757.5 c 128,-1,20
 429 765 429 765 417.5 771.5 c 128,-1,21
 406 778 406 778 391 778 c 0,22,23
 385 778 385 778 379 774 c 128,-1,24
 373 770 373 770 367.5 764 c 128,-1,25
 362 758 362 758 358.5 751 c 128,-1,26
 355 744 355 744 354 738 c 1,27,-1
 324 738 l 1,0,1
310 20 m 0,28,29
 358 20 358 20 396.5 39 c 128,-1,30
 435 58 435 58 465.5 89.5 c 128,-1,31
 496 121 496 121 518.5 162.5 c 128,-1,32
 541 204 541 204 555.5 249.5 c 128,-1,33
 570 295 570 295 577 340.5 c 128,-1,34
 584 386 584 386 584 427 c 0,35,36
 584 527 584 527 541.5 583.5 c 128,-1,37
 499 640 499 640 419 640 c 0,38,39
 371 640 371 640 332 621 c 128,-1,40
 293 602 293 602 263 570.5 c 128,-1,41
 233 539 233 539 210.5 497 c 128,-1,42
 188 455 188 455 174 409.5 c 128,-1,43
 160 364 160 364 153 318 c 128,-1,44
 146 272 146 272 146 231 c 0,45,46
 146 131 146 131 188 75.5 c 128,-1,47
 230 20 230 20 310 20 c 0,28,29
48 251 m 0,48,49
 48 326 48 326 74.5 402 c 128,-1,50
 101 478 101 478 150 540 c 128,-1,51
 199 602 199 602 269 641 c 128,-1,52
 339 680 339 680 426 680 c 0,53,54
 487 680 487 680 535 659.5 c 128,-1,55
 583 639 583 639 615.5 602.5 c 128,-1,56
 648 566 648 566 665 516 c 128,-1,57
 682 466 682 466 682 407 c 0,58,59
 682 332 682 332 655.5 256 c 128,-1,60
 629 180 629 180 579.5 118.5 c 128,-1,61
 530 57 530 57 460 18.5 c 128,-1,62
 390 -20 390 -20 303 -20 c 0,63,64
 241 -20 241 -20 193.5 0.5 c 128,-1,65
 146 21 146 21 114 57 c 128,-1,66
 82 93 82 93 65 142.5 c 128,-1,67
 48 192 48 192 48 251 c 0,48,49
EndSplineSet
EndChar

StartChar: Odieresis
Encoding: 214 214 158
Width: 712
Flags: W
LayerCount: 2
Fore
SplineSet
581 795 m 0,0,1
 581 772 581 772 564 753.5 c 128,-1,2
 547 735 547 735 521 735 c 0,3,4
 501 735 501 735 490 746 c 128,-1,5
 479 757 479 757 479 775 c 0,6,7
 479 798 479 798 496 816.5 c 128,-1,8
 513 835 513 835 539 835 c 0,9,10
 559 835 559 835 570 824 c 128,-1,11
 581 813 581 813 581 795 c 0,0,1
411 795 m 0,12,13
 411 772 411 772 394 753.5 c 128,-1,14
 377 735 377 735 351 735 c 0,15,16
 331 735 331 735 320 746 c 128,-1,17
 309 757 309 757 309 775 c 0,18,19
 309 798 309 798 326 816.5 c 128,-1,20
 343 835 343 835 369 835 c 0,21,22
 389 835 389 835 400 824 c 128,-1,23
 411 813 411 813 411 795 c 0,12,13
310 20 m 0,24,25
 358 20 358 20 396.5 39 c 128,-1,26
 435 58 435 58 465.5 89.5 c 128,-1,27
 496 121 496 121 518.5 162.5 c 128,-1,28
 541 204 541 204 555.5 249.5 c 128,-1,29
 570 295 570 295 577 340.5 c 128,-1,30
 584 386 584 386 584 427 c 0,31,32
 584 527 584 527 541.5 583.5 c 128,-1,33
 499 640 499 640 419 640 c 0,34,35
 371 640 371 640 332 621 c 128,-1,36
 293 602 293 602 263 570.5 c 128,-1,37
 233 539 233 539 210.5 497 c 128,-1,38
 188 455 188 455 174 409.5 c 128,-1,39
 160 364 160 364 153 318 c 128,-1,40
 146 272 146 272 146 231 c 0,41,42
 146 131 146 131 188 75.5 c 128,-1,43
 230 20 230 20 310 20 c 0,24,25
48 251 m 0,44,45
 48 326 48 326 74.5 402 c 128,-1,46
 101 478 101 478 150 540 c 128,-1,47
 199 602 199 602 269 641 c 128,-1,48
 339 680 339 680 426 680 c 0,49,50
 487 680 487 680 535 659.5 c 128,-1,51
 583 639 583 639 615.5 602.5 c 128,-1,52
 648 566 648 566 665 516 c 128,-1,53
 682 466 682 466 682 407 c 0,54,55
 682 332 682 332 655.5 256 c 128,-1,56
 629 180 629 180 579.5 118.5 c 128,-1,57
 530 57 530 57 460 18.5 c 128,-1,58
 390 -20 390 -20 303 -20 c 0,59,60
 241 -20 241 -20 193.5 0.5 c 128,-1,61
 146 21 146 21 114 57 c 128,-1,62
 82 93 82 93 65 142.5 c 128,-1,63
 48 192 48 192 48 251 c 0,44,45
EndSplineSet
EndChar

StartChar: Oslash
Encoding: 216 216 159
Width: 712
Flags: W
LayerCount: 2
Fore
SplineSet
73 -20 m 1,0,-1
 122 48 l 1,1,2
 86 85 86 85 67 136.5 c 128,-1,3
 48 188 48 188 48 251 c 0,4,5
 48 326 48 326 74.5 402 c 128,-1,6
 101 478 101 478 150 540 c 128,-1,7
 199 602 199 602 269 641 c 128,-1,8
 339 680 339 680 426 680 c 0,9,10
 464 680 464 680 496 672 c 128,-1,11
 528 664 528 664 555 650 c 1,12,-1
 577 680 l 1,13,-1
 650 680 l 1,14,-1
 603 615 l 1,15,16
 641 578 641 578 661.5 525 c 128,-1,17
 682 472 682 472 682 407 c 0,18,19
 682 332 682 332 655.5 256 c 128,-1,20
 629 180 629 180 579.5 118.5 c 128,-1,21
 530 57 530 57 460 18.5 c 128,-1,22
 390 -20 390 -20 303 -20 c 0,23,24
 225 -20 225 -20 169 12 c 1,25,-1
 146 -20 l 1,26,-1
 73 -20 l 1,0,-1
310 20 m 0,27,28
 357 20 357 20 396 39 c 128,-1,29
 435 58 435 58 465.5 89.5 c 128,-1,30
 496 121 496 121 518.5 162 c 128,-1,31
 541 203 541 203 555.5 248 c 128,-1,32
 570 293 570 293 577 339 c 128,-1,33
 584 385 584 385 584 426 c 0,34,35
 584 501 584 501 559 554 c 1,36,-1
 203 59 l 1,37,38
 245 20 245 20 310 20 c 0,27,28
419 640 m 0,39,40
 371 640 371 640 332 621 c 128,-1,41
 293 602 293 602 262.5 570 c 128,-1,42
 232 538 232 538 210 496 c 128,-1,43
 188 454 188 454 173.5 408 c 128,-1,44
 159 362 159 362 152 316 c 128,-1,45
 145 270 145 270 145 229 c 0,46,47
 145 161 145 161 167 111 c 1,48,-1
 522 604 l 1,49,50
 481 640 481 640 419 640 c 0,39,40
EndSplineSet
EndChar

StartChar: Ugrave
Encoding: 217 217 160
Width: 687
Flags: W
LayerCount: 2
Fore
SplineSet
361 810 m 1,0,-1
 456 810 l 1,1,-1
 473 680 l 1,2,-1
 433 680 l 1,3,-1
 361 810 l 1,0,-1
144 540 m 2,4,5
 146 552 146 552 147 562.5 c 128,-1,6
 148 573 148 573 148 583 c 0,7,8
 148 609 148 609 136 624.5 c 128,-1,9
 124 640 124 640 91 640 c 2,10,-1
 71 640 l 1,11,-1
 75 660 l 1,12,-1
 165 660 l 2,13,14
 205 660 205 660 223 648 c 128,-1,15
 241 636 241 636 241 599 c 0,16,17
 241 587 241 587 239 572.5 c 128,-1,18
 237 558 237 558 234 540 c 2,19,-1
 183 255 l 2,20,21
 179 233 179 233 177 214 c 128,-1,22
 175 195 175 195 175 177 c 0,23,24
 175 107 175 107 208.5 68.5 c 128,-1,25
 242 30 242 30 321 30 c 0,26,27
 378 30 378 30 419.5 45 c 128,-1,28
 461 60 461 60 490.5 91.5 c 128,-1,29
 520 123 520 123 538.5 171 c 128,-1,30
 557 219 557 219 569 285 c 2,31,-1
 635 660 l 1,32,-1
 675 660 l 1,33,-1
 609 285 l 2,34,35
 596 212 596 212 575 156.5 c 128,-1,36
 554 101 554 101 519 64 c 128,-1,37
 484 27 484 27 431.5 8.5 c 128,-1,38
 379 -10 379 -10 302 -10 c 0,39,40
 186 -10 186 -10 137 37 c 128,-1,41
 88 84 88 84 88 177 c 0,42,43
 88 201 88 201 91 228 c 128,-1,44
 94 255 94 255 99 285 c 2,45,-1
 144 540 l 2,4,5
EndSplineSet
EndChar

StartChar: Uacute
Encoding: 218 218 161
Width: 687
Flags: W
LayerCount: 2
Fore
SplineSet
438 680 m 1,0,-1
 398 680 l 1,1,-1
 461 810 l 1,2,-1
 556 810 l 1,3,-1
 438 680 l 1,0,-1
144 540 m 2,4,5
 146 552 146 552 147 562.5 c 128,-1,6
 148 573 148 573 148 583 c 0,7,8
 148 609 148 609 136 624.5 c 128,-1,9
 124 640 124 640 91 640 c 2,10,-1
 71 640 l 1,11,-1
 75 660 l 1,12,-1
 165 660 l 2,13,14
 205 660 205 660 223 648 c 128,-1,15
 241 636 241 636 241 599 c 0,16,17
 241 587 241 587 239 572.5 c 128,-1,18
 237 558 237 558 234 540 c 2,19,-1
 183 255 l 2,20,21
 179 233 179 233 177 214 c 128,-1,22
 175 195 175 195 175 177 c 0,23,24
 175 107 175 107 208.5 68.5 c 128,-1,25
 242 30 242 30 321 30 c 0,26,27
 378 30 378 30 419.5 45 c 128,-1,28
 461 60 461 60 490.5 91.5 c 128,-1,29
 520 123 520 123 538.5 171 c 128,-1,30
 557 219 557 219 569 285 c 2,31,-1
 635 660 l 1,32,-1
 675 660 l 1,33,-1
 609 285 l 2,34,35
 596 212 596 212 575 156.5 c 128,-1,36
 554 101 554 101 519 64 c 128,-1,37
 484 27 484 27 431.5 8.5 c 128,-1,38
 379 -10 379 -10 302 -10 c 0,39,40
 186 -10 186 -10 137 37 c 128,-1,41
 88 84 88 84 88 177 c 0,42,43
 88 201 88 201 91 228 c 128,-1,44
 94 255 94 255 99 285 c 2,45,-1
 144 540 l 2,4,5
EndSplineSet
EndChar

StartChar: Ucircumflex
Encoding: 219 219 162
Width: 687
Flags: W
LayerCount: 2
Fore
SplineSet
456 751 m 1,0,-1
 357 671 l 1,1,-1
 307 671 l 1,2,-1
 407 786 l 1,3,-1
 517 786 l 1,4,-1
 577 671 l 1,5,-1
 527 671 l 1,6,-1
 456 751 l 1,0,-1
144 540 m 2,7,8
 146 552 146 552 147 562.5 c 128,-1,9
 148 573 148 573 148 583 c 0,10,11
 148 609 148 609 136 624.5 c 128,-1,12
 124 640 124 640 91 640 c 2,13,-1
 71 640 l 1,14,-1
 75 660 l 1,15,-1
 165 660 l 2,16,17
 205 660 205 660 223 648 c 128,-1,18
 241 636 241 636 241 599 c 0,19,20
 241 587 241 587 239 572.5 c 128,-1,21
 237 558 237 558 234 540 c 2,22,-1
 183 255 l 2,23,24
 179 233 179 233 177 214 c 128,-1,25
 175 195 175 195 175 177 c 0,26,27
 175 107 175 107 208.5 68.5 c 128,-1,28
 242 30 242 30 321 30 c 0,29,30
 378 30 378 30 419.5 45 c 128,-1,31
 461 60 461 60 490.5 91.5 c 128,-1,32
 520 123 520 123 538.5 171 c 128,-1,33
 557 219 557 219 569 285 c 2,34,-1
 635 660 l 1,35,-1
 675 660 l 1,36,-1
 609 285 l 2,37,38
 596 212 596 212 575 156.5 c 128,-1,39
 554 101 554 101 519 64 c 128,-1,40
 484 27 484 27 431.5 8.5 c 128,-1,41
 379 -10 379 -10 302 -10 c 0,42,43
 186 -10 186 -10 137 37 c 128,-1,44
 88 84 88 84 88 177 c 0,45,46
 88 201 88 201 91 228 c 128,-1,47
 94 255 94 255 99 285 c 2,48,-1
 144 540 l 2,7,8
EndSplineSet
EndChar

StartChar: Udieresis
Encoding: 220 220 163
Width: 687
Flags: W
LayerCount: 2
Fore
SplineSet
583 742 m 0,0,1
 583 718 583 718 566.5 699 c 128,-1,2
 550 680 550 680 523 680 c 0,3,4
 503 680 503 680 492 691 c 128,-1,5
 481 702 481 702 481 720 c 0,6,7
 481 743 481 743 498 761.5 c 128,-1,8
 515 780 515 780 541 780 c 0,9,10
 561 780 561 780 572 769.5 c 128,-1,11
 583 759 583 759 583 742 c 0,0,1
413 742 m 0,12,13
 413 718 413 718 396.5 699 c 128,-1,14
 380 680 380 680 353 680 c 0,15,16
 333 680 333 680 322 691 c 128,-1,17
 311 702 311 702 311 720 c 0,18,19
 311 743 311 743 328 761.5 c 128,-1,20
 345 780 345 780 371 780 c 0,21,22
 391 780 391 780 402 769.5 c 128,-1,23
 413 759 413 759 413 742 c 0,12,13
144 540 m 2,24,25
 146 552 146 552 147 562.5 c 128,-1,26
 148 573 148 573 148 583 c 0,27,28
 148 609 148 609 136 624.5 c 128,-1,29
 124 640 124 640 91 640 c 2,30,-1
 71 640 l 1,31,-1
 75 660 l 1,32,-1
 165 660 l 2,33,34
 205 660 205 660 223 648 c 128,-1,35
 241 636 241 636 241 599 c 0,36,37
 241 587 241 587 239 572.5 c 128,-1,38
 237 558 237 558 234 540 c 2,39,-1
 183 255 l 2,40,41
 179 233 179 233 177 214 c 128,-1,42
 175 195 175 195 175 177 c 0,43,44
 175 107 175 107 208.5 68.5 c 128,-1,45
 242 30 242 30 321 30 c 0,46,47
 378 30 378 30 419.5 45 c 128,-1,48
 461 60 461 60 490.5 91.5 c 128,-1,49
 520 123 520 123 538.5 171 c 128,-1,50
 557 219 557 219 569 285 c 2,51,-1
 635 660 l 1,52,-1
 675 660 l 1,53,-1
 609 285 l 2,54,55
 596 212 596 212 575 156.5 c 128,-1,56
 554 101 554 101 519 64 c 128,-1,57
 484 27 484 27 431.5 8.5 c 128,-1,58
 379 -10 379 -10 302 -10 c 0,59,60
 186 -10 186 -10 137 37 c 128,-1,61
 88 84 88 84 88 177 c 0,62,63
 88 201 88 201 91 228 c 128,-1,64
 94 255 94 255 99 285 c 2,65,-1
 144 540 l 2,24,25
EndSplineSet
EndChar

StartChar: germandbls
Encoding: 223 223 164
Width: 554
Flags: W
LayerCount: 2
Fore
SplineSet
248 329 m 0,0,1
 248 358 248 358 259.5 379.5 c 128,-1,2
 271 401 271 401 288 418.5 c 128,-1,3
 305 436 305 436 325 452 c 128,-1,4
 345 468 345 468 362 485 c 128,-1,5
 379 502 379 502 390.5 522 c 128,-1,6
 402 542 402 542 402 569 c 0,7,8
 402 598 402 598 383 614 c 128,-1,9
 364 630 364 630 325 630 c 0,10,11
 276 630 276 630 245.5 602.5 c 128,-1,12
 215 575 215 575 202 500 c 2,13,-1
 114 0 l 1,14,-1
 24 0 l 1,15,-1
 112 500 l 2,16,17
 121 552 121 552 142.5 585.5 c 128,-1,18
 164 619 164 619 194 637.5 c 128,-1,19
 224 656 224 656 261 663 c 128,-1,20
 298 670 298 670 337 670 c 0,21,22
 413 670 413 670 451.5 646 c 128,-1,23
 490 622 490 622 490 584 c 0,24,25
 490 558 490 558 478.5 537.5 c 128,-1,26
 467 517 467 517 450.5 500 c 128,-1,27
 434 483 434 483 414 467 c 128,-1,28
 394 451 394 451 377.5 434.5 c 128,-1,29
 361 418 361 418 349.5 398.5 c 128,-1,30
 338 379 338 379 338 355 c 0,31,32
 338 332 338 332 350 315 c 128,-1,33
 362 298 362 298 380.5 283.5 c 128,-1,34
 399 269 399 269 420 255 c 128,-1,35
 441 241 441 241 459.5 225 c 128,-1,36
 478 209 478 209 490 188.5 c 128,-1,37
 502 168 502 168 502 141 c 0,38,39
 502 107 502 107 488.5 79.5 c 128,-1,40
 475 52 475 52 451.5 32 c 128,-1,41
 428 12 428 12 397 1 c 128,-1,42
 366 -10 366 -10 332 -10 c 0,43,44
 312 -10 312 -10 289 -6.5 c 128,-1,45
 266 -3 266 -3 246 7 c 128,-1,46
 226 17 226 17 212.5 33 c 128,-1,47
 199 49 199 49 199 75 c 0,48,49
 199 84 199 84 200 93 c 128,-1,50
 201 102 201 102 203 110 c 1,51,-1
 223 110 l 1,52,-1
 223 107 l 2,53,54
 223 92 223 92 230 78.5 c 128,-1,55
 237 65 237 65 249.5 54 c 128,-1,56
 262 43 262 43 279.5 36.5 c 128,-1,57
 297 30 297 30 319 30 c 0,58,59
 336 30 336 30 352.5 35.5 c 128,-1,60
 369 41 369 41 382.5 52 c 128,-1,61
 396 63 396 63 404 79 c 128,-1,62
 412 95 412 95 412 115 c 0,63,64
 412 137 412 137 400 154.5 c 128,-1,65
 388 172 388 172 369.5 186.5 c 128,-1,66
 351 201 351 201 330 215 c 128,-1,67
 309 229 309 229 290.5 245 c 128,-1,68
 272 261 272 261 260 281.5 c 128,-1,69
 248 302 248 302 248 329 c 0,0,1
EndSplineSet
EndChar

StartChar: agrave
Encoding: 224 224 165
Width: 525
Flags: W
LayerCount: 2
Fore
SplineSet
219 655 m 1,0,-1
 314 655 l 1,1,-1
 331 525 l 1,2,-1
 291 525 l 1,3,-1
 219 655 l 1,0,-1
296 440 m 0,4,5
 250 440 250 440 218 410 c 128,-1,6
 186 380 186 380 165.5 336.5 c 128,-1,7
 145 293 145 293 136 244 c 128,-1,8
 127 195 127 195 127 157 c 0,9,10
 127 102 127 102 147 66 c 128,-1,11
 167 30 167 30 214 30 c 0,12,13
 259 30 259 30 284.5 48.5 c 128,-1,14
 310 67 310 67 329 90 c 1,15,-1
 381 380 l 1,16,17
 375 391 375 391 368 402 c 128,-1,18
 361 413 361 413 351.5 421.5 c 128,-1,19
 342 430 342 430 328.5 435 c 128,-1,20
 315 440 315 440 296 440 c 0,4,5
273 480 m 1,21,22
 325 480 325 480 351 462 c 128,-1,23
 377 444 377 444 388 425 c 1,24,-1
 393 425 l 1,25,-1
 436 470 l 1,26,-1
 486 470 l 1,27,-1
 404 0 l 1,28,-1
 354 0 l 1,29,-1
 326 45 l 1,30,-1
 321 45 l 1,31,32
 303 26 303 26 270 8 c 128,-1,33
 237 -10 237 -10 177 -10 c 0,34,35
 140 -10 140 -10 112.5 3.5 c 128,-1,36
 85 17 85 17 67 40 c 128,-1,37
 49 63 49 63 40.5 95 c 128,-1,38
 32 127 32 127 32 163 c 0,39,40
 32 215 32 215 47 269 c 128,-1,41
 62 323 62 323 92 368.5 c 128,-1,42
 122 414 122 414 167 444.5 c 128,-1,43
 212 475 212 475 273 480 c 1,21,22
EndSplineSet
EndChar

StartChar: aacute
Encoding: 225 225 166
Width: 525
Flags: W
LayerCount: 2
Fore
SplineSet
321 525 m 1,0,-1
 281 525 l 1,1,-1
 344 655 l 1,2,-1
 439 655 l 1,3,-1
 321 525 l 1,0,-1
296 440 m 0,4,5
 250 440 250 440 218 410 c 128,-1,6
 186 380 186 380 165.5 336.5 c 128,-1,7
 145 293 145 293 136 244 c 128,-1,8
 127 195 127 195 127 157 c 0,9,10
 127 102 127 102 147 66 c 128,-1,11
 167 30 167 30 214 30 c 0,12,13
 259 30 259 30 284.5 48.5 c 128,-1,14
 310 67 310 67 329 90 c 1,15,-1
 381 380 l 1,16,17
 375 391 375 391 368 402 c 128,-1,18
 361 413 361 413 351.5 421.5 c 128,-1,19
 342 430 342 430 328.5 435 c 128,-1,20
 315 440 315 440 296 440 c 0,4,5
273 480 m 1,21,22
 325 480 325 480 351 462 c 128,-1,23
 377 444 377 444 388 425 c 1,24,-1
 393 425 l 1,25,-1
 436 470 l 1,26,-1
 486 470 l 1,27,-1
 404 0 l 1,28,-1
 354 0 l 1,29,-1
 326 45 l 1,30,-1
 321 45 l 1,31,32
 303 26 303 26 270 8 c 128,-1,33
 237 -10 237 -10 177 -10 c 0,34,35
 140 -10 140 -10 112.5 3.5 c 128,-1,36
 85 17 85 17 67 40 c 128,-1,37
 49 63 49 63 40.5 95 c 128,-1,38
 32 127 32 127 32 163 c 0,39,40
 32 215 32 215 47 269 c 128,-1,41
 62 323 62 323 92 368.5 c 128,-1,42
 122 414 122 414 167 444.5 c 128,-1,43
 212 475 212 475 273 480 c 1,21,22
EndSplineSet
EndChar

StartChar: acircumflex
Encoding: 226 226 167
Width: 525
Flags: W
LayerCount: 2
Fore
SplineSet
327 610 m 1,0,-1
 228 530 l 1,1,-1
 178 530 l 1,2,-1
 278 645 l 1,3,-1
 388 645 l 1,4,-1
 448 530 l 1,5,-1
 398 530 l 1,6,-1
 327 610 l 1,0,-1
296 440 m 0,7,8
 250 440 250 440 218 410 c 128,-1,9
 186 380 186 380 165.5 336.5 c 128,-1,10
 145 293 145 293 136 244 c 128,-1,11
 127 195 127 195 127 157 c 0,12,13
 127 102 127 102 147 66 c 128,-1,14
 167 30 167 30 214 30 c 0,15,16
 259 30 259 30 284.5 48.5 c 128,-1,17
 310 67 310 67 329 90 c 1,18,-1
 381 380 l 1,19,20
 375 391 375 391 368 402 c 128,-1,21
 361 413 361 413 351.5 421.5 c 128,-1,22
 342 430 342 430 328.5 435 c 128,-1,23
 315 440 315 440 296 440 c 0,7,8
273 480 m 1,24,25
 325 480 325 480 351 462 c 128,-1,26
 377 444 377 444 388 425 c 1,27,-1
 393 425 l 1,28,-1
 436 470 l 1,29,-1
 486 470 l 1,30,-1
 404 0 l 1,31,-1
 354 0 l 1,32,-1
 326 45 l 1,33,-1
 321 45 l 1,34,35
 303 26 303 26 270 8 c 128,-1,36
 237 -10 237 -10 177 -10 c 0,37,38
 140 -10 140 -10 112.5 3.5 c 128,-1,39
 85 17 85 17 67 40 c 128,-1,40
 49 63 49 63 40.5 95 c 128,-1,41
 32 127 32 127 32 163 c 0,42,43
 32 215 32 215 47 269 c 128,-1,44
 62 323 62 323 92 368.5 c 128,-1,45
 122 414 122 414 167 444.5 c 128,-1,46
 212 475 212 475 273 480 c 1,24,25
EndSplineSet
EndChar

StartChar: atilde
Encoding: 227 227 168
Width: 525
Flags: W
LayerCount: 2
Fore
SplineSet
197 535 m 1,0,1
 206 588 206 588 225 609 c 128,-1,2
 244 630 244 630 274 630 c 0,3,4
 290 630 290 630 302 623.5 c 128,-1,5
 314 617 314 617 324.5 609.5 c 128,-1,6
 335 602 335 602 346 596 c 128,-1,7
 357 590 357 590 372 590 c 0,8,9
 378 590 378 590 384 594 c 128,-1,10
 390 598 390 598 395 604 c 128,-1,11
 400 610 400 610 404 617 c 128,-1,12
 408 624 408 624 409 630 c 1,13,-1
 439 630 l 1,14,15
 429 577 429 577 410.5 556 c 128,-1,16
 392 535 392 535 362 535 c 0,17,18
 346 535 346 535 334.5 541 c 128,-1,19
 323 547 323 547 312.5 554.5 c 128,-1,20
 302 562 302 562 290.5 568.5 c 128,-1,21
 279 575 279 575 264 575 c 0,22,23
 258 575 258 575 252 571 c 128,-1,24
 246 567 246 567 240.5 561 c 128,-1,25
 235 555 235 555 231.5 548 c 128,-1,26
 228 541 228 541 227 535 c 1,27,-1
 197 535 l 1,0,1
296 440 m 0,28,29
 250 440 250 440 218 410 c 128,-1,30
 186 380 186 380 165.5 336.5 c 128,-1,31
 145 293 145 293 136 244 c 128,-1,32
 127 195 127 195 127 157 c 0,33,34
 127 102 127 102 147 66 c 128,-1,35
 167 30 167 30 214 30 c 0,36,37
 259 30 259 30 284.5 48.5 c 128,-1,38
 310 67 310 67 329 90 c 1,39,-1
 381 380 l 1,40,41
 375 391 375 391 368 402 c 128,-1,42
 361 413 361 413 351.5 421.5 c 128,-1,43
 342 430 342 430 328.5 435 c 128,-1,44
 315 440 315 440 296 440 c 0,28,29
273 480 m 1,45,46
 325 480 325 480 351 462 c 128,-1,47
 377 444 377 444 388 425 c 1,48,-1
 393 425 l 1,49,-1
 436 470 l 1,50,-1
 486 470 l 1,51,-1
 404 0 l 1,52,-1
 354 0 l 1,53,-1
 326 45 l 1,54,-1
 321 45 l 1,55,56
 303 26 303 26 270 8 c 128,-1,57
 237 -10 237 -10 177 -10 c 0,58,59
 140 -10 140 -10 112.5 3.5 c 128,-1,60
 85 17 85 17 67 40 c 128,-1,61
 49 63 49 63 40.5 95 c 128,-1,62
 32 127 32 127 32 163 c 0,63,64
 32 215 32 215 47 269 c 128,-1,65
 62 323 62 323 92 368.5 c 128,-1,66
 122 414 122 414 167 444.5 c 128,-1,67
 212 475 212 475 273 480 c 1,45,46
EndSplineSet
EndChar

StartChar: adieresis
Encoding: 228 228 169
Width: 525
Flags: W
LayerCount: 2
Fore
SplineSet
452 588 m 0,0,1
 452 568 452 568 436 551.5 c 128,-1,2
 420 535 420 535 398 535 c 0,3,4
 381 535 381 535 370.5 545 c 128,-1,5
 360 555 360 555 360 571 c 0,6,7
 360 591 360 591 375.5 608 c 128,-1,8
 391 625 391 625 414 625 c 0,9,10
 431 625 431 625 441.5 614.5 c 128,-1,11
 452 604 452 604 452 588 c 0,0,1
282 588 m 0,12,13
 282 568 282 568 266 551.5 c 128,-1,14
 250 535 250 535 228 535 c 0,15,16
 211 535 211 535 200.5 545 c 128,-1,17
 190 555 190 555 190 571 c 0,18,19
 190 591 190 591 205.5 608 c 128,-1,20
 221 625 221 625 244 625 c 0,21,22
 261 625 261 625 271.5 614.5 c 128,-1,23
 282 604 282 604 282 588 c 0,12,13
296 440 m 0,24,25
 250 440 250 440 218 410 c 128,-1,26
 186 380 186 380 165.5 336.5 c 128,-1,27
 145 293 145 293 136 244 c 128,-1,28
 127 195 127 195 127 157 c 0,29,30
 127 102 127 102 147 66 c 128,-1,31
 167 30 167 30 214 30 c 0,32,33
 259 30 259 30 284.5 48.5 c 128,-1,34
 310 67 310 67 329 90 c 1,35,-1
 381 380 l 1,36,37
 375 391 375 391 368 402 c 128,-1,38
 361 413 361 413 351.5 421.5 c 128,-1,39
 342 430 342 430 328.5 435 c 128,-1,40
 315 440 315 440 296 440 c 0,24,25
273 480 m 1,41,42
 325 480 325 480 351 462 c 128,-1,43
 377 444 377 444 388 425 c 1,44,-1
 393 425 l 1,45,-1
 436 470 l 1,46,-1
 486 470 l 1,47,-1
 404 0 l 1,48,-1
 354 0 l 1,49,-1
 326 45 l 1,50,-1
 321 45 l 1,51,52
 303 26 303 26 270 8 c 128,-1,53
 237 -10 237 -10 177 -10 c 0,54,55
 140 -10 140 -10 112.5 3.5 c 128,-1,56
 85 17 85 17 67 40 c 128,-1,57
 49 63 49 63 40.5 95 c 128,-1,58
 32 127 32 127 32 163 c 0,59,60
 32 215 32 215 47 269 c 128,-1,61
 62 323 62 323 92 368.5 c 128,-1,62
 122 414 122 414 167 444.5 c 128,-1,63
 212 475 212 475 273 480 c 1,41,42
EndSplineSet
EndChar

StartChar: aring
Encoding: 229 229 170
Width: 525
Flags: W
LayerCount: 2
Fore
SplineSet
236 602 m 0,0,1
 236 620 236 620 244.5 637.5 c 128,-1,2
 253 655 253 655 267 669 c 128,-1,3
 281 683 281 683 299 691.5 c 128,-1,4
 317 700 317 700 337 700 c 0,5,6
 367 700 367 700 387.5 678.5 c 128,-1,7
 408 657 408 657 408 628 c 0,8,9
 408 610 408 610 399.5 592.5 c 128,-1,10
 391 575 391 575 377 561 c 128,-1,11
 363 547 363 547 344.5 538.5 c 128,-1,12
 326 530 326 530 307 530 c 0,13,14
 277 530 277 530 256.5 551.5 c 128,-1,15
 236 573 236 573 236 602 c 0,0,1
313 565 m 0,16,17
 336 565 336 565 352 583 c 128,-1,18
 368 601 368 601 368 626 c 0,19,20
 368 644 368 644 358 654.5 c 128,-1,21
 348 665 348 665 331 665 c 0,22,23
 308 665 308 665 292 647 c 128,-1,24
 276 629 276 629 276 604 c 0,25,26
 276 586 276 586 286 575.5 c 128,-1,27
 296 565 296 565 313 565 c 0,16,17
296 440 m 0,28,29
 250 440 250 440 218 410 c 128,-1,30
 186 380 186 380 165.5 336.5 c 128,-1,31
 145 293 145 293 136 244 c 128,-1,32
 127 195 127 195 127 157 c 0,33,34
 127 102 127 102 147 66 c 128,-1,35
 167 30 167 30 214 30 c 0,36,37
 259 30 259 30 284.5 48.5 c 128,-1,38
 310 67 310 67 329 90 c 1,39,-1
 381 380 l 1,40,41
 375 391 375 391 368 402 c 128,-1,42
 361 413 361 413 351.5 421.5 c 128,-1,43
 342 430 342 430 328.5 435 c 128,-1,44
 315 440 315 440 296 440 c 0,28,29
273 480 m 1,45,46
 325 480 325 480 351 462 c 128,-1,47
 377 444 377 444 388 425 c 1,48,-1
 393 425 l 1,49,-1
 436 470 l 1,50,-1
 486 470 l 1,51,-1
 404 0 l 1,52,-1
 354 0 l 1,53,-1
 326 45 l 1,54,-1
 321 45 l 1,55,56
 303 26 303 26 270 8 c 128,-1,57
 237 -10 237 -10 177 -10 c 0,58,59
 140 -10 140 -10 112.5 3.5 c 128,-1,60
 85 17 85 17 67 40 c 128,-1,61
 49 63 49 63 40.5 95 c 128,-1,62
 32 127 32 127 32 163 c 0,63,64
 32 215 32 215 47 269 c 128,-1,65
 62 323 62 323 92 368.5 c 128,-1,66
 122 414 122 414 167 444.5 c 128,-1,67
 212 475 212 475 273 480 c 1,45,46
EndSplineSet
EndChar

StartChar: ccedilla
Encoding: 231 231 171
Width: 486
Flags: W
LayerCount: 2
Fore
SplineSet
302 480 m 0,0,1
 321 480 321 480 347.5 478.5 c 128,-1,2
 374 477 374 477 398 469.5 c 128,-1,3
 422 462 422 462 438.5 446.5 c 128,-1,4
 455 431 455 431 455 402 c 0,5,6
 455 380 455 380 451 358.5 c 128,-1,7
 447 337 447 337 443 315 c 1,8,-1
 423 315 l 1,9,10
 424 321 424 321 424 326.5 c 128,-1,11
 424 332 424 332 424 337 c 0,12,13
 424 390 424 390 393.5 415 c 128,-1,14
 363 440 363 440 315 440 c 0,15,16
 266 440 266 440 231 414 c 128,-1,17
 196 388 196 388 173 348.5 c 128,-1,18
 150 309 150 309 139 261.5 c 128,-1,19
 128 214 128 214 128 171 c 0,20,21
 128 108 128 108 155.5 69 c 128,-1,22
 183 30 183 30 243 30 c 0,23,24
 296 30 296 30 332.5 51 c 128,-1,25
 369 72 369 72 402 110 c 1,26,-1
 419 95 l 1,27,28
 377 41 377 41 330 17.5 c 128,-1,29
 283 -6 283 -6 226 -10 c 1,30,-1
 220 -41 l 1,31,32
 253 -43 253 -43 271.5 -54 c 128,-1,33
 290 -65 290 -65 290 -93 c 0,34,35
 290 -120 290 -120 278.5 -137 c 128,-1,36
 267 -154 267 -154 248 -164 c 128,-1,37
 229 -174 229 -174 205 -177.5 c 128,-1,38
 181 -181 181 -181 156 -181 c 1,39,-1
 161 -151 l 1,40,41
 173 -151 173 -151 188 -150 c 128,-1,42
 203 -149 203 -149 216.5 -144.5 c 128,-1,43
 230 -140 230 -140 239.5 -130 c 128,-1,44
 249 -120 249 -120 249 -102 c 0,45,46
 249 -85 249 -85 232.5 -78 c 128,-1,47
 216 -71 216 -71 175 -71 c 1,48,-1
 186 -10 l 1,49,50
 146 -6 146 -6 117 10 c 128,-1,51
 88 26 88 26 69.5 50 c 128,-1,52
 51 74 51 74 42 106 c 128,-1,53
 33 138 33 138 33 174 c 0,54,55
 33 229 33 229 51 283.5 c 128,-1,56
 69 338 69 338 103.5 381.5 c 128,-1,57
 138 425 138 425 188 452.5 c 128,-1,58
 238 480 238 480 302 480 c 0,0,1
EndSplineSet
EndChar

StartChar: egrave
Encoding: 232 232 172
Width: 487
Flags: W
LayerCount: 2
Fore
SplineSet
202 656 m 1,0,-1
 297 656 l 1,1,-1
 314 526 l 1,2,-1
 274 526 l 1,3,-1
 202 656 l 1,0,-1
127 200 m 1,4,5
 125 189 125 189 124 179 c 128,-1,6
 123 169 123 169 123 159 c 0,7,8
 123 105 123 105 150.5 67.5 c 128,-1,9
 178 30 178 30 232 30 c 0,10,11
 281 30 281 30 317 51 c 128,-1,12
 353 72 353 72 386 110 c 1,13,-1
 403 95 l 1,14,15
 359 38 359 38 310.5 14 c 128,-1,16
 262 -10 262 -10 205 -10 c 0,17,18
 161 -10 161 -10 128.5 4 c 128,-1,19
 96 18 96 18 74.5 42.5 c 128,-1,20
 53 67 53 67 42.5 100.5 c 128,-1,21
 32 134 32 134 32 173 c 0,22,23
 32 225 32 225 49 279.5 c 128,-1,24
 66 334 66 334 99 378.5 c 128,-1,25
 132 423 132 423 180.5 451.5 c 128,-1,26
 229 480 229 480 291 480 c 0,27,28
 380 480 380 480 419 447 c 128,-1,29
 458 414 458 414 458 366 c 0,30,31
 458 325 458 325 440.5 294 c 128,-1,32
 423 263 423 263 393.5 242 c 128,-1,33
 364 221 364 221 326 210.5 c 128,-1,34
 288 200 288 200 247 200 c 2,35,-1
 127 200 l 1,4,5
249 240 m 1,36,37
 297 242 297 242 330 276 c 128,-1,38
 363 310 363 310 363 364 c 0,39,40
 363 399 363 399 342.5 419.5 c 128,-1,41
 322 440 322 440 284 440 c 0,42,43
 231 440 231 440 191 387 c 128,-1,44
 151 334 151 334 134 240 c 1,45,-1
 249 240 l 1,36,37
EndSplineSet
EndChar

StartChar: eacute
Encoding: 233 233 173
Width: 487
Flags: W
LayerCount: 2
Fore
SplineSet
309 526 m 1,0,-1
 269 526 l 1,1,-1
 332 656 l 1,2,-1
 427 656 l 1,3,-1
 309 526 l 1,0,-1
127 200 m 1,4,5
 125 189 125 189 124 179 c 128,-1,6
 123 169 123 169 123 159 c 0,7,8
 123 105 123 105 150.5 67.5 c 128,-1,9
 178 30 178 30 232 30 c 0,10,11
 281 30 281 30 317 51 c 128,-1,12
 353 72 353 72 386 110 c 1,13,-1
 403 95 l 1,14,15
 359 38 359 38 310.5 14 c 128,-1,16
 262 -10 262 -10 205 -10 c 0,17,18
 161 -10 161 -10 128.5 4 c 128,-1,19
 96 18 96 18 74.5 42.5 c 128,-1,20
 53 67 53 67 42.5 100.5 c 128,-1,21
 32 134 32 134 32 173 c 0,22,23
 32 225 32 225 49 279.5 c 128,-1,24
 66 334 66 334 99 378.5 c 128,-1,25
 132 423 132 423 180.5 451.5 c 128,-1,26
 229 480 229 480 291 480 c 0,27,28
 380 480 380 480 419 447 c 128,-1,29
 458 414 458 414 458 366 c 0,30,31
 458 325 458 325 440.5 294 c 128,-1,32
 423 263 423 263 393.5 242 c 128,-1,33
 364 221 364 221 326 210.5 c 128,-1,34
 288 200 288 200 247 200 c 2,35,-1
 127 200 l 1,4,5
249 240 m 1,36,37
 297 242 297 242 330 276 c 128,-1,38
 363 310 363 310 363 364 c 0,39,40
 363 399 363 399 342.5 419.5 c 128,-1,41
 322 440 322 440 284 440 c 0,42,43
 231 440 231 440 191 387 c 128,-1,44
 151 334 151 334 134 240 c 1,45,-1
 249 240 l 1,36,37
EndSplineSet
EndChar

StartChar: ecircumflex
Encoding: 234 234 174
Width: 487
Flags: W
LayerCount: 2
Fore
SplineSet
318 605 m 1,0,-1
 219 525 l 1,1,-1
 169 525 l 1,2,-1
 269 640 l 1,3,-1
 379 640 l 1,4,-1
 439 525 l 1,5,-1
 389 525 l 1,6,-1
 318 605 l 1,0,-1
127 200 m 1,7,8
 125 189 125 189 124 179 c 128,-1,9
 123 169 123 169 123 159 c 0,10,11
 123 105 123 105 150.5 67.5 c 128,-1,12
 178 30 178 30 232 30 c 0,13,14
 281 30 281 30 317 51 c 128,-1,15
 353 72 353 72 386 110 c 1,16,-1
 403 95 l 1,17,18
 359 38 359 38 310.5 14 c 128,-1,19
 262 -10 262 -10 205 -10 c 0,20,21
 161 -10 161 -10 128.5 4 c 128,-1,22
 96 18 96 18 74.5 42.5 c 128,-1,23
 53 67 53 67 42.5 100.5 c 128,-1,24
 32 134 32 134 32 173 c 0,25,26
 32 225 32 225 49 279.5 c 128,-1,27
 66 334 66 334 99 378.5 c 128,-1,28
 132 423 132 423 180.5 451.5 c 128,-1,29
 229 480 229 480 291 480 c 0,30,31
 380 480 380 480 419 447 c 128,-1,32
 458 414 458 414 458 366 c 0,33,34
 458 325 458 325 440.5 294 c 128,-1,35
 423 263 423 263 393.5 242 c 128,-1,36
 364 221 364 221 326 210.5 c 128,-1,37
 288 200 288 200 247 200 c 2,38,-1
 127 200 l 1,7,8
249 240 m 1,39,40
 297 242 297 242 330 276 c 128,-1,41
 363 310 363 310 363 364 c 0,42,43
 363 399 363 399 342.5 419.5 c 128,-1,44
 322 440 322 440 284 440 c 0,45,46
 231 440 231 440 191 387 c 128,-1,47
 151 334 151 334 134 240 c 1,48,-1
 249 240 l 1,39,40
EndSplineSet
EndChar

StartChar: edieresis
Encoding: 235 235 175
Width: 487
Flags: W
LayerCount: 2
Fore
SplineSet
437 597 m 0,0,1
 437 577 437 577 420.5 561 c 128,-1,2
 404 545 404 545 383 545 c 0,3,4
 366 545 366 545 355.5 555 c 128,-1,5
 345 565 345 565 345 581 c 0,6,7
 345 601 345 601 360 618 c 128,-1,8
 375 635 375 635 398 635 c 0,9,10
 415 635 415 635 426 624.5 c 128,-1,11
 437 614 437 614 437 597 c 0,0,1
267 597 m 0,12,13
 267 577 267 577 250.5 561 c 128,-1,14
 234 545 234 545 213 545 c 0,15,16
 196 545 196 545 185.5 555 c 128,-1,17
 175 565 175 565 175 581 c 0,18,19
 175 601 175 601 190 618 c 128,-1,20
 205 635 205 635 228 635 c 0,21,22
 245 635 245 635 256 624.5 c 128,-1,23
 267 614 267 614 267 597 c 0,12,13
127 200 m 1,24,25
 125 189 125 189 124 179 c 128,-1,26
 123 169 123 169 123 159 c 0,27,28
 123 105 123 105 150.5 67.5 c 128,-1,29
 178 30 178 30 232 30 c 0,30,31
 281 30 281 30 317 51 c 128,-1,32
 353 72 353 72 386 110 c 1,33,-1
 403 95 l 1,34,35
 359 38 359 38 310.5 14 c 128,-1,36
 262 -10 262 -10 205 -10 c 0,37,38
 161 -10 161 -10 128.5 4 c 128,-1,39
 96 18 96 18 74.5 42.5 c 128,-1,40
 53 67 53 67 42.5 100.5 c 128,-1,41
 32 134 32 134 32 173 c 0,42,43
 32 225 32 225 49 279.5 c 128,-1,44
 66 334 66 334 99 378.5 c 128,-1,45
 132 423 132 423 180.5 451.5 c 128,-1,46
 229 480 229 480 291 480 c 0,47,48
 380 480 380 480 419 447 c 128,-1,49
 458 414 458 414 458 366 c 0,50,51
 458 325 458 325 440.5 294 c 128,-1,52
 423 263 423 263 393.5 242 c 128,-1,53
 364 221 364 221 326 210.5 c 128,-1,54
 288 200 288 200 247 200 c 2,55,-1
 127 200 l 1,24,25
249 240 m 1,56,57
 297 242 297 242 330 276 c 128,-1,58
 363 310 363 310 363 364 c 0,59,60
 363 399 363 399 342.5 419.5 c 128,-1,61
 322 440 322 440 284 440 c 0,62,63
 231 440 231 440 191 387 c 128,-1,64
 151 334 151 334 134 240 c 1,65,-1
 249 240 l 1,56,57
EndSplineSet
EndChar

StartChar: igrave
Encoding: 236 236 176
Width: 251
Flags: W
LayerCount: 2
Fore
SplineSet
42 0 m 1,0,1
 58 92 58 92 69 156 c 128,-1,2
 80 220 80 220 87.5 262.5 c 128,-1,3
 95 305 95 305 99 330 c 128,-1,4
 103 355 103 355 105 368.5 c 128,-1,5
 107 382 107 382 107.5 387 c 128,-1,6
 108 392 108 392 108 395 c 0,7,8
 108 421 108 421 95.5 435.5 c 128,-1,9
 83 450 83 450 51 450 c 2,10,-1
 31 450 l 1,11,-1
 34 470 l 1,12,-1
 124 470 l 2,13,14
 164 470 164 470 182 458 c 128,-1,15
 200 446 200 446 200 409 c 0,16,17
 200 405 200 405 199.5 399 c 128,-1,18
 199 393 199 393 197 379 c 128,-1,19
 195 365 195 365 190.5 339 c 128,-1,20
 186 313 186 313 178.5 269 c 128,-1,21
 171 225 171 225 159.5 159 c 128,-1,22
 148 93 148 93 132 0 c 1,23,-1
 42 0 l 1,0,1
92 655 m 1,24,-1
 187 655 l 1,25,-1
 204 525 l 1,26,-1
 164 525 l 1,27,-1
 92 655 l 1,24,-1
EndSplineSet
EndChar

StartChar: iacute
Encoding: 237 237 177
Width: 251
Flags: W
LayerCount: 2
Fore
SplineSet
179 525 m 1,0,-1
 139 525 l 1,1,-1
 202 655 l 1,2,-1
 297 655 l 1,3,-1
 179 525 l 1,0,-1
42 0 m 1,4,5
 58 92 58 92 69 156 c 128,-1,6
 80 220 80 220 87.5 262.5 c 128,-1,7
 95 305 95 305 99 330 c 128,-1,8
 103 355 103 355 105 368.5 c 128,-1,9
 107 382 107 382 107.5 387 c 128,-1,10
 108 392 108 392 108 395 c 0,11,12
 108 421 108 421 95.5 435.5 c 128,-1,13
 83 450 83 450 51 450 c 2,14,-1
 31 450 l 1,15,-1
 34 470 l 1,16,-1
 124 470 l 2,17,18
 164 470 164 470 182 458 c 128,-1,19
 200 446 200 446 200 409 c 0,20,21
 200 405 200 405 199.5 399 c 128,-1,22
 199 393 199 393 197 379 c 128,-1,23
 195 365 195 365 190.5 339 c 128,-1,24
 186 313 186 313 178.5 269 c 128,-1,25
 171 225 171 225 159.5 159 c 128,-1,26
 148 93 148 93 132 0 c 1,27,-1
 42 0 l 1,4,5
EndSplineSet
EndChar

StartChar: icircumflex
Encoding: 238 238 178
Width: 251
Flags: W
LayerCount: 2
Fore
SplineSet
194 611 m 1,0,-1
 95 531 l 1,1,-1
 45 531 l 1,2,-1
 145 646 l 1,3,-1
 255 646 l 1,4,-1
 315 531 l 1,5,-1
 265 531 l 1,6,-1
 194 611 l 1,0,-1
42 0 m 1,7,8
 58 92 58 92 69 156 c 128,-1,9
 80 220 80 220 87.5 262.5 c 128,-1,10
 95 305 95 305 99 330 c 128,-1,11
 103 355 103 355 105 368.5 c 128,-1,12
 107 382 107 382 107.5 387 c 128,-1,13
 108 392 108 392 108 395 c 0,14,15
 108 421 108 421 95.5 435.5 c 128,-1,16
 83 450 83 450 51 450 c 2,17,-1
 31 450 l 1,18,-1
 34 470 l 1,19,-1
 124 470 l 2,20,21
 164 470 164 470 182 458 c 128,-1,22
 200 446 200 446 200 409 c 0,23,24
 200 405 200 405 199.5 399 c 128,-1,25
 199 393 199 393 197 379 c 128,-1,26
 195 365 195 365 190.5 339 c 128,-1,27
 186 313 186 313 178.5 269 c 128,-1,28
 171 225 171 225 159.5 159 c 128,-1,29
 148 93 148 93 132 0 c 1,30,-1
 42 0 l 1,7,8
EndSplineSet
EndChar

StartChar: idieresis
Encoding: 239 239 179
Width: 251
Flags: W
LayerCount: 2
Fore
SplineSet
157 597 m 0,0,1
 157 574 157 574 142.5 557 c 128,-1,2
 128 540 128 540 102 540 c 0,3,4
 82 540 82 540 69 555 c 128,-1,5
 56 570 56 570 56 592 c 0,6,7
 56 615 56 615 70.5 632 c 128,-1,8
 85 649 85 649 111 649 c 0,9,10
 131 649 131 649 144 634 c 128,-1,11
 157 619 157 619 157 597 c 0,0,1
311 597 m 0,12,13
 311 574 311 574 296.5 557 c 128,-1,14
 282 540 282 540 256 540 c 0,15,16
 236 540 236 540 223 555 c 128,-1,17
 210 570 210 570 210 592 c 0,18,19
 210 615 210 615 224.5 632 c 128,-1,20
 239 649 239 649 265 649 c 0,21,22
 285 649 285 649 298 634 c 128,-1,23
 311 619 311 619 311 597 c 0,12,13
42 0 m 1,24,25
 58 92 58 92 69 156 c 128,-1,26
 80 220 80 220 87.5 262.5 c 128,-1,27
 95 305 95 305 99 330 c 128,-1,28
 103 355 103 355 105 368.5 c 128,-1,29
 107 382 107 382 107.5 387 c 128,-1,30
 108 392 108 392 108 395 c 0,31,32
 108 421 108 421 95.5 435.5 c 128,-1,33
 83 450 83 450 51 450 c 2,34,-1
 31 450 l 1,35,-1
 34 470 l 1,36,-1
 124 470 l 2,37,38
 164 470 164 470 182 458 c 128,-1,39
 200 446 200 446 200 409 c 0,40,41
 200 405 200 405 199.5 399 c 128,-1,42
 199 393 199 393 197 379 c 128,-1,43
 195 365 195 365 190.5 339 c 128,-1,44
 186 313 186 313 178.5 269 c 128,-1,45
 171 225 171 225 159.5 159 c 128,-1,46
 148 93 148 93 132 0 c 1,47,-1
 42 0 l 1,24,25
EndSplineSet
EndChar

StartChar: ntilde
Encoding: 241 241 180
Width: 549
Flags: W
LayerCount: 2
Fore
SplineSet
103 350 m 2,0,1
 108 378 108 378 108 395 c 0,2,3
 108 421 108 421 95.5 435.5 c 128,-1,4
 83 450 83 450 51 450 c 2,5,-1
 31 450 l 1,6,-1
 34 470 l 1,7,-1
 124 470 l 2,8,9
 162 470 162 470 180 459.5 c 128,-1,10
 198 449 198 449 202 430 c 1,11,-1
 207 430 l 1,12,13
 230 449 230 449 265.5 464.5 c 128,-1,14
 301 480 301 480 346 480 c 0,15,16
 374 480 374 480 399.5 474.5 c 128,-1,17
 425 469 425 469 445 454.5 c 128,-1,18
 465 440 465 440 477 415 c 128,-1,19
 489 390 489 390 489 352 c 0,20,21
 489 348 489 348 488.5 342.5 c 128,-1,22
 488 337 488 337 486.5 324.5 c 128,-1,23
 485 312 485 312 481.5 290 c 128,-1,24
 478 268 478 268 471.5 230 c 128,-1,25
 465 192 465 192 455.5 136 c 128,-1,26
 446 80 446 80 432 0 c 1,27,-1
 342 0 l 1,28,29
 356 78 356 78 365.5 133 c 128,-1,30
 375 188 375 188 381 224.5 c 128,-1,31
 387 261 387 261 390.5 282.5 c 128,-1,32
 394 304 394 304 395.5 315.5 c 128,-1,33
 397 327 397 327 397.5 331.5 c 128,-1,34
 398 336 398 336 398 339 c 0,35,36
 398 365 398 365 390.5 383.5 c 128,-1,37
 383 402 383 402 370.5 413.5 c 128,-1,38
 358 425 358 425 342 430 c 128,-1,39
 326 435 326 435 308 435 c 0,40,41
 278 435 278 435 250 419 c 128,-1,42
 222 403 222 403 199 382 c 1,43,-1
 132 0 l 1,44,-1
 42 0 l 1,45,-1
 103 350 l 2,0,1
219 544 m 1,46,47
 229 597 229 597 247.5 618 c 128,-1,48
 266 639 266 639 296 639 c 0,49,50
 312 639 312 639 324 632.5 c 128,-1,51
 336 626 336 626 346.5 618.5 c 128,-1,52
 357 611 357 611 368 605 c 128,-1,53
 379 599 379 599 394 599 c 0,54,55
 400 599 400 599 406 603 c 128,-1,56
 412 607 412 607 417.5 613 c 128,-1,57
 423 619 423 619 426.5 626 c 128,-1,58
 430 633 430 633 431 639 c 1,59,-1
 461 639 l 1,60,61
 452 586 452 586 433 565 c 128,-1,62
 414 544 414 544 384 544 c 0,63,64
 368 544 368 544 356.5 550 c 128,-1,65
 345 556 345 556 334.5 563.5 c 128,-1,66
 324 571 324 571 312.5 577.5 c 128,-1,67
 301 584 301 584 286 584 c 0,68,69
 280 584 280 584 274 580 c 128,-1,70
 268 576 268 576 263 570 c 128,-1,71
 258 564 258 564 254 557 c 128,-1,72
 250 550 250 550 249 544 c 1,73,-1
 219 544 l 1,46,47
EndSplineSet
EndChar

StartChar: ograve
Encoding: 242 242 181
Width: 529
Flags: W
LayerCount: 2
Fore
SplineSet
226 655 m 1,0,-1
 321 655 l 1,1,-1
 338 525 l 1,2,-1
 298 525 l 1,3,-1
 226 655 l 1,0,-1
221 30 m 0,4,5
 263 30 263 30 294.5 58.5 c 128,-1,6
 326 87 326 87 346.5 128 c 128,-1,7
 367 169 367 169 377.5 215 c 128,-1,8
 388 261 388 261 388 297 c 0,9,10
 388 360 388 360 363.5 400 c 128,-1,11
 339 440 339 440 293 440 c 0,12,13
 251 440 251 440 219.5 411.5 c 128,-1,14
 188 383 188 383 167.5 342 c 128,-1,15
 147 301 147 301 136.5 255 c 128,-1,16
 126 209 126 209 126 173 c 0,17,18
 126 110 126 110 150.5 70 c 128,-1,19
 175 30 175 30 221 30 c 0,4,5
32 179 m 0,20,21
 32 232 32 232 50.5 286 c 128,-1,22
 69 340 69 340 104 383 c 128,-1,23
 139 426 139 426 188.5 453 c 128,-1,24
 238 480 238 480 300 480 c 0,25,26
 345 480 345 480 379 465.5 c 128,-1,27
 413 451 413 451 436 426 c 128,-1,28
 459 401 459 401 470.5 366 c 128,-1,29
 482 331 482 331 482 291 c 0,30,31
 482 238 482 238 463.5 184 c 128,-1,32
 445 130 445 130 410 87 c 128,-1,33
 375 44 375 44 325.5 17 c 128,-1,34
 276 -10 276 -10 214 -10 c 0,35,36
 169 -10 169 -10 135 4.5 c 128,-1,37
 101 19 101 19 78 44 c 128,-1,38
 55 69 55 69 43.5 103.5 c 128,-1,39
 32 138 32 138 32 179 c 0,20,21
EndSplineSet
EndChar

StartChar: oacute
Encoding: 243 243 182
Width: 529
Flags: W
LayerCount: 2
Fore
SplineSet
313 525 m 1,0,-1
 273 525 l 1,1,-1
 336 655 l 1,2,-1
 431 655 l 1,3,-1
 313 525 l 1,0,-1
221 30 m 0,4,5
 263 30 263 30 294.5 58.5 c 128,-1,6
 326 87 326 87 346.5 128 c 128,-1,7
 367 169 367 169 377.5 215 c 128,-1,8
 388 261 388 261 388 297 c 0,9,10
 388 360 388 360 363.5 400 c 128,-1,11
 339 440 339 440 293 440 c 0,12,13
 251 440 251 440 219.5 411.5 c 128,-1,14
 188 383 188 383 167.5 342 c 128,-1,15
 147 301 147 301 136.5 255 c 128,-1,16
 126 209 126 209 126 173 c 0,17,18
 126 110 126 110 150.5 70 c 128,-1,19
 175 30 175 30 221 30 c 0,4,5
32 179 m 0,20,21
 32 232 32 232 50.5 286 c 128,-1,22
 69 340 69 340 104 383 c 128,-1,23
 139 426 139 426 188.5 453 c 128,-1,24
 238 480 238 480 300 480 c 0,25,26
 345 480 345 480 379 465.5 c 128,-1,27
 413 451 413 451 436 426 c 128,-1,28
 459 401 459 401 470.5 366 c 128,-1,29
 482 331 482 331 482 291 c 0,30,31
 482 238 482 238 463.5 184 c 128,-1,32
 445 130 445 130 410 87 c 128,-1,33
 375 44 375 44 325.5 17 c 128,-1,34
 276 -10 276 -10 214 -10 c 0,35,36
 169 -10 169 -10 135 4.5 c 128,-1,37
 101 19 101 19 78 44 c 128,-1,38
 55 69 55 69 43.5 103.5 c 128,-1,39
 32 138 32 138 32 179 c 0,20,21
EndSplineSet
EndChar

StartChar: ocircumflex
Encoding: 244 244 183
Width: 529
Flags: W
LayerCount: 2
Fore
SplineSet
322 605 m 1,0,-1
 223 525 l 1,1,-1
 173 525 l 1,2,-1
 273 640 l 1,3,-1
 383 640 l 1,4,-1
 443 525 l 1,5,-1
 393 525 l 1,6,-1
 322 605 l 1,0,-1
221 30 m 0,7,8
 263 30 263 30 294.5 58.5 c 128,-1,9
 326 87 326 87 346.5 128 c 128,-1,10
 367 169 367 169 377.5 215 c 128,-1,11
 388 261 388 261 388 297 c 0,12,13
 388 360 388 360 363.5 400 c 128,-1,14
 339 440 339 440 293 440 c 0,15,16
 251 440 251 440 219.5 411.5 c 128,-1,17
 188 383 188 383 167.5 342 c 128,-1,18
 147 301 147 301 136.5 255 c 128,-1,19
 126 209 126 209 126 173 c 0,20,21
 126 110 126 110 150.5 70 c 128,-1,22
 175 30 175 30 221 30 c 0,7,8
32 179 m 0,23,24
 32 232 32 232 50.5 286 c 128,-1,25
 69 340 69 340 104 383 c 128,-1,26
 139 426 139 426 188.5 453 c 128,-1,27
 238 480 238 480 300 480 c 0,28,29
 345 480 345 480 379 465.5 c 128,-1,30
 413 451 413 451 436 426 c 128,-1,31
 459 401 459 401 470.5 366 c 128,-1,32
 482 331 482 331 482 291 c 0,33,34
 482 238 482 238 463.5 184 c 128,-1,35
 445 130 445 130 410 87 c 128,-1,36
 375 44 375 44 325.5 17 c 128,-1,37
 276 -10 276 -10 214 -10 c 0,38,39
 169 -10 169 -10 135 4.5 c 128,-1,40
 101 19 101 19 78 44 c 128,-1,41
 55 69 55 69 43.5 103.5 c 128,-1,42
 32 138 32 138 32 179 c 0,23,24
EndSplineSet
EndChar

StartChar: otilde
Encoding: 245 245 184
Width: 529
Flags: W
LayerCount: 2
Fore
SplineSet
197 535 m 1,0,1
 206 588 206 588 225 609 c 128,-1,2
 244 630 244 630 274 630 c 0,3,4
 290 630 290 630 302 623.5 c 128,-1,5
 314 617 314 617 324.5 609.5 c 128,-1,6
 335 602 335 602 346 596 c 128,-1,7
 357 590 357 590 372 590 c 0,8,9
 378 590 378 590 384 594 c 128,-1,10
 390 598 390 598 395 604 c 128,-1,11
 400 610 400 610 404 617 c 128,-1,12
 408 624 408 624 409 630 c 1,13,-1
 439 630 l 1,14,15
 429 577 429 577 410.5 556 c 128,-1,16
 392 535 392 535 362 535 c 0,17,18
 346 535 346 535 334.5 541 c 128,-1,19
 323 547 323 547 312.5 554.5 c 128,-1,20
 302 562 302 562 290.5 568.5 c 128,-1,21
 279 575 279 575 264 575 c 0,22,23
 258 575 258 575 252 571 c 128,-1,24
 246 567 246 567 240.5 561 c 128,-1,25
 235 555 235 555 231.5 548 c 128,-1,26
 228 541 228 541 227 535 c 1,27,-1
 197 535 l 1,0,1
221 30 m 0,28,29
 263 30 263 30 294.5 58.5 c 128,-1,30
 326 87 326 87 346.5 128 c 128,-1,31
 367 169 367 169 377.5 215 c 128,-1,32
 388 261 388 261 388 297 c 0,33,34
 388 360 388 360 363.5 400 c 128,-1,35
 339 440 339 440 293 440 c 0,36,37
 251 440 251 440 219.5 411.5 c 128,-1,38
 188 383 188 383 167.5 342 c 128,-1,39
 147 301 147 301 136.5 255 c 128,-1,40
 126 209 126 209 126 173 c 0,41,42
 126 110 126 110 150.5 70 c 128,-1,43
 175 30 175 30 221 30 c 0,28,29
32 179 m 0,44,45
 32 232 32 232 50.5 286 c 128,-1,46
 69 340 69 340 104 383 c 128,-1,47
 139 426 139 426 188.5 453 c 128,-1,48
 238 480 238 480 300 480 c 0,49,50
 345 480 345 480 379 465.5 c 128,-1,51
 413 451 413 451 436 426 c 128,-1,52
 459 401 459 401 470.5 366 c 128,-1,53
 482 331 482 331 482 291 c 0,54,55
 482 238 482 238 463.5 184 c 128,-1,56
 445 130 445 130 410 87 c 128,-1,57
 375 44 375 44 325.5 17 c 128,-1,58
 276 -10 276 -10 214 -10 c 0,59,60
 169 -10 169 -10 135 4.5 c 128,-1,61
 101 19 101 19 78 44 c 128,-1,62
 55 69 55 69 43.5 103.5 c 128,-1,63
 32 138 32 138 32 179 c 0,44,45
EndSplineSet
EndChar

StartChar: oslash
Encoding: 248 248 185
Width: 529
Flags: W
LayerCount: 2
Fore
SplineSet
16 0 m 1,0,-1
 66 58 l 1,1,2
 32 109 32 109 32 179 c 0,3,4
 32 232 32 232 50.5 286 c 128,-1,5
 69 340 69 340 104 383 c 128,-1,6
 139 426 139 426 188.5 453 c 128,-1,7
 238 480 238 480 300 480 c 0,8,9
 364 480 364 480 408 450 c 1,10,-1
 425 470 l 1,11,-1
 498 470 l 1,12,-1
 447 411 l 1,13,14
 482 362 482 362 482 288 c 0,15,16
 482 235 482 235 463 182 c 128,-1,17
 444 129 444 129 409 86 c 128,-1,18
 374 43 374 43 324.5 16.5 c 128,-1,19
 275 -10 275 -10 214 -10 c 0,20,21
 181 -10 181 -10 154 -2 c 128,-1,22
 127 6 127 6 105 20 c 1,23,-1
 89 0 l 1,24,-1
 16 0 l 1,0,-1
221 30 m 0,25,26
 263 30 263 30 294 58 c 128,-1,27
 325 86 325 86 346 126.5 c 128,-1,28
 367 167 367 167 377.5 213 c 128,-1,29
 388 259 388 259 388 294 c 0,30,31
 388 306 388 306 387 317 c 128,-1,32
 386 328 386 328 384 339 c 1,33,-1
 150 71 l 1,34,35
 174 30 174 30 221 30 c 0,25,26
293 440 m 0,36,37
 251 440 251 440 220 412 c 128,-1,38
 189 384 189 384 168 343.5 c 128,-1,39
 147 303 147 303 136.5 257 c 128,-1,40
 126 211 126 211 126 176 c 0,41,42
 126 164 126 164 127 153 c 128,-1,43
 128 142 128 142 130 131 c 1,44,-1
 364 399 l 1,45,46
 337 440 337 440 293 440 c 0,36,37
EndSplineSet
EndChar

StartChar: ugrave
Encoding: 249 249 186
Width: 537
Flags: W
LayerCount: 2
Fore
SplineSet
223 630 m 1,0,-1
 318 630 l 1,1,-1
 335 500 l 1,2,-1
 295 500 l 1,3,-1
 223 630 l 1,0,-1
416 0 m 1,4,-1
 366 0 l 1,5,-1
 338 40 l 1,6,-1
 333 40 l 1,7,8
 310 21 310 21 274.5 5.5 c 128,-1,9
 239 -10 239 -10 194 -10 c 0,10,11
 166 -10 166 -10 140 -4 c 128,-1,12
 114 2 114 2 94 16.5 c 128,-1,13
 74 31 74 31 62 56 c 128,-1,14
 50 81 50 81 50 120 c 0,15,16
 50 126 50 126 51 134.5 c 128,-1,17
 52 143 52 143 55.5 166 c 128,-1,18
 59 189 59 189 66.5 232 c 128,-1,19
 74 275 74 275 87 350 c 0,20,21
 92 378 92 378 92 395 c 0,22,23
 92 421 92 421 79.5 435.5 c 128,-1,24
 67 450 67 450 35 450 c 2,25,-1
 25 450 l 1,26,-1
 28 470 l 1,27,-1
 108 470 l 2,28,29
 148 470 148 470 166 458 c 128,-1,30
 184 446 184 446 184 409 c 0,31,32
 184 397 184 397 182 382.5 c 128,-1,33
 180 368 180 368 177 350 c 0,34,35
 164 277 164 277 157 235.5 c 128,-1,36
 150 194 150 194 146.5 172.5 c 128,-1,37
 143 151 143 151 142.5 143.5 c 128,-1,38
 142 136 142 136 142 132 c 0,39,40
 142 105 142 105 149.5 86.5 c 128,-1,41
 157 68 157 68 169.5 56.5 c 128,-1,42
 182 45 182 45 198 40 c 128,-1,43
 214 35 214 35 232 35 c 0,44,45
 262 35 262 35 290 51 c 128,-1,46
 318 67 318 67 341 88 c 1,47,-1
 408 470 l 1,48,-1
 498 470 l 1,49,-1
 416 0 l 1,4,-1
EndSplineSet
EndChar

StartChar: uacute
Encoding: 250 250 187
Width: 537
Flags: W
LayerCount: 2
Fore
SplineSet
320 500 m 1,0,-1
 280 500 l 1,1,-1
 343 630 l 1,2,-1
 438 630 l 1,3,-1
 320 500 l 1,0,-1
416 0 m 1,4,-1
 366 0 l 1,5,-1
 338 40 l 1,6,-1
 333 40 l 1,7,8
 310 21 310 21 274.5 5.5 c 128,-1,9
 239 -10 239 -10 194 -10 c 0,10,11
 166 -10 166 -10 140 -4 c 128,-1,12
 114 2 114 2 94 16.5 c 128,-1,13
 74 31 74 31 62 56 c 128,-1,14
 50 81 50 81 50 120 c 0,15,16
 50 126 50 126 51 134.5 c 128,-1,17
 52 143 52 143 55.5 166 c 128,-1,18
 59 189 59 189 66.5 232 c 128,-1,19
 74 275 74 275 87 350 c 0,20,21
 92 378 92 378 92 395 c 0,22,23
 92 421 92 421 79.5 435.5 c 128,-1,24
 67 450 67 450 35 450 c 2,25,-1
 25 450 l 1,26,-1
 28 470 l 1,27,-1
 108 470 l 2,28,29
 148 470 148 470 166 458 c 128,-1,30
 184 446 184 446 184 409 c 0,31,32
 184 397 184 397 182 382.5 c 128,-1,33
 180 368 180 368 177 350 c 0,34,35
 164 277 164 277 157 235.5 c 128,-1,36
 150 194 150 194 146.5 172.5 c 128,-1,37
 143 151 143 151 142.5 143.5 c 128,-1,38
 142 136 142 136 142 132 c 0,39,40
 142 105 142 105 149.5 86.5 c 128,-1,41
 157 68 157 68 169.5 56.5 c 128,-1,42
 182 45 182 45 198 40 c 128,-1,43
 214 35 214 35 232 35 c 0,44,45
 262 35 262 35 290 51 c 128,-1,46
 318 67 318 67 341 88 c 1,47,-1
 408 470 l 1,48,-1
 498 470 l 1,49,-1
 416 0 l 1,4,-1
EndSplineSet
EndChar

